<svg width="37" height="31" viewBox="0 0 37 31" fill="none" xmlns="http://www.w3.org/2000/svg">
<g id="Group">
<g id="Layer 2">
<g id="Layer 1">
<path id="Vector" d="M30.7337 12.7014C30.7337 12.7014 31.1756 23.6759 28.0369 25.956L27.6897 14.0522L30.7337 12.7014Z" fill="#020202"/>
<path id="Vector_2" d="M28.2202 15.1856C28.2202 15.1856 29.5611 13.8854 31.6776 15.1856C33.7941 16.4857 31.873 22.5426 28.6065 22.483L28.2202 15.1856Z" fill="#FFCDC2"/>
<path id="Vector_3" d="M7.31079 20.6393C7.31079 20.6393 8.51335 25.4526 10.6614 26.4475L10.242 21.165L7.31079 20.6393Z" fill="#020202"/>
<path id="Vector_4" d="M28.7511 9.74228V22.3341C28.7671 23.6118 28.5269 24.8799 28.0445 26.065C27.562 27.25 26.8469 28.3284 25.9406 29.2375C25.0343 30.1467 23.9548 30.8685 22.7648 31.3611C21.5748 31.8538 20.2979 32.1075 19.0081 32.1075C17.7184 32.1075 16.4415 31.8538 15.2514 31.3611C14.0614 30.8685 12.9819 30.1467 12.0756 29.2375C11.1693 28.3284 10.4542 27.25 9.97176 26.065C9.48931 24.8799 9.24914 23.6118 9.26516 22.3341V9.74228H28.7511Z" fill="#FFCDC2"/>
<g id="Group_2" style="mix-blend-mode:multiply" opacity="0.7">
<path id="Vector_5" d="M26.9997 27.8444C26.0863 29.1415 24.8652 30.1963 23.4438 30.9163C22.0225 31.6362 20.4443 31.9992 18.8482 31.9733C17.252 31.9475 15.6868 31.5335 14.2899 30.7678C12.8931 30.0022 11.7075 28.9083 10.8374 27.5823C12.3616 28.2599 16.9028 30.2049 18.9546 30.2049C20.7795 30.2094 24.9298 28.6665 26.9997 27.8444Z" fill="#E0A4AB"/>
</g>
<path id="Vector_6" d="M12.0254 14.9741C12.0254 14.9741 19.7473 19.229 27.6 16.304V14.6137C27.6 14.6137 24.4809 13.1721 23.6015 13.1244C22.7221 13.0768 15.603 13.3314 15.0588 13.3314C14.5147 13.3314 12.8807 12.7655 12.6718 12.6955C12.4628 12.6255 12.0254 14.9741 12.0254 14.9741Z" fill="#FFCDC2"/>
<path id="Vector_7" d="M29.0021 13.8914L28.9915 14.2712L28.7691 21.5209L28.724 23.0192C28.6894 22.6111 28.6368 22.1539 28.5737 21.6684C28.2505 19.3183 27.6071 16.307 27.3275 15.0322C27.2418 14.645 27.1892 14.4156 27.1892 14.4156L29.0021 13.8914Z" fill="#231F20"/>
<path id="Vector_8" d="M31.2207 12.7163C30.551 13.3297 29.8019 13.8521 28.993 14.2696C28.455 14.5615 27.8981 14.8177 27.326 15.0365C24.2429 16.2012 19.3981 16.7998 13.0456 13.7573C13.0456 13.7573 9.90996 16.9875 9.33123 20.7315C9.30116 20.9222 9.27861 21.1128 9.26208 21.3064C9.26208 21.3064 9.24705 21.0175 9.21097 20.5618C9.07117 18.8059 8.62322 14.5898 7.55746 14.9204L7.45374 14.9517L6.22112 15.3344L6.20007 15.2227C6.0708 14.493 5.46651 10.4183 7.70327 9.11668C7.70327 9.11668 7.00579 8.86648 5.86035 9.7526C5.86035 9.7526 6.08583 7.65123 7.8145 7.36976C7.8145 7.36976 6.19707 5.54391 7.48079 3.33085C7.48079 3.33085 8.12115 5.41583 9.26659 4.96905C9.26659 4.96905 11.4162 -1.00443 20.7976 0.157203C30.179 1.31884 31.7649 10.1428 31.2207 12.7163Z" fill="#231F20"/>
<path id="Vector_9" d="M21.8319 27.4512C21.3563 27.8325 20.7981 28.0995 20.201 28.2316C18.7759 28.5608 17.0954 28.2689 16.0116 27.5063C15.1187 26.8779 14.6301 25.9307 15.0195 24.7408C15.09 24.5354 15.1774 24.3362 15.281 24.1451C15.9094 22.9879 17.7493 24.8301 19.2164 24.2702C20.6835 23.7102 21.5193 23.1979 22.6286 23.8993C22.794 24.0073 22.9216 24.1634 22.9939 24.3461C23.3487 25.128 22.9714 26.5309 21.8319 27.4512Z" fill="#EF736A"/>
<path id="Vector_10" d="M23.0001 24.3401C22.7475 25.0297 20.9828 25.5643 18.8468 25.5643C17.1436 25.5643 15.6795 25.2263 15.0256 24.7393C15.0961 24.5339 15.1836 24.3347 15.2872 24.1436C15.9155 22.9864 17.7554 24.8286 19.2226 24.2687C20.6897 23.7087 21.5254 23.1964 22.6348 23.8978C22.7995 24.0046 22.927 24.1591 23.0001 24.3401Z" fill="white"/>
<path id="Vector_11" d="M21.8321 27.4512C21.3564 27.8324 20.7982 28.0995 20.2011 28.2316C18.7761 28.5607 17.0955 28.2688 16.0117 27.5063C16.9801 27.2104 17.9898 27.0686 19.0031 27.0863C19.9589 27.0719 20.9118 27.1948 21.8321 27.4512Z" fill="white"/>
<path id="Vector_12" d="M34.7265 29.1133V43.9062C34.7262 44.281 34.605 44.6459 34.3805 44.9476C34.156 45.2493 33.8401 45.472 33.4788 45.5831L21.303 49.3242C21.1326 49.3766 20.9553 49.4037 20.7768 49.4046H17.2383C17.0599 49.4037 16.8826 49.3766 16.7122 49.3242L4.53633 45.5831C4.18798 45.4765 3.88149 45.2656 3.65891 44.9795C3.43633 44.6934 3.30858 44.3461 3.29319 43.9851C3.29094 43.9589 3.29094 43.9325 3.29319 43.9062V29.1133C3.29296 28.8411 3.3566 28.5726 3.47908 28.329C3.60156 28.0853 3.77953 27.8733 3.99894 27.7095C4.21834 27.5457 4.47317 27.4347 4.74331 27.3852C5.01344 27.3357 5.29149 27.3492 5.5555 27.4244L16.9708 30.674L18.5175 31.1208C18.8383 31.2116 19.1783 31.2116 19.4991 31.1208L20.9347 30.7112L32.4642 27.4244C32.7282 27.3492 33.0062 27.3357 33.2764 27.3852C33.5465 27.4347 33.8013 27.5457 34.0207 27.7095C34.2401 27.8733 34.4181 28.0853 34.5406 28.329C34.6631 28.5726 34.7267 28.8411 34.7265 29.1133Z" fill="#FF8535"/>
<path id="Vector_13" d="M20.9346 30.7112V49.4046H16.9707V30.68L19.0075 31.2608L20.9346 30.7112Z" fill="#FF6C1A"/>
<g id="Group_3" style="mix-blend-mode:screen" opacity="0.59">
<path id="Vector_14" d="M34.7265 29.1133V31.0165C17.5901 31.0657 8.24327 34.9378 3.29175 38.4376V29.1133C3.29152 28.8411 3.35516 28.5726 3.47765 28.329C3.60013 28.0853 3.77809 27.8733 3.9975 27.7095C4.2169 27.5457 4.47173 27.4347 4.74187 27.3852C5.01201 27.3357 5.29005 27.3492 5.55406 27.4244L16.9708 30.674L18.5176 31.1208C18.8384 31.2116 19.1784 31.2116 19.4992 31.1208L20.9347 30.7112L32.4642 27.4244C32.7282 27.3492 33.0063 27.3357 33.2764 27.3852C33.5466 27.4347 33.8014 27.5457 34.0208 27.7095C34.2402 27.8733 34.4182 28.0853 34.5406 28.329C34.6631 28.5726 34.7268 28.8411 34.7265 29.1133Z" fill="#FF8535"/>
</g>
<g id="Group_4" style="mix-blend-mode:multiply" opacity="0.7">
<path id="Vector_15" d="M29.8397 16.3249C29.8397 16.3249 31.6976 16.027 31.669 17.6116C31.6405 19.1962 29.5886 21.3035 29.5886 21.3035C29.5886 21.3035 30.9295 18.2505 29.8397 16.3249Z" fill="#E0A4AB"/>
</g>
<path id="Vector_16" d="M31.2208 12.7163C31.2208 12.7163 28.4925 2.46716 19.0329 2.21994C9.57333 1.97272 9.54477 6.6967 9.54477 6.6967L8.73605 6.11588L9.26518 9.73929C9.26518 9.73929 6.76386 11.2286 6.20618 15.1871C6.20702 15.1965 6.20702 15.2059 6.20618 15.2154C6.0769 14.4856 5.47262 10.411 7.70937 9.10932C7.70937 9.10932 7.01189 8.85913 5.86646 9.74525C5.86646 9.74525 6.09193 7.64388 7.82061 7.36241C7.82061 7.36241 6.20317 5.53655 7.4869 3.32349C7.4869 3.32349 8.12726 5.40848 9.27269 4.96169C9.27269 4.96169 11.4223 -1.01179 20.8037 0.149848C30.1851 1.31148 31.765 10.1429 31.2208 12.7163Z" fill="#414042"/>
<path id="Vector_17" d="M31.2189 12.7178C30.5492 13.3313 29.8001 13.8536 28.9912 14.2711L28.7687 21.5209C28.7041 21.5701 28.6365 21.6207 28.5688 21.6699C28.2456 19.3198 27.6023 16.3085 27.3227 15.0336C24.2396 16.1983 19.3948 16.7969 13.0423 13.7544C13.0423 13.7544 9.90666 16.9846 9.32793 20.7286C9.28584 20.6706 9.24676 20.6125 9.20767 20.5574C9.06788 18.8015 8.61992 14.5854 7.55416 14.916L7.45044 14.9473C7.51631 14.8538 7.60193 14.7757 7.70135 14.7183C7.80077 14.661 7.91161 14.6258 8.02616 14.6152C10.986 14.2339 13.1641 11.9017 13.1641 11.9017C24.3959 16.6659 31.0897 12.7938 31.2189 12.7178Z" fill="#020202"/>
<path id="Vector_18" d="M9.66843 15.1856C9.66843 15.1856 8.32758 13.8854 6.21109 15.1856C4.09459 16.4857 6.01567 22.5426 9.28211 22.483L9.66843 15.1856Z" fill="#FFCDC2"/>
<g id="Group_5" style="mix-blend-mode:multiply" opacity="0.7">
<path id="Vector_19" d="M8.73594 15.9093C8.73594 15.9093 7.14406 15.7023 6.5999 16.9518C6.05575 18.2013 7.39509 20.395 8.4834 21.0592C8.4834 21.0548 7.64612 17.6935 8.73594 15.9093Z" fill="#E0A4AB"/>
</g>
<path id="Vector_20" d="M15.0508 21.6148C15.7747 21.6148 16.3616 21.0333 16.3616 20.3161C16.3616 19.5989 15.7747 19.0175 15.0508 19.0175C14.3268 19.0175 13.74 19.5989 13.74 20.3161C13.74 21.0333 14.3268 21.6148 15.0508 21.6148Z" fill="#231F20"/>
<path id="Vector_21" d="M12.2627 17.6042C13.6321 15.8751 16.9572 16.0628 17.8395 18.1865C16.8459 17.9452 16.0628 17.7397 15.1022 17.6816C14.1417 17.6235 13.2774 17.6473 12.2627 17.6042Z" fill="#231F20"/>
<path id="Vector_22" d="M23.6282 21.6148C24.3521 21.6148 24.939 21.0333 24.939 20.3161C24.939 19.5989 24.3521 19.0175 23.6282 19.0175C22.9042 19.0175 22.3174 19.5989 22.3174 20.3161C22.3174 21.0333 22.9042 21.6148 23.6282 21.6148Z" fill="#231F20"/>
<path id="Vector_23" d="M26.4167 17.6042C25.4035 17.6473 24.5287 17.6042 23.5772 17.6816C22.6256 17.759 21.8335 17.9452 20.8398 18.1865C21.7222 16.0628 25.0488 15.8751 26.4167 17.6042Z" fill="#231F20"/>
</g>
</g>
</g>
</svg>
