<svg width="94" height="68" viewBox="0 0 94 68" fill="none" xmlns="http://www.w3.org/2000/svg">
<g id="Group 2">
<path id="Vector" d="M42.6704 34.2932L39.7068 26.7892L56.6564 28.0092L52.8004 34.0216L42.6704 34.2932Z" fill="#66063F"/>
<path id="Vector_2" d="M41.1908 32.2538L37.8989 75.6616L43.9695 93.1555H55.8518V34.9884C55.8518 34.9884 51.7693 30.8128 47.6036 31.1627C45.4328 31.2954 43.2827 31.6612 41.1908 32.2538Z" fill="#121E20"/>
<path id="Vector_3" d="M41.9677 20.0955C41.9677 20.0955 42.6519 26.421 41.1909 29.8046C41.1909 29.8046 44.2285 37.7137 48.0383 37.7137C51.848 37.7137 54.0118 30.4031 54.0118 30.4031C53.3856 28.1814 53.1571 25.8673 53.3367 23.5667C53.591 19.5201 41.9677 20.0955 41.9677 20.0955Z" fill="#E0A4AB"/>
<path id="Vector_4" d="M37.834 28.8977C37.834 28.8977 36.7799 31.1627 31.5276 30.4768C26.2753 29.7908 14.9062 31.0752 14.9062 31.0752C14.9062 31.0752 2.61709 39.6841 1.12833 41.7925C-1.05394 44.8862 -0.258708 47.8832 5.17386 50.2817C10.6064 52.6802 21.4531 47.7957 26.6175 49.5083C28.0276 63.8026 26.955 78.9394 24.5508 94.5274C24.5508 94.5274 35.5084 100.116 43.9693 97.1837L45.2177 37.7183L37.834 28.8977Z" fill="#9E0853"/>
<path id="Vector_5" d="M41.1261 18.6868C41.1261 18.6868 42.7443 26.8537 50.8816 27.3002C59.0189 27.7468 56.1754 11.5465 56.1754 11.5465C56.1754 11.5465 45.7126 -0.620914 41.5144 3.98274C37.3163 8.58639 35.8322 16.5231 37.7047 18.2541C39.5772 19.985 41.1261 18.6868 41.1261 18.6868Z" fill="#FFCDC2"/>
<path id="Vector_6" d="M40.4186 14.5067C40.4864 15.3731 40.7935 16.2041 41.3059 16.9076C41.8183 17.6112 42.5161 18.16 43.3221 18.4935C43.3221 18.4935 40.9364 13.3466 44.3578 5.9531C44.3578 5.9531 43.7891 10.8054 47.8022 10.3542C47.8022 10.3542 47.4555 8.13984 47.6497 7.30198C47.6497 7.30198 47.4555 11.3532 50.3128 11.2565C50.3128 11.2565 49.9105 9.16646 50.2342 8.4621C50.2342 8.4621 50.322 12.6514 53.4012 12.0714C53.4012 12.0714 52.4766 10.1977 52.754 9.16646C52.754 9.16646 52.8834 12.5778 56.8226 12.2233C56.8226 12.2233 61.8576 11.7629 56.4342 4.72853C51.0109 -2.30585 40.2244 -1.31606 36.4146 6.52856C32.6049 14.3732 35.1848 21.9002 42.0322 24.8603C42.0322 24.8603 42.3003 22.3789 41.8426 20.8045L41.126 18.6868C41.126 18.6868 38.3519 18.6362 38.2871 16.2423C38.2224 13.8484 40.4186 14.5067 40.4186 14.5067Z" fill="#121E21"/>
<path id="Vector_7" d="M56.6564 30.5827C56.6564 30.5827 67.0915 30.6471 69.4171 32.6083C71.7427 34.5694 81.17 32.2538 81.17 32.2538C81.17 32.2538 91.6329 39.7762 93.117 42.4785C94.6011 45.1809 94.7999 51.8055 88.9836 51.9989C83.1673 52.1922 68.3167 48.9098 68.3167 48.9098C66.4997 61.5561 67.5169 76.3522 69.9349 92.2118C69.9349 92.2118 61.8393 97.9571 53.4014 97.2758L49.2681 39.2237L56.6564 30.5827Z" fill="#9E0853"/>
<path id="Vector_8" d="M36.9092 29.9381L39.7064 26.7892L43.9692 32.1893L42.5498 37.7137C42.5498 37.7137 38.8233 31.0983 36.9092 29.9381Z" fill="#82084B"/>
<path id="Vector_9" d="M53.4014 37.2073L51.27 32.8983L56.6564 28.0092L58.4364 31.3515C58.4364 31.3515 53.7205 34.8272 53.4014 37.2073Z" fill="#82084B"/>
<path id="Vector_10" d="M19.0999 28.8977C19.0999 28.8977 23.4736 25.8869 24.6989 24.8603C25.9241 23.8337 26.8395 20.2567 28.1757 20.4638C29.7754 20.6848 28.3422 23.226 27.9584 24.5795C27.5747 25.933 26.613 27.687 28.8831 27.6225C30.0604 27.5489 31.2416 27.6798 32.3738 28.0092C32.3738 28.0092 33.4048 29.2338 32.3738 30.0026C32.3738 30.0026 33.4696 31.2916 32.1149 32.8983C32.1149 32.8983 32.5772 35.0206 31.2734 35.1495C31.2734 35.1495 32.1981 37.5894 28.9617 37.2073C25.7253 36.8252 21.4116 36.4339 19.5622 37.7183L19.0999 28.8977Z" fill="#FFCDC2"/>
<path id="Vector_11" d="M13.9585 30.9878L19.0443 28.5018C19.0443 28.5018 19.6453 35.6191 22.4888 38.9613L17.7543 40.8488C16.3452 39.6513 15.2596 38.1215 14.5966 36.3991C13.9336 34.6766 13.7142 32.8163 13.9585 30.9878Z" fill="#82084B"/>
<path id="Vector_12" d="M77.1385 29.1785C77.1385 29.1785 73.264 25.6199 72.1082 24.4966C70.9523 23.3733 70.5223 19.6352 69.2462 19.6352C67.6326 19.6628 68.488 22.5723 68.7839 23.9718C69.0798 25.3713 69.7086 27.4706 67.4662 27.2588C66.2974 27.1113 65.1118 27.1658 63.9616 27.4199C63.9616 27.4199 62.852 28.5709 63.8322 29.4087C63.8322 29.4087 62.6532 30.6241 63.9015 32.3136C63.9015 32.3136 63.3097 34.4037 64.5904 34.6155C64.5904 34.6155 63.5316 36.9955 66.7773 36.8206C70.023 36.6457 74.3043 36.5352 76.089 37.9393L77.1385 29.1785Z" fill="#FFCDC2"/>
<path id="Vector_13" d="M82.1131 31.6047L77.2076 28.7918C77.2076 28.7918 76.1396 35.8538 73.0835 39.0073L77.707 41.1987C80.1574 38.8738 81.5629 35.6145 82.1131 31.6047Z" fill="#82084B"/>
<path id="Vector_14" d="M45.5183 13.6182C45.6727 13.2557 45.9178 12.9387 46.2303 12.6975C46.559 12.4325 46.9601 12.2721 47.3816 12.2371C47.4907 12.2256 47.6007 12.2256 47.7098 12.2371C47.8162 12.2601 47.9271 12.2786 48.0335 12.3062C48.1398 12.3338 48.2323 12.3936 48.3294 12.4443C48.422 12.4945 48.5088 12.5547 48.5883 12.6238C48.7456 12.7555 48.8813 12.9108 48.9905 13.0842C49.0899 13.2523 49.1691 13.4316 49.2263 13.6182C49.0506 13.5215 48.9073 13.4064 48.764 13.3098C48.6164 13.218 48.4618 13.138 48.3016 13.0704C48.0283 12.9347 47.723 12.8758 47.4185 12.9C47.0993 12.9293 46.787 13.0101 46.4939 13.1394C46.1841 13.2729 45.8651 13.4387 45.5183 13.6182Z" fill="#424143"/>
<path id="Vector_15" d="M52.4812 14.1522C52.6355 13.7897 52.8807 13.4727 53.1932 13.2315C53.521 12.965 53.9226 12.8044 54.3445 12.7711C54.4537 12.762 54.5635 12.762 54.6727 12.7711C54.7791 12.7711 54.89 12.808 54.9964 12.8402L55.2923 12.9737C55.385 13.0255 55.4718 13.0873 55.5512 13.1578C55.7087 13.2893 55.8445 13.4447 55.9534 13.6182C56.0529 13.788 56.132 13.9687 56.1892 14.1568C56.0135 14.0602 55.8702 13.9405 55.7269 13.8484C55.58 13.7541 55.4253 13.6725 55.2645 13.6044C54.9912 13.4687 54.6859 13.4098 54.3814 13.4341C54.0616 13.4628 53.7489 13.5453 53.4567 13.6781C53.147 13.8024 52.8511 13.9727 52.4812 14.1522Z" fill="#424143"/>
<path id="Vector_16" d="M51.8894 16.606L52.5228 18.6776L51.2837 19.138C51.2837 19.138 52.2593 18.8249 51.8894 16.606Z" fill="#E0A4AB"/>
<path id="Vector_17" d="M47.3722 16.0581C47.7553 16.0581 48.0657 15.7242 48.0657 15.3124C48.0657 14.9005 47.7553 14.5666 47.3722 14.5666C46.9892 14.5666 46.6787 14.9005 46.6787 15.3124C46.6787 15.7242 46.9892 16.0581 47.3722 16.0581Z" fill="#424143"/>
<path id="Vector_18" d="M54.0114 16.0581C54.3944 16.0581 54.7049 15.7242 54.7049 15.3124C54.7049 14.9005 54.3944 14.5666 54.0114 14.5666C53.6284 14.5666 53.3179 14.9005 53.3179 15.3124C53.3179 15.7242 53.6284 16.0581 54.0114 16.0581Z" fill="#424143"/>
<path id="Vector_19" d="M48.3523 20.9426C50.0808 21.4174 51.8934 21.5055 53.6601 21.2004C53.7178 21.1909 53.777 21.1942 53.8333 21.2101C53.8896 21.226 53.9418 21.2541 53.9859 21.2923C54.0301 21.3306 54.0652 21.3781 54.0888 21.4314C54.1124 21.4848 54.1239 21.5426 54.1224 21.6009C54.1224 22.7242 54.0207 25.2838 50.9415 25.2838C47.7652 25.2838 47.6588 22.3927 47.8438 21.2695C47.8521 21.213 47.8725 21.1589 47.9035 21.111C47.9345 21.063 47.9754 21.0221 48.0236 20.9912C48.0718 20.9602 48.126 20.9399 48.1827 20.9315C48.2394 20.9231 48.2972 20.9269 48.3523 20.9426Z" fill="#EA7185"/>
<path id="Vector_20" d="M32.3459 30.0026C32.1494 30.1249 31.9337 30.2136 31.7078 30.265C31.4999 30.3109 31.2875 30.3341 31.0744 30.3341C30.8613 30.3364 30.6486 30.3132 30.441 30.265C30.2145 30.2156 29.9985 30.1268 29.803 30.0026C29.9995 29.8803 30.2151 29.7916 30.441 29.7402C30.649 29.6942 30.8614 29.6711 31.0744 29.6711C31.2878 29.6703 31.5004 29.6951 31.7078 29.7448C31.9342 29.7925 32.1502 29.8798 32.3459 30.0026Z" fill="#E0A4AB"/>
<path id="Vector_21" d="M32.3459 32.7464C32.1494 32.8687 31.9337 32.9574 31.7078 33.0088C31.4999 33.0547 31.2875 33.0779 31.0744 33.0778C30.8613 33.0802 30.6486 33.057 30.441 33.0088C30.2145 32.9594 29.9985 32.8706 29.803 32.7464C29.9995 32.6241 30.2151 32.5354 30.441 32.484C30.649 32.438 30.8614 32.4149 31.0744 32.4149C31.2878 32.4141 31.5004 32.4388 31.7078 32.4886C31.9342 32.5362 32.1502 32.6235 32.3459 32.7464Z" fill="#E0A4AB"/>
<path id="Vector_22" d="M31.3333 35.1035C31.1487 35.1806 30.9509 35.2212 30.7507 35.2232C30.5712 35.2238 30.3924 35.2005 30.219 35.1541C30.0451 35.1108 29.8785 35.0426 29.7243 34.9515C29.5448 34.8561 29.3874 34.7244 29.262 34.5648C29.4457 34.4852 29.6441 34.4444 29.8445 34.4451C30.024 34.4449 30.2028 34.4681 30.3762 34.5142C30.5495 34.5593 30.7159 34.6274 30.8709 34.7168C31.0495 34.8135 31.2067 34.945 31.3333 35.1035Z" fill="#E0A4AB"/>
<path id="Vector_23" d="M63.9478 29.4594C64.1434 29.3365 64.3595 29.2493 64.5858 29.2016C64.7932 29.1518 65.0059 29.1271 65.2192 29.1279C65.4325 29.1274 65.6452 29.1521 65.8526 29.2016C66.0789 29.2493 66.295 29.3365 66.4907 29.4594C66.2964 29.5859 66.08 29.675 65.8526 29.7218C65.6452 29.7713 65.4325 29.796 65.2192 29.7954C65.0059 29.7962 64.7932 29.7715 64.5858 29.7218C64.3585 29.675 64.142 29.5859 63.9478 29.4594Z" fill="#E0A4AB"/>
<path id="Vector_24" d="M63.9478 32.2031C64.1434 32.0803 64.3595 31.993 64.5858 31.9453C64.7932 31.8956 65.0059 31.8709 65.2192 31.8717C65.4325 31.8711 65.6452 31.8959 65.8526 31.9453C66.0789 31.993 66.295 32.0803 66.4907 32.2031C66.2964 32.3297 66.08 32.4187 65.8526 32.4655C65.6452 32.515 65.4325 32.5397 65.2192 32.5392C65.0059 32.54 64.7932 32.5153 64.5858 32.4655C64.3585 32.4187 64.142 32.3297 63.9478 32.2031Z" fill="#E0A4AB"/>
<path id="Vector_25" d="M64.761 34.5648C64.8872 34.4061 65.0445 34.2745 65.2233 34.1781C65.3793 34.0862 65.5473 34.0165 65.7227 33.971C65.8977 33.9257 66.0781 33.904 66.259 33.9065C66.4589 33.9107 66.6563 33.9513 66.8415 34.0262C66.714 34.1836 66.557 34.315 66.3792 34.4129C66.2243 34.5037 66.0579 34.5733 65.8845 34.6201C65.7089 34.6624 65.5289 34.684 65.3482 34.6845C65.1464 34.6834 64.9469 34.6428 64.761 34.5648Z" fill="#E0A4AB"/>
</g>
</svg>
