<svg width="148" height="72" viewBox="0 0 148 72" fill="none" xmlns="http://www.w3.org/2000/svg">
<g id="Layer 3">
<path id="Vector" d="M43.7251 22.9958C43.9931 24.7799 44.1496 26.5801 44.1937 28.3852C44.2091 29.3976 44.346 30.404 44.6014 31.3811C44.8135 32.2728 45.2028 33.1084 45.7443 33.8341C45.8689 33.9895 45.9613 34.1701 46.0157 34.3644C46.0701 34.5588 46.0853 34.7627 46.0605 34.9635C45.8835 35.9763 45.4253 36.9131 44.7423 37.6582C44.6418 37.7771 44.5584 37.9106 44.4947 38.0544C44.4346 38.2059 44.3986 38.3665 44.388 38.53C44.301 39.6822 44.3163 40.8402 44.4337 41.9895C44.4614 42.2024 44.4479 42.419 44.394 42.6265C44.3401 42.8339 44.2469 43.0281 44.1198 43.1975C43.9927 43.367 43.8344 43.5083 43.6541 43.6132C43.4738 43.7181 43.2752 43.7845 43.0699 43.8084C42.1931 43.8859 41.3122 43.9004 40.4336 43.852L40.3307 44.0026C38.8068 44.5693 33.6675 42.6513 33.6675 42.6513C33.6675 42.6513 32.3989 39.9804 34.4295 33.9331C36.46 27.8859 41.1688 23.2336 41.1688 23.2336L43.7328 22.9562" fill="#FBCDC3"/>
<path id="Vector_2" d="M44.0223 22.3023C42.3346 21.1135 37.3591 18.1295 31.4008 19.5917C28.7862 20.2612 26.4058 21.6831 24.532 23.6945C22.6583 25.7059 21.367 28.2256 20.806 30.965C20.1026 34.3183 20.0559 37.7847 20.6689 41.1573C21.0211 43.0248 20.9772 44.9497 20.5403 46.7977C20.1034 48.6457 19.284 50.3723 18.1392 51.8568C17.6063 52.5204 17.0186 53.1343 16.383 53.6916C10.2303 59.1563 6.3673 62.8853 4.91581 75.5821L0.0432107 112.274C-0.062806 113.068 0.0270255 113.877 0.304261 114.625C0.581497 115.373 1.03703 116.035 1.62804 116.549C3.91386 118.531 8.65311 121.214 18.0745 121.907C33.3933 123.041 63.9432 119.581 71.3759 107.213L69.8939 102.252C69.8939 102.252 63.5165 96.466 57.9962 66.3765L57.9391 66.0159C57.7448 64.6091 55.9771 54.0007 46.6738 49.9547C46.6738 49.9547 41.7708 48.1358 40.8145 44.3077C40.7832 44.1691 40.7071 44.0459 40.5989 43.9586C40.4907 43.8714 40.3571 43.8253 40.2202 43.8282C38.723 43.8678 34.2885 43.7093 33.7895 40.4638C33.0275 35.5737 37.9192 24.5849 43.9232 22.9086C43.9817 22.8897 44.034 22.8544 44.0744 22.8064C44.1147 22.7585 44.1415 22.6999 44.1518 22.6371C44.162 22.5743 44.1554 22.5098 44.1325 22.4507C44.1096 22.3916 44.0715 22.3402 44.0223 22.3023Z" fill="#F9B4B0"/>
<path id="Vector_3" d="M40.4639 29.4115C40.6064 29.0436 40.831 28.7163 41.1191 28.4565C41.4087 28.1824 41.7537 27.9793 42.1287 27.8621C42.5254 27.7314 42.9511 27.7314 43.3478 27.8621C43.535 27.9373 43.7061 28.0502 43.8512 28.1944C43.9964 28.3386 44.1127 28.5111 44.1936 28.7022C43.8748 28.5901 43.5428 28.5235 43.2068 28.5041C42.9127 28.5108 42.6207 28.5574 42.3382 28.6428C41.7592 28.8171 41.1801 29.1381 40.4639 29.4115Z" fill="#131F21"/>
<path id="Vector_4" d="M42.9376 32.5713C43.3752 32.5349 43.6941 32.0388 43.6499 31.4632C43.6056 30.8876 43.2149 30.4505 42.7773 30.4869C42.3396 30.5233 42.0208 31.0195 42.065 31.5951C42.1093 32.1707 42.5 32.6078 42.9376 32.5713Z" fill="#424143"/>
<path id="Vector_5" d="M43.0242 30.7946C42.7498 30.6306 42.4315 30.5638 42.1175 30.6044C41.8007 30.6338 41.5028 30.7734 41.2717 31.0007C41.5487 31.159 41.8662 31.2239 42.1801 31.1862C42.4941 31.1486 42.7891 31.0104 43.0242 30.7907V30.7946Z" fill="#424143"/>
<path id="Vector_6" d="M44.3384 40.5787C43.8513 40.7801 43.3188 40.8319 42.8043 40.728C42.2897 40.624 41.8146 40.3687 41.4354 39.9922C41.2259 39.7743 41.3668 39.4493 41.6983 39.382C42.0081 39.3171 42.3116 39.2229 42.605 39.1006C43.9536 38.5498 44.3612 39.0293 44.3612 39.0293C44.3155 39.5959 44.3384 40.5787 44.3384 40.5787Z" fill="#E87085"/>
<path id="Vector_7" d="M20.7942 45.3222C21.8035 47.7349 22.934 50.0907 24.181 52.3799C24.802 53.5093 25.4496 54.615 26.143 55.6849L26.3982 56.0812L26.6649 56.5369C26.8325 56.8421 27.0459 57.1353 27.1754 57.4563L27.6135 58.4153L27.9945 59.3941C28.8974 62.0373 29.1641 64.7597 29.3546 67.395C29.4536 68.7186 29.5108 70.0263 29.6479 71.3261C29.7493 72.6375 29.979 73.9348 30.3337 75.1977C29.5987 74.0759 29.0489 72.8343 28.7069 71.5242C28.3259 70.2244 28.0631 68.9088 27.8269 67.605C27.3545 65.0054 26.9545 62.4534 26.1506 60.0757L25.8382 59.1999L25.4573 58.3598C25.3333 58.08 25.1947 57.8075 25.042 57.5435L24.8287 57.1472L24.581 56.7073C23.9135 55.5431 23.3229 54.333 22.8133 53.0853C21.7702 50.6174 21.0896 48.0005 20.7942 45.3222Z" fill="#F3A7A5"/>
<path id="Vector_8" d="M40.2849 51.3456C40.8921 52.9134 41.185 54.5936 41.1459 56.2833C41.1415 57.1271 41.0779 57.9694 40.9555 58.8036C40.8412 59.6279 40.6278 60.4878 40.464 61.2288C40.1097 62.7585 39.8087 64.3119 39.4925 65.8772C39.1763 67.4425 38.8754 69.0474 38.483 70.6563C38.0915 69.0392 37.9159 67.3737 37.961 65.7068C37.9892 64.0381 38.1897 62.3774 38.5592 60.7533L38.8525 59.5645C38.9592 59.192 39.043 58.8076 39.1344 58.4311C39.3135 57.6702 39.4773 56.9054 39.6183 56.1287C39.8964 54.5753 40.1249 53.006 40.2849 51.3456Z" fill="#F3A7A5"/>
<path id="Vector_9" d="M124.83 33.2039C124.83 33.2039 132.807 36.4178 138.27 39.2195C144.709 42.5165 144.103 69.6736 145.794 78.6295C145.794 78.6295 139.318 80.4167 136.186 80.3652C136.186 80.3652 136.75 105.133 136.815 112.123C136.818 112.426 136.718 112.72 136.531 112.952C136.345 113.185 136.085 113.34 135.798 113.391C132.521 113.99 122.033 115.713 114.25 114.909C114.25 114.909 101.076 116.815 89.5405 112.365C89.2908 112.253 89.0857 112.055 88.9594 111.805C88.8332 111.555 88.7935 111.267 88.8471 110.99C89.4986 107.027 91.8492 91.3342 92.1654 82.6755C92.1654 82.6755 83.5212 81.2687 78.3552 75.9388C78.3552 75.9388 81.4373 66.65 83.9136 51.6904C86.3899 36.7308 103.975 34.908 103.975 34.908L124.83 33.2039Z" fill="#BC7749"/>
<path id="Vector_10" d="M116.958 22.8769C116.958 22.8769 117.278 27.5569 118.76 29.8197C120.242 32.0825 120.387 35.4469 120.387 35.4469L114.219 45.1874L110.985 40.4321L106.002 37.6581L104.459 31.7496C104.459 31.7496 105.925 30.5885 105.388 28.1038L109.198 22.5559L112.406 18.6605L116.958 22.8769Z" fill="#E0A4AB"/>
<path id="Vector_11" d="M96.5885 10.7111C96.5885 10.7111 94.3027 5.25831 101.922 1.29947C109.541 -2.65936 119.961 2.78552 119.778 12.7718C119.778 12.7718 120.064 18.4188 117.111 22.7422C117.078 22.7889 117.035 22.8268 116.985 22.853C116.935 22.8791 116.88 22.8928 116.824 22.8928C116.768 22.8928 116.713 22.8791 116.663 22.853C116.613 22.8268 116.569 22.7889 116.536 22.7422C115.39 21.2283 113.857 20.0814 112.113 19.4332L107.781 17.7689L105.846 12.9263L104.189 8.29381L96.5885 10.7111Z" fill="#223A3E"/>
<path id="Vector_12" d="M103.915 7.84998C101.4 7.57259 98.3105 9.30433 97 10.1326C96.8261 10.2454 96.694 10.4159 96.6248 10.6165C96.5557 10.8172 96.5536 11.0362 96.619 11.2382C97.1028 12.748 97.9638 16.5285 95.9828 20.0039C95.8845 20.1718 95.842 20.3687 95.862 20.5643C95.882 20.7598 95.9632 20.943 96.0933 21.0857C96.7214 21.7322 97.5341 22.1494 98.4095 22.2746C98.5807 22.3068 98.7419 22.3812 98.8798 22.4915C99.0177 22.6018 99.1281 22.7448 99.202 22.9086C99.6025 23.8273 99.872 24.8018 100.002 25.8015C100.117 26.7276 100.577 27.5699 101.282 28.1474C102.166 28.8409 103.545 29.3046 105.389 28.1118C105.389 28.1118 109.541 25.1516 111.347 21.91C111.664 21.3377 111.83 20.6882 111.827 20.0277C111.827 19.9167 111.853 19.8075 111.903 19.7098C111.954 19.6122 112.027 19.5293 112.117 19.4689C112.818 19.0013 114.54 17.6619 114.612 15.7122C114.696 13.493 112.284 13.069 110.513 14.662C110.229 14.9269 109.979 15.2293 109.77 15.5616L108.418 17.4875C108.418 17.4875 108.418 15.3516 107.679 14.559C106.776 13.6119 106.071 12.9303 105.728 11.1867C105.538 10.2643 105.233 9.37171 104.821 8.53158C104.739 8.34667 104.612 8.18686 104.454 8.0675C104.295 7.94814 104.109 7.87324 103.915 7.84998Z" fill="#FBCDC3"/>
<path id="Vector_13" d="M110.509 17.6975C110.512 17.7989 110.536 17.8984 110.58 17.9889C110.624 18.0793 110.687 18.1585 110.764 18.2206C110.851 18.2746 110.947 18.3102 111.047 18.3251C111.147 18.3401 111.249 18.3342 111.347 18.3078C111.72 18.199 112.069 18.0174 112.376 17.7728C112.695 17.5272 112.956 17.2086 113.138 16.8416C113.328 16.4589 113.399 16.0238 113.34 15.5972C113.304 15.3736 113.214 15.1633 113.077 14.987C113.004 14.8913 112.909 14.8154 112.802 14.7658C112.694 14.7161 112.577 14.6941 112.46 14.7016C112.243 14.7261 112.038 14.8187 111.873 14.9671C111.72 15.0971 111.583 15.2461 111.465 15.411C111.224 15.7344 111.055 16.1093 110.97 16.5087C110.942 16.6117 110.935 16.7197 110.95 16.8256C110.966 16.9314 111.002 17.0328 111.058 17.1229C111.097 17.1599 111.147 17.1837 111.2 17.1915C111.253 17.1993 111.307 17.1906 111.355 17.1665C111.441 17.1259 111.522 17.074 111.595 17.012C111.514 17.0572 111.428 17.0918 111.34 17.115C111.303 17.1287 111.263 17.1307 111.225 17.1209C111.187 17.111 111.153 17.0896 111.126 17.0595C111.093 16.9787 111.076 16.8917 111.076 16.8039C111.076 16.7161 111.093 16.6291 111.126 16.5483C111.236 16.1927 111.418 15.8657 111.66 15.5893C111.857 15.3145 112.142 15.1219 112.463 15.0464C112.738 15.0464 112.943 15.3278 112.993 15.6646C113.023 16.0227 112.966 16.3828 112.826 16.7118C112.687 17.0408 112.471 17.328 112.197 17.5469C111.934 17.797 111.629 17.9945 111.298 18.1295C111.22 18.1638 111.136 18.1815 111.052 18.1815C110.967 18.1815 110.884 18.1638 110.806 18.1295C110.732 18.0815 110.667 18.0186 110.616 17.9444C110.565 17.8703 110.529 17.7864 110.509 17.6975Z" fill="#E0A4AB"/>
<path id="Vector_14" d="M111.077 16.3304C111.244 16.1441 111.507 15.9341 111.633 16.0966C111.7 16.178 111.743 16.2781 111.756 16.3845C111.769 16.4908 111.751 16.5988 111.705 16.695C111.608 16.9122 111.459 17.0993 111.271 17.2379C111.089 17.4052 110.851 17.4919 110.608 17.4796C110.721 17.5545 110.857 17.5828 110.989 17.5589C111.123 17.5382 111.252 17.4926 111.37 17.4241C111.625 17.2905 111.826 17.0672 111.938 16.794C112 16.647 112.015 16.4826 111.978 16.3264C111.941 16.1701 111.856 16.0308 111.736 15.9301C111.664 15.8835 111.579 15.8652 111.496 15.8786C111.421 15.894 111.352 15.9327 111.298 15.9896C111.201 16.0851 111.126 16.2014 111.077 16.3304Z" fill="#E0A4AB"/>
<path id="Vector_15" d="M97.8188 14.4679C97.9671 14.1134 98.2071 13.8088 98.5122 13.5881C98.8241 13.3533 99.1888 13.2059 99.5713 13.1601C99.9656 13.1096 100.365 13.1886 100.714 13.386C101.052 13.5711 101.32 13.8682 101.476 14.2301C101.16 14.1295 100.838 14.0488 100.512 13.9884C100.233 13.9384 99.9479 13.9317 99.6665 13.9685C99.0371 14.0752 98.4186 14.2424 97.8188 14.4679Z" fill="#131F21"/>
<path id="Vector_16" d="M100.133 17.5835C100.493 17.5017 100.692 16.9918 100.577 16.4444C100.462 15.897 100.077 15.5195 99.7173 15.6012C99.3575 15.683 99.1591 16.1929 99.274 16.7403C99.3889 17.2877 99.7737 17.6652 100.133 17.5835Z" fill="#131F21"/>
<path id="Vector_17" d="M99.5747 23.9231C100.543 23.7187 101.496 23.4446 102.428 23.1028C102.508 23.0708 102.594 23.0604 102.679 23.0727C102.764 23.085 102.844 23.1196 102.912 23.1731C102.98 23.2267 103.034 23.2975 103.069 23.3788C103.104 23.46 103.118 23.5492 103.11 23.6378C102.992 25.0485 102.588 27.1012 100.314 26.8873C100.09 26.3992 99.9547 25.8727 99.9138 25.3338L99.5747 23.9231Z" fill="#E87085"/>
<path id="Vector_18" d="M113.736 23.8161C114.05 24.2709 114.286 24.7791 114.433 25.318C114.594 25.8459 114.696 26.3909 114.738 26.9427C114.783 27.495 114.766 28.0508 114.689 28.5992C114.621 29.1478 114.473 29.6823 114.25 30.1843C114.155 29.6295 114.125 29.0985 114.079 28.5675L113.957 26.9824C113.885 25.96 113.782 24.9336 113.736 23.8161Z" fill="#C48D95"/>
<path id="Vector_19" d="M117.428 26.166C117.428 26.166 120.655 29.1936 122.38 30.4498C124.32 31.8645 127.116 36.3187 127.817 39.691C127.832 39.7542 127.83 39.8205 127.81 39.8823C127.791 39.9441 127.755 39.9988 127.706 40.0403C127.658 40.0817 127.6 40.1081 127.538 40.1165C127.476 40.1248 127.413 40.1147 127.356 40.0873C125.984 39.4533 122.072 38.7875 114.224 45.2033C114.224 45.2033 114.437 41.9657 116.022 40.1983C117.578 38.4539 118.646 36.2994 119.108 33.9688C119.376 32.3251 119.124 30.6351 118.388 29.154C117.929 28.2122 117.606 27.2055 117.428 26.166Z" fill="#9B6B43"/>
<path id="Vector_20" d="M105.469 29.7325C102.297 33.5184 100.063 38.0543 98.9624 42.9445C98.9624 42.9445 105.972 35.3359 114.22 45.2073C114.22 45.2073 113.424 40.547 110.14 38.6687C105.911 36.2315 105.271 33.2594 105.469 29.7325Z" fill="#9B6B43"/>
<path id="Vector_21" d="M114.25 114.909C114.163 112.004 114.121 109.099 114.056 106.191L113.942 97.4726C113.877 91.6631 113.881 85.8537 113.843 80.0363C113.873 74.2268 113.865 68.4174 113.926 62.6L114.033 53.8818C114.094 50.9771 114.132 48.0724 114.22 45.1637C114.311 48.0684 114.349 50.9731 114.414 53.8818L114.528 62.6C114.593 68.4094 114.593 74.2189 114.627 80.0363C114.597 85.8457 114.604 91.6592 114.544 97.4726L114.437 106.191C114.376 109.099 114.338 112.004 114.25 114.909Z" fill="#91643A"/>
<path id="Vector_22" d="M92.3139 48.4568C92.3901 51.3179 92.493 54.1711 92.6073 57.0204C92.6759 58.443 92.733 59.8656 92.8321 61.2843C92.9311 62.703 93.0416 64.1138 93.1483 65.5523C93.3381 68.4163 93.347 71.2902 93.1749 74.1555C93.037 77.0172 92.6996 79.8647 92.1654 82.6755C92.3 81.2515 92.3901 79.8276 92.4359 78.4036C92.4968 76.981 92.5311 75.5544 92.5654 74.1317C92.6187 71.2864 92.5654 68.4411 92.3673 65.6077C92.2797 64.197 92.1539 62.7585 92.093 61.3279C92.032 59.8974 91.9939 58.4668 91.9977 57.0322C91.9876 54.1711 92.093 51.3126 92.3139 48.4568Z" fill="#91643A"/>
<path id="Vector_23" d="M135.219 47.9852C135.52 50.6759 135.722 53.3706 135.848 56.0693C135.973 58.7679 136.053 61.4745 136.084 64.1772C136.084 65.5285 136.084 66.8798 136.084 68.2311C136.084 69.5824 136.05 70.9258 136.046 72.2732C136.042 73.6205 136.046 74.9679 136.072 76.3192C136.099 77.6705 136.13 79.0139 136.194 80.3652C135.775 77.6928 135.52 74.9952 135.432 72.289C135.314 69.5785 135.349 66.8798 135.307 64.1851L135.246 56.0891C135.215 53.3904 135.215 50.6918 135.219 47.9852Z" fill="#91643A"/>
<path id="Vector_24" d="M111.507 53.1487C112.008 53.1487 112.414 52.7264 112.414 52.2055C112.414 51.6847 112.008 51.2624 111.507 51.2624C111.007 51.2624 110.601 51.6847 110.601 52.2055C110.601 52.7264 111.007 53.1487 111.507 53.1487Z" fill="#91643A"/>
<path id="Vector_25" d="M111.168 68.7225C111.669 68.7225 112.075 68.3003 112.075 67.7794C112.075 67.2585 111.669 66.8362 111.168 66.8362C110.668 66.8362 110.262 67.2585 110.262 67.7794C110.262 68.3003 110.668 68.7225 111.168 68.7225Z" fill="#91643A"/>
<path id="Vector_26" d="M100.92 27.7947C100.92 27.7947 100.947 30.2358 101.537 31.0403C102.128 31.8447 103.667 31.0165 104.097 30.002C104.307 29.361 104.316 28.6675 104.124 28.0206C104.111 27.9693 104.086 27.9218 104.052 27.8822C104.019 27.8425 103.976 27.8118 103.929 27.7925C103.881 27.7732 103.83 27.7658 103.779 27.771C103.728 27.7762 103.679 27.7939 103.636 27.8225C103.24 28.1206 102.763 28.2788 102.274 28.2738C101.785 28.2688 101.31 28.1009 100.92 27.7947Z" fill="#223A3E"/>
</g>
</svg>
