<svg width="116" height="75" viewBox="0 0 116 75" fill="none" xmlns="http://www.w3.org/2000/svg">
<g id="Layer 4">
<g id="Layer 1">
<path id="Vector" d="M47.0438 23.3321C47.0438 23.3321 42.2573 15.6351 40.2271 12.2986C39.0062 10.3158 38.0397 8.91437 38.035 7.30035C38.0582 6.43259 38.9923 3.00931 38.812 2.45395C38.6085 1.44301 37.7483 1.12195 37.0038 1.0048H36.9714C36.82 0.970696 36.6646 0.95466 36.5089 0.957074C36.2111 0.924768 35.9097 0.937957 35.6164 0.996125C35.6395 0.879211 35.6344 0.758936 35.6016 0.644087C35.5688 0.529237 35.5091 0.42271 35.4268 0.332291C35.2464 -0.0668751 34.7377 -0.101583 34.192 0.20213C34.0401 0.328442 33.9184 0.483382 33.8347 0.656831C33.7511 0.83028 33.7073 1.01834 33.7064 1.20872C33.6739 1.16732 33.6349 1.13076 33.5908 1.10025C33.3642 0.72712 32.8508 0.735798 32.3514 1.10025C32.1543 1.28038 32.0371 1.52367 32.023 1.78144L31.9167 1.71202C31.6253 1.38227 31.1212 1.46905 30.6911 1.91594C30.5621 2.07773 30.4909 2.27362 30.4876 2.47564H30.446C30.1547 2.14156 29.6552 2.22833 29.2251 2.67956C28.6933 3.23493 29.2853 4.84894 29.8125 5.35658C30.9362 7.6084 32.8601 8.10301 33.6231 10.1553C34.0301 11.2486 40.8283 26.6642 40.8283 26.6642L47.0346 23.6271C47.0346 23.6271 46.9837 23.5577 46.8958 23.4232L47.0438 23.3321Z" fill="#E0A4AB"/>
<path id="Vector_2" d="M29.8862 5.35656C29.9954 5.41104 30.1198 5.43237 30.2424 5.4176C30.3651 5.40284 30.4798 5.3527 30.5707 5.27412C30.6958 5.07566 30.7402 4.84139 30.6955 4.61463C30.6511 4.12889 30.5519 3.64895 30.3996 3.18283C30.3793 3.1207 30.3862 3.05356 30.4188 2.9962C30.4513 2.93883 30.5067 2.89594 30.573 2.87695C30.6392 2.85797 30.7108 2.86444 30.7719 2.89496C30.8331 2.92547 30.8788 2.97752 30.899 3.03966C31.0057 3.3575 31.1435 3.66541 31.3106 3.95947C31.3822 4.08643 31.4725 4.20328 31.5788 4.30658C31.6852 4.39335 31.6898 4.3543 31.6852 4.35864C31.7437 4.27409 31.7787 4.17713 31.7869 4.07662C31.8121 3.92014 31.823 3.76192 31.8193 3.6037C31.8078 3.26812 31.7754 2.93346 31.7222 2.60144L32.3003 2.50599C32.3482 2.85578 32.4527 3.19667 32.6101 3.51692C32.6841 3.66444 32.7905 3.77725 32.8691 3.79026C32.9182 3.80839 32.9727 3.80839 33.0217 3.79026C33.0662 3.76046 33.1013 3.72001 33.1235 3.67312C33.2829 3.33722 33.3993 2.98476 33.4703 2.62314C33.5536 2.25 33.6322 1.87253 33.7015 1.49506C33.727 1.88084 33.727 2.26773 33.7015 2.65351C33.6948 3.05615 33.6231 3.4555 33.4888 3.83799C33.4405 3.97384 33.3443 4.09016 33.216 4.16774C33.0827 4.23855 32.9282 4.26601 32.7766 4.24583C32.6266 4.2211 32.488 4.15458 32.3789 4.05493C32.2884 3.97182 32.2092 3.87855 32.143 3.77725C31.9309 3.41166 31.784 3.01593 31.7083 2.60578C31.6983 2.53619 31.7168 2.46562 31.7601 2.4083C31.8033 2.35099 31.8681 2.31116 31.9414 2.29686C32.0147 2.28256 32.091 2.29484 32.155 2.33123C32.2191 2.36762 32.266 2.42541 32.2864 2.49297C32.3669 2.853 32.4148 3.21875 32.4298 3.58634C32.4364 3.77907 32.4271 3.972 32.402 4.1634C32.3847 4.27158 32.3553 4.37775 32.3142 4.48013C32.2603 4.61317 32.1712 4.73114 32.0552 4.82289C31.9807 4.87526 31.8949 4.91172 31.8039 4.92971C31.7128 4.9477 31.6186 4.94678 31.528 4.92702C31.3828 4.89267 31.2502 4.82222 31.1441 4.7231C30.9893 4.57516 30.8626 4.40347 30.7695 4.21546C30.6011 3.87774 30.4709 3.52437 30.3811 3.16114L30.8852 3.04399C31.002 3.55546 31.0425 4.07969 31.0054 4.60161C30.9957 4.88578 30.8737 5.15642 30.6632 5.3609C30.602 5.40652 30.5312 5.4394 30.4554 5.45735C30.3797 5.47531 30.3007 5.47792 30.2238 5.46502C30.1049 5.44977 29.9902 5.41293 29.8862 5.35656Z" fill="#E0A4AB"/>
<path id="Vector_3" d="M35.9584 1.09592C35.5468 1.46905 35.1444 1.84219 34.7698 2.23267C34.5882 2.42448 34.4184 2.62583 34.2611 2.83576C34.1111 3.02179 34.0026 3.23428 33.942 3.46054C33.9222 3.55071 33.9222 3.64372 33.942 3.73389C33.942 3.73389 33.942 3.7686 33.942 3.73389C33.942 3.73389 33.942 3.73389 33.9744 3.73389C34.2104 3.69152 34.4382 3.61543 34.6496 3.50827C35.1583 3.27831 35.704 3.07439 36.2312 2.87915L37.9516 2.19796L36.5642 3.36075C36.2849 3.576 36.0237 3.81098 35.7826 4.06363C35.5522 4.31143 35.3535 4.58374 35.1907 4.87498C35.0231 5.15389 34.94 5.47044 34.9502 5.79046C34.9652 5.95196 35.0123 6.10941 35.0889 6.25471C35.1705 6.41408 35.2782 6.56048 35.408 6.68858C35.2352 6.60197 35.0832 6.48294 34.9615 6.33889C34.8398 6.19483 34.7509 6.02883 34.7005 5.8512C34.61 5.48076 34.6423 5.09324 34.793 4.74048C34.9323 4.3967 35.1189 4.07144 35.3479 3.77293C35.5754 3.47721 35.8308 3.20131 36.111 2.94857L36.4255 3.43017L34.8808 4.06363C34.7467 4.1157 34.608 4.1721 34.46 4.21982C34.2957 4.27824 34.1222 4.3105 33.9467 4.31528C33.8136 4.31596 33.6833 4.27973 33.5721 4.21115C33.4595 4.12831 33.3838 4.00928 33.3593 3.87707C33.3297 3.706 33.3424 3.53084 33.3963 3.36509C33.4937 3.07644 33.6597 2.81234 33.8819 2.59279C34.0771 2.38125 34.2923 2.18666 34.5247 2.0114C34.9666 1.65929 35.4472 1.35239 35.9584 1.09592Z" fill="#E0A4AB"/>
<path id="Vector_4" d="M97.3408 23.3321C97.3408 23.3321 102.109 15.6351 104.158 12.2986C105.378 10.3158 106.34 8.91437 106.345 7.30035C106.322 6.43259 105.388 3.00931 105.568 2.45395C105.776 1.44301 106.632 1.12195 107.381 1.0048H107.409C107.56 0.971356 107.715 0.955329 107.871 0.957074C108.169 0.924146 108.47 0.93734 108.764 0.996125C108.741 0.878889 108.747 0.758422 108.781 0.643557C108.814 0.528692 108.875 0.422337 108.958 0.332291C109.134 -0.0668751 109.642 -0.101583 110.188 0.20213C110.34 0.328224 110.463 0.483024 110.547 0.656454C110.632 0.829884 110.676 1.01806 110.678 1.20872C110.709 1.16747 110.747 1.13089 110.789 1.10025C111.02 0.72712 111.529 0.735798 112.029 1.10025C112.226 1.28092 112.344 1.52358 112.362 1.78144C112.395 1.75585 112.431 1.73264 112.468 1.71202C112.759 1.38227 113.259 1.46905 113.689 1.91594C113.822 2.07577 113.893 2.27293 113.892 2.47564H113.934C114.225 2.14156 114.725 2.22833 115.155 2.67956C115.687 3.23493 115.099 4.84894 114.572 5.35658C113.448 7.6084 111.52 8.10301 110.757 10.1553C110.35 11.2486 103.552 26.6642 103.552 26.6642L97.3501 23.6271L97.4842 23.4232L97.3408 23.3321Z" fill="#E0A4AB"/>
<path id="Vector_5" d="M114.499 5.35656C114.385 5.43391 114.253 5.48584 114.115 5.50842C114.039 5.52096 113.96 5.51816 113.885 5.5002C113.81 5.48225 113.74 5.44956 113.68 5.40429C113.468 5.20001 113.345 4.92958 113.333 4.645C113.298 4.12309 113.339 3.59917 113.453 3.08739L113.962 3.20454C113.872 3.56776 113.742 3.92114 113.574 4.25885C113.479 4.44697 113.35 4.61862 113.194 4.76649C113.09 4.86744 112.957 4.9382 112.811 4.97041C112.721 4.99011 112.627 4.99099 112.537 4.97299C112.447 4.95499 112.362 4.91856 112.288 4.86628C112.171 4.77577 112.081 4.65742 112.029 4.52352C111.986 4.42183 111.956 4.31541 111.941 4.20679C111.914 4.01558 111.904 3.82248 111.913 3.62974C111.925 3.26211 111.971 2.89617 112.052 2.53637C112.07 2.46506 112.116 2.403 112.182 2.36333C112.248 2.32365 112.327 2.30947 112.404 2.32377C112.479 2.3394 112.545 2.38223 112.588 2.44307C112.63 2.50391 112.645 2.5779 112.63 2.64917C112.559 3.06036 112.412 3.45675 112.195 3.82064C112.132 3.92387 112.053 4.01749 111.96 4.09832C111.852 4.197 111.715 4.26343 111.567 4.28923C111.407 4.31559 111.243 4.2879 111.104 4.21113C110.974 4.13491 110.878 4.01809 110.831 3.88138C110.696 3.49908 110.622 3.09974 110.614 2.6969C110.586 2.31119 110.586 1.92416 110.614 1.53845C110.683 1.91592 110.762 2.2934 110.845 2.66653C110.914 3.02865 111.03 3.38135 111.192 3.71651C111.214 3.7634 111.249 3.80386 111.294 3.83365C111.343 3.85179 111.397 3.85179 111.446 3.83365C111.52 3.83365 111.627 3.70783 111.705 3.56031C111.861 3.23982 111.964 2.89894 112.01 2.54938L112.593 2.64483C112.535 2.97632 112.503 3.31126 112.496 3.64709C112.491 3.80518 112.5 3.9634 112.524 4.12001C112.534 4.22007 112.569 4.31653 112.626 4.40203C112.626 4.40203 112.626 4.43674 112.732 4.34997C112.838 4.24668 112.929 4.12982 113 4.00287C113.169 3.70893 113.308 3.40102 113.416 3.08305C113.426 3.05213 113.443 3.02342 113.465 2.99866C113.487 2.9739 113.514 2.9536 113.545 2.939C113.576 2.9244 113.609 2.91579 113.643 2.9137C113.678 2.91162 113.712 2.91609 113.745 2.92685C113.808 2.94767 113.86 2.99016 113.891 3.04573C113.922 3.10131 113.929 3.16583 113.911 3.22623C113.759 3.69234 113.66 4.17229 113.615 4.65802C113.586 4.88107 113.636 5.10702 113.759 5.30016C113.858 5.38523 113.984 5.43694 114.118 5.44715C114.252 5.45736 114.386 5.42549 114.499 5.35656Z" fill="#E0A4AB"/>
<path id="Vector_6" d="M108.422 1.09592C108.935 1.35129 109.417 1.65825 109.86 2.0114C110.088 2.18682 110.3 2.37984 110.494 2.58845C110.706 2.81107 110.864 3.07469 110.956 3.36075C111.01 3.52653 111.024 3.70126 110.998 3.87273C110.969 4.00458 110.892 4.12285 110.78 4.20681C110.671 4.27529 110.542 4.31155 110.41 4.31094C110.233 4.30617 110.058 4.27391 109.892 4.21549C109.744 4.16776 109.606 4.11136 109.476 4.05929L107.932 3.42583L108.241 2.94423C108.522 3.19697 108.777 3.47288 109.004 3.7686C109.235 4.06609 109.422 4.39157 109.559 4.73614C109.712 5.08845 109.746 5.47598 109.657 5.84686C109.605 6.02418 109.516 6.18986 109.395 6.33383C109.273 6.47779 109.121 6.59701 108.949 6.68424C109.076 6.55375 109.183 6.40781 109.268 6.25037C109.341 6.10405 109.386 5.94698 109.402 5.78612C109.414 5.46599 109.33 5.14913 109.162 4.87064C108.999 4.58044 108.802 4.30829 108.574 4.05929C108.346 3.80886 108.1 3.57262 107.839 3.35207L106.452 2.18929L108.167 2.87915C108.695 3.08741 109.24 3.27831 109.749 3.50827C109.962 3.61636 110.191 3.6925 110.429 3.73389C110.47 3.73389 110.47 3.73389 110.461 3.73389C110.452 3.73389 110.461 3.76426 110.461 3.73389C110.482 3.64377 110.482 3.55066 110.461 3.46054C110.397 3.23542 110.289 3.0235 110.142 2.83576C109.982 2.62682 109.811 2.42554 109.629 2.23267C109.24 1.84219 108.852 1.46905 108.422 1.09592Z" fill="#E0A4AB"/>
<path id="Vector_7" d="M77.2378 127.714C73.145 129.484 63.7292 133.463 57.5877 135.355C57.2311 135.465 56.9102 135.659 56.6553 135.918C56.4004 136.176 56.2198 136.492 56.1306 136.834C56.0413 137.177 56.0463 137.534 56.1451 137.874C56.2439 138.214 56.4332 138.525 56.6952 138.778C56.923 139.001 57.0965 139.267 57.2039 139.559L59.2757 145.347C59.3751 145.627 59.5371 145.883 59.7507 146.1C59.9643 146.316 60.2246 146.488 60.5144 146.602C60.8042 146.717 61.1167 146.772 61.431 146.764C61.7453 146.757 62.0543 146.686 62.3372 146.557C66.4254 144.705 75.3324 140.635 83.1157 136.86C89.1277 133.944 93.3592 130.404 93.3546 126.516C93.3546 118.889 89.9092 108.363 87.5599 88.2226C84.2302 59.6865 60.1035 85.4067 60.6955 88.0534C61.2042 90.3356 74.6202 117.496 78.3199 124.933C78.4457 125.182 78.5175 125.452 78.5311 125.727C78.5448 126.002 78.4999 126.277 78.3992 126.536C78.2985 126.795 78.144 127.032 77.9446 127.234C77.7452 127.437 77.5049 127.6 77.2378 127.714Z" fill="#121E21"/>
<path id="Vector_8" d="M96.4996 23.779C96.4996 23.779 85.5439 39.7586 82.8246 42.171C78.2647 46.1973 71.7625 44.861 71.7625 44.861C71.7625 44.861 70.0791 77.1544 72.4839 91.7674L74.9674 97.065C74.9674 97.065 83.9762 96.6919 90.8807 94.696C90.8807 94.696 86.8203 62.2811 89.5257 56.3457C92.2311 50.4103 103.427 27.6101 103.427 27.6101L96.4996 23.779Z" fill="#A130DC"/>
<path id="Vector_9" d="M104.967 26.6469L97.0775 21.7137L94.8809 24.4601L103.302 29.6883L104.967 26.6469Z" fill="#822ABC"/>
<path id="Vector_10" d="M48.2694 23.779C48.2694 23.779 55.8122 37.433 60.1454 41.5679C65.1724 46.3796 72.7799 44.7048 72.7799 44.7048C72.7799 44.7048 75.0414 82.3696 72.6366 96.9782C66.1241 97.2957 59.6034 96.5229 53.3796 94.696C53.3796 94.696 57.44 62.2811 54.7346 56.3457C52.0292 50.4103 40.5925 27.7316 40.5925 27.7316L48.2694 23.779Z" fill="#A130DC"/>
<path id="Vector_11" d="M66.2589 46.3492C66.2589 46.3492 70.3795 48.4014 70.7541 49.1781C71.1286 49.9547 73.0109 55.812 73.0109 55.812C73.0109 55.812 74.0653 48.8266 74.4399 48.4014C74.5879 48.2366 75.6562 48.3363 76.3221 47.8027C77.358 46.9653 78.1211 45.3513 78.3523 44.6614C78.7269 43.5333 78.8749 39.4549 78.8749 39.4549C78.8749 39.4549 67.3133 33.7147 65.3386 35.7843C63.3639 37.8539 66.2589 46.3492 66.2589 46.3492Z" fill="#E0A4AB"/>
<path id="Vector_12" d="M62.7027 38.1012C62.7027 38.1012 67.6187 45.6246 75.4112 43.8848C80.7665 42.6916 80.4983 36.2399 79.8508 33.7971C79.3236 31.7796 78.112 28.0787 79.2496 26.2434C79.2496 26.2434 67.8222 21.3883 62.1755 29.0679C58.1243 34.5781 62.7027 38.1012 62.7027 38.1012Z" fill="#FFCDC2"/>
<path id="Vector_13" d="M64.8115 35.7019C64.8115 35.7019 62.0645 28.838 69.0014 28.1481C75.9383 27.4582 83.1158 31.9055 82.8152 22.6292C82.8152 22.6292 81.8579 24.0696 74.1162 21.7094C69.8801 20.4077 63.1883 21.397 60.5383 25.701C57.5138 30.5995 59.151 36.6173 62.5223 39.8584C64.2889 41.5462 65.1861 42.5051 65.1861 42.5051C65.1861 42.5051 65.237 41.7805 64.682 38.6479C64.1155 38.6718 63.5536 38.5423 63.0634 38.2748C62.4858 37.9942 62.0371 37.5257 61.8013 36.957C61.5655 36.3884 61.5588 35.7585 61.7824 35.1856C61.9081 34.9105 62.1431 34.6923 62.4376 34.5773C62.7321 34.4622 63.0627 34.4594 63.3594 34.5695C63.958 34.7947 64.466 35.1909 64.8115 35.7019Z" fill="#414042"/>
<path id="Vector_14" d="M65.1492 42.3619L63.956 44.9217C63.8602 45.1257 63.8218 45.3492 63.8445 45.5711C63.8671 45.7929 63.9501 46.0056 64.0855 46.1887L68.0072 51.5514C68.0072 51.5514 70.1946 49.6857 70.7542 49.1998C70.7542 49.1781 66.7678 43.2904 65.1492 42.3619Z" fill="#822ABC"/>
<path id="Vector_15" d="M74.4399 48.4015C74.4399 48.4015 76.7523 50.2368 76.8817 50.9787L80.4011 46.2668C80.6143 45.9719 80.7255 45.6225 80.7197 45.2663C80.7139 44.91 80.5914 44.564 80.3687 44.2753L78.7131 42.1884C77.8945 43.3685 76.5441 44.7612 74.4399 48.4015Z" fill="#822ABC"/>
<path id="Vector_16" d="M39.1724 26.6556L47.6771 21.8265L49.7211 24.4602L40.6708 30.0225L39.1724 26.6556Z" fill="#822ABC"/>
<path id="Vector_17" d="M73.1172 91.4507C73.0751 91.4495 73.0351 91.433 73.0057 91.4047C72.9764 91.3763 72.96 91.3383 72.96 91.2988C73.1912 81.7535 72.8582 56.0724 72.8582 55.8121C72.8576 55.7925 72.8612 55.7731 72.8689 55.7549C72.8766 55.7368 72.8881 55.7202 72.9029 55.7064C72.9176 55.6926 72.9352 55.6818 72.9545 55.6746C72.9739 55.6674 72.9946 55.664 73.0155 55.6646C73.0572 55.6646 73.0972 55.6801 73.1266 55.7078C73.1561 55.7354 73.1727 55.7729 73.1727 55.8121C73.1727 56.0681 73.5103 81.7362 73.2791 91.3075C73.2785 91.3269 73.2738 91.3459 73.2653 91.3636C73.2569 91.3813 73.2448 91.3973 73.2298 91.4106C73.2147 91.4239 73.197 91.4342 73.1777 91.4411C73.1584 91.448 73.1379 91.4513 73.1172 91.4507Z" fill="#822ABC"/>
<path id="Vector_18" d="M74.116 41.0602C76.0537 40.7479 77.1821 38.9169 76.7891 37.8062C76.396 36.6955 69.8521 37.6977 70.0325 39.0774C70.1666 40.0276 71.6141 41.4681 74.116 41.0602Z" fill="#DD6680"/>
<path id="Vector_19" d="M77.4647 32.2092C76.9797 32.1481 76.4882 32.1481 76.0033 32.2092C75.7773 32.2468 75.5547 32.3005 75.3373 32.3697C75.2171 32.4001 75.1061 32.4521 74.9812 32.4868C74.8564 32.5216 74.7361 32.5823 74.5881 32.617C74.6395 32.4902 74.7062 32.3694 74.787 32.2569C74.8757 32.1435 74.9781 32.0401 75.0922 31.9488C75.3271 31.7708 75.6078 31.6541 75.9062 31.6104C76.2031 31.5611 76.5087 31.5896 76.7895 31.6929C77.0691 31.7903 77.3066 31.9718 77.4647 32.2092Z" fill="#414042"/>
<path id="Vector_20" d="M70.3796 33.0032C69.8371 32.8831 69.2749 32.8625 68.724 32.9424C68.4605 32.9888 68.2009 33.0526 67.9471 33.1333C67.8129 33.1724 67.6835 33.2244 67.5401 33.2678C67.3895 33.3239 67.235 33.3703 67.0776 33.4067C67.1513 33.2726 67.2396 33.1461 67.3412 33.0292C67.4469 32.9156 67.5647 32.8124 67.6927 32.7211C67.9679 32.5352 68.2839 32.4092 68.6176 32.3524C68.9531 32.3026 69.2965 32.3324 69.6166 32.4391C69.9308 32.5421 70.1993 32.7406 70.3796 33.0032Z" fill="#414042"/>
<path id="Vector_21" d="M77.6309 30.4867C77.247 30.4867 76.9325 30.4433 76.6366 30.4346C76.3715 30.423 76.1059 30.4419 75.8458 30.491C75.5922 30.5331 75.3472 30.6121 75.1197 30.7253C74.9856 30.7731 74.87 30.8642 74.722 30.9293C74.574 30.9943 74.4445 31.1028 74.2595 31.1852C74.2624 31.0069 74.2936 30.83 74.352 30.6603C74.4164 30.4974 74.5103 30.3462 74.6295 30.2134C74.883 29.906 75.2486 29.6973 75.6562 29.6276C76.0545 29.5584 76.4659 29.6101 76.8308 29.7751C77.1733 29.9238 77.4543 30.1738 77.6309 30.4867Z" fill="#414042"/>
<path id="Vector_22" d="M70.3796 31.6712C69.9773 31.5757 69.6397 31.489 69.316 31.4326C69.0208 31.3771 68.7194 31.3566 68.4188 31.3718C68.1203 31.3884 67.8259 31.4454 67.5447 31.541L67.4291 31.5714L67.3135 31.6191C67.2349 31.6495 67.1517 31.6799 67.0638 31.7059C66.8864 31.7828 66.7041 31.8494 66.5181 31.9055C66.5734 31.7207 66.6526 31.5429 66.7539 31.3762C66.814 31.2981 66.8742 31.22 66.9389 31.1462C67.0022 31.0674 67.0769 30.9973 67.1609 30.9379C67.4952 30.6622 67.9188 30.5001 68.3633 30.478C68.8022 30.4555 69.2375 30.5633 69.6073 30.7861C69.964 30.9908 70.2362 31.3028 70.3796 31.6712Z" fill="#414042"/>
<path id="Vector_23" d="M72.7798 33.3416C73.097 33.4317 73.3923 33.5791 73.6492 33.7755C73.9235 33.9794 74.1449 34.239 74.2967 34.5348C74.3807 34.7075 74.4218 34.8959 74.4169 35.0858C74.4054 35.2982 74.3078 35.4984 74.1441 35.6455C74.0035 35.7545 73.8389 35.8329 73.6622 35.8749C73.4854 35.9169 73.3009 35.9216 73.122 35.8885C73.3732 35.7485 73.5918 35.5626 73.7648 35.3418C73.8077 35.2629 73.8239 35.1735 73.8111 35.0858C73.7977 34.98 73.7648 34.8773 73.714 34.7821C73.5893 34.5409 73.4455 34.3089 73.2839 34.0879C73.1174 33.8666 72.9416 33.6236 72.7798 33.3416Z" fill="#E0A4AB"/>
<path id="Vector_24" d="M64.5017 37.7194C64.3517 37.7902 64.1882 37.8323 64.0208 37.8435C63.8533 37.8547 63.6851 37.8346 63.5259 37.7845C63.2022 37.6807 62.9091 37.5068 62.6704 37.2769C62.4084 37.0567 62.2164 36.7729 62.1154 36.4568C62.0618 36.2901 62.0489 36.1142 62.0777 35.9422C62.1065 35.7702 62.1763 35.6065 62.2819 35.4633C62.3894 35.3119 62.5415 35.1931 62.7197 35.1215C62.8979 35.0498 63.0945 35.0284 63.2854 35.0598C63.4749 35.099 63.6464 35.1931 63.7756 35.3288C63.9534 35.5099 64.0869 35.7253 64.1668 35.9598C64.2466 36.1944 64.271 36.4425 64.2381 36.6868C64.2204 36.7689 64.1892 36.848 64.1456 36.9211C64.1228 36.9614 64.0906 36.9964 64.0513 37.0235C64.0121 37.0505 63.9669 37.0689 63.919 37.0773C63.8322 37.0753 63.7474 37.0522 63.6728 37.0104C63.5983 36.9686 63.5366 36.9094 63.4936 36.8386C63.6138 36.9298 63.7664 37.0339 63.9005 36.9992C64.0346 36.9645 64.0716 36.7996 64.0762 36.6651C64.086 36.3778 64.0056 36.0942 63.845 35.8494C63.7876 35.7277 63.703 35.619 63.5968 35.5307C63.4907 35.4423 63.3656 35.3764 63.2299 35.3374C63.0971 35.3208 62.962 35.3397 62.8401 35.3919C62.7182 35.4441 62.6145 35.5275 62.5409 35.6325C62.4615 35.7417 62.4081 35.8656 62.3842 35.9958C62.3603 36.1261 62.3664 36.2596 62.4021 36.3874C62.4799 36.6628 62.6311 36.9152 62.8415 37.1207C63.0433 37.3456 63.294 37.5276 63.5768 37.6543C63.8661 37.782 64.1954 37.8052 64.5017 37.7194Z" fill="#E0A4AB"/>
<path id="Vector_25" d="M64.1965 36.5436C64.0947 36.357 63.919 36.1922 63.734 36.2486C63.6509 36.2688 63.5783 36.3162 63.5291 36.3822C63.48 36.4483 63.4575 36.5285 63.4658 36.6087C63.5012 36.7897 63.5948 36.9562 63.734 37.086C63.8704 37.2422 64.0543 37.3557 64.2612 37.4114C64.1435 37.428 64.0233 37.4194 63.9096 37.3864C63.7959 37.3533 63.6916 37.2966 63.6045 37.2205C63.502 37.1507 63.4159 37.062 63.3515 36.9597C63.287 36.8575 63.2457 36.7439 63.2299 36.626C63.2192 36.4979 63.2611 36.3708 63.3471 36.2708C63.4331 36.1708 63.5566 36.1054 63.6924 36.088C63.7597 36.0809 63.8277 36.0909 63.8895 36.1168C63.9514 36.1428 64.0046 36.1838 64.0438 36.2356C64.1253 36.3223 64.1784 36.4293 64.1965 36.5436Z" fill="#E0A4AB"/>
</g>
</g>
</svg>
