<svg width="28" height="34" viewBox="0 0 28 34" fill="none" xmlns="http://www.w3.org/2000/svg">
<path id="Vector 8" d="M0.1 10.6198V12L0.301729 13.0086C0.433322 13.6666 0.652048 14.3041 0.952127 14.9043L0.999894 14.9998C1.33113 15.6623 1.767 16.267 2.29074 16.7907C3.3972 17.8972 4.84728 18.5941 6.40248 18.7669L8.5 19H12.1803C12.7232 19 13.2626 19.0875 13.7776 19.2592C15.1871 19.729 16.3182 20.7956 16.87 22.1751L17 22.5L17.1338 23.0353C17.377 24.0081 17.5 25.007 17.5 26.0098V26.9004C17.5 27.6287 17.3826 28.3522 17.1523 29.0432C17.0509 29.3473 16.928 29.6439 16.7846 29.9307L16.738 30.0239C16.5797 30.3407 16.3931 30.6425 16.1806 30.9258L15.1459 32.3055C15.0512 32.4318 15 32.5853 15 32.7431C15 33.3032 15.605 33.6543 16.0913 33.3764L18.0391 32.2634C18.3413 32.0907 18.594 31.8433 18.7731 31.5448L19.3461 30.5898C19.7777 29.8705 20.0611 29.0723 20.1797 28.2419L20.2831 27.5184C20.4268 26.5121 20.415 25.4897 20.2478 24.487L20.0821 23.4928C20.0275 23.1648 20 22.8329 20 22.5004V21.1414C20 20.4106 20.2903 19.7097 20.8071 19.1929C20.9354 19.0646 21.076 18.9493 21.227 18.8487L23.3572 17.4286C23.7838 17.1441 24.2465 16.9178 24.733 16.7557L25.6488 16.4504C26.5139 16.162 27.2291 15.5417 27.637 14.726C27.8757 14.2486 28 13.7221 28 13.1883V11.4895C28 10.5013 27.8623 9.51798 27.5908 8.56785L27.4959 8.23577C27.1681 7.08829 26.6329 6.01053 25.9169 5.05581C25.6393 4.68574 25.3358 4.33583 25.0087 4.00873L24.8909 3.89088C23.9697 2.96965 22.9059 2.20297 21.7407 1.62033L21.4917 1.49586C20.1735 0.836752 18.7528 0.406602 17.2904 0.223799L16.8431 0.167892C15.9501 0.0562656 15.0479 0.0376717 14.1511 0.112409L12.3699 0.260846C10.4795 0.418372 8.64658 0.987668 6.99963 1.92878L6 2.5L4.73911 3.44567C4.24699 3.81476 3.78169 4.21831 3.34672 4.65328L2.42173 5.57827C2.14093 5.85907 1.88042 6.15944 1.64215 6.47713L1.35188 6.86416C0.791084 7.61189 0.404856 8.47572 0.221554 9.39223C0.140716 9.79642 0.1 10.2076 0.1 10.6198Z" fill="#EFEEF3"/>
</svg>
