<svg width="140" height="121" viewBox="0 0 140 121" fill="none" xmlns="http://www.w3.org/2000/svg">
<g id="Vector 10">
<path d="M0.360637 8.44255L0.0555675 7.22227C0.0186618 7.07465 0 6.92306 0 6.77089C0 6.2773 0.196078 5.80392 0.5451 5.4549L2.5 3.5L3.86567 2.13433C4.28697 1.71303 4.75834 1.345 5.26924 1.03846C6.40176 0.358945 7.69766 0 9.0184 0H13.2471C15.0526 0 16.8282 0.460121 18.4065 1.33692L18.5241 1.40227C19.825 2.12502 20.9599 3.14391 21.825 4.35494C22.5938 5.43139 23.1479 6.66553 23.4349 7.95688C23.8053 9.62364 23.736 11.358 23.2339 12.9899L22 17L20.6175 20.1107C20.2069 21.0345 19.7039 21.9145 19.1163 22.7372L17.5 25L16.5618 26.4073C16.5215 26.4677 16.5 26.5388 16.5 26.6114V26.8758C16.5 27.1061 16.2215 27.2215 16.0586 27.0586C16.0205 27.0205 15.9952 26.9714 15.9864 26.9183L15.7242 25.3451C15.5772 24.4631 15.2067 23.6334 14.6482 22.9352L13.5 21.5L12.0503 20.0503C11.3518 19.3518 10.586 18.724 9.76416 18.1761L8.754 17.5027C8.25269 17.1685 7.71803 16.8872 7.15862 16.6634C6.06428 16.2257 5.07026 15.5703 4.23683 14.7368L3 13.5L2.6468 13.0585C1.5617 11.7021 0.781921 10.1277 0.360637 8.44255Z" fill="#FFCA6C"/>
<path d="M125.038 114.231L124.369 113.115C124.127 112.712 124 112.252 124 111.783C124 111.273 124.151 110.773 124.435 110.348L124.754 109.87C124.917 109.624 125.105 109.395 125.314 109.186L125.697 108.803C126.558 107.942 127.575 107.254 128.694 106.774L129.004 106.641C129.991 106.218 131.054 106 132.128 106C133.359 106 134.573 106.287 135.675 106.837L137.466 107.733C137.82 107.91 138.143 108.143 138.422 108.422C139.112 109.112 139.5 110.048 139.5 111.024V111.576C139.5 111.858 139.535 112.138 139.603 112.411C139.854 113.416 139.639 114.481 139.017 115.31L138.897 115.471C138.634 115.821 138.314 116.124 137.95 116.367L137.808 116.461C137.275 116.817 136.817 117.275 136.461 117.808L136 118.5L135.047 119.93C135.016 119.976 135 120.029 135 120.084C135 120.358 134.644 120.466 134.492 120.238L134 119.5C133.375 118.563 132.324 118 131.197 118H131.082C130.696 118 130.314 117.938 129.948 117.816L129.264 117.588C128.104 117.201 127.05 116.55 126.185 115.685L126.134 115.634C125.713 115.213 125.345 114.742 125.038 114.231Z" fill="#FFCA6C"/>
</g>
</svg>
