<svg width="140" height="118" viewBox="0 0 140 118" fill="none" xmlns="http://www.w3.org/2000/svg">
<g id="Vector 3">
<path d="M0.362785 8.24161L0.0557705 7.044C0.0187369 6.89954 0 6.75099 0 6.60186C0 6.1219 0.193773 5.66227 0.537389 5.32717L2.5 3.41322L3.85519 2.09163C4.28347 1.67397 4.76105 1.31007 5.27737 1.00795C6.40544 0.347894 7.68887 0 8.99585 0H13.2871C15.0676 0 16.8199 0.444181 18.3853 1.29231L18.5634 1.38879C19.8386 2.07966 20.9445 3.04492 21.8015 4.21495L21.8489 4.27971C22.6083 5.31641 23.1473 6.49761 23.4328 7.75054C23.8042 9.38052 23.7349 11.08 23.2318 12.6743L22 16.5785L20.6384 19.5661C20.2139 20.4975 19.6952 21.3831 19.0903 22.2089L17.5 24.3802L16.5635 25.7501C16.5221 25.8106 16.5 25.8822 16.5 25.9554V26.204C16.5 26.4331 16.2243 26.5493 16.0603 26.3894C16.0211 26.3512 15.995 26.3015 15.9858 26.2476L15.7244 24.7182C15.5774 23.8576 15.2088 23.05 14.655 22.3749L13.5 20.9669L12.0578 19.5605C11.3543 18.8745 10.5851 18.2592 9.76123 17.7236L8.75501 17.0694C8.25299 16.743 7.71887 16.4689 7.16102 16.2512C6.06487 15.8237 5.06591 15.18 4.22356 14.3585L3 13.1653L2.62748 12.7112C1.55549 11.4044 0.782506 9.87887 0.362785 8.24161Z" fill="#FFCA6C"/>
<path d="M125.043 111.407L124.366 110.306C124.127 109.917 124 109.469 124 109.012C124 108.514 124.15 108.028 124.431 107.617L124.757 107.141C124.918 106.904 125.103 106.684 125.309 106.484L125.686 106.117C126.554 105.27 127.575 104.594 128.694 104.127L128.999 103.999C129.99 103.585 131.053 103.372 132.127 103.372C133.36 103.372 134.576 103.653 135.683 104.193L137.48 105.069C137.824 105.237 138.14 105.459 138.414 105.726C139.109 106.403 139.5 107.332 139.5 108.301V108.809C139.5 109.084 139.535 109.358 139.603 109.624C139.854 110.602 139.64 111.641 139.025 112.441L138.89 112.617C138.632 112.953 138.319 113.242 137.964 113.472L137.809 113.574C137.275 113.921 136.815 114.37 136.456 114.895L136 115.562L135.048 116.955C135.017 117 135 117.054 135 117.11C135 117.38 134.65 117.489 134.498 117.265L134 116.537C133.374 115.622 132.337 115.074 131.228 115.074H131.077C130.695 115.074 130.315 115.014 129.951 114.896L129.236 114.663C128.094 114.292 127.053 113.663 126.193 112.825L126.124 112.757C125.71 112.353 125.347 111.9 125.043 111.407Z" fill="#FFCA6C"/>
</g>
</svg>
