<svg width="31" height="32" viewBox="0 0 31 32" fill="none" xmlns="http://www.w3.org/2000/svg">
<path id="Vector 2" d="M10.5 23.5L1.87727 16.6018C0.987683 15.8901 0.377518 14.8876 0.154096 13.7705C0.0520329 13.2602 0.0329085 12.7367 0.0974589 12.2203L0.243243 11.0541C0.413177 9.69458 0.813044 8.37391 1.42575 7.1485L2.41372 5.17256C3.11884 3.76233 4.26233 2.61884 5.67256 1.91372C6.22198 1.63901 6.80393 1.43487 7.40457 1.30616L11.3358 0.463749C12.7746 0.155446 14.2419 0 15.7133 0C19.4998 0 23.2531 1.05185 26.5 3L28.8802 4.78515C29.9233 5.56747 30.6414 6.70688 30.8971 7.98544C30.9655 8.32764 31 8.67577 31 9.02476V10.1583C31 12.3499 30.4415 14.5054 29.3771 16.4211C28.7952 17.4686 28.0702 18.4298 27.2229 19.2771L23.6964 22.8036C23.2336 23.2664 22.7198 23.6751 22.1648 24.022L20.2012 25.2493C19.4346 25.7284 18.8995 26.5025 18.7222 27.389C18.5782 28.1088 18.1971 28.7596 17.6397 29.2374L15 31.5C14.7863 31.7137 14.4206 31.603 14.3613 31.3066L14.0252 29.6258C14.0084 29.5421 14 29.457 14 29.3717V28.9352C14 27.0932 13.1104 25.3646 11.6115 24.2939L10.5 23.5Z" fill="#EFEEF3"/>
</svg>
