<svg width="78" height="73" viewBox="0 0 78 73" fill="none" xmlns="http://www.w3.org/2000/svg">
<g id="Wanitakan">
<path id="Vector" d="M9.70598 42.8055C9.70598 42.8055 7.02129 46.9923 5.04906 50.637C3.42598 53.6314 1.57642 58.2246 5.04906 60.3473C10.6779 63.7888 20.8599 51.057 24.0306 48.284C24.0306 48.284 23.6012 54.074 26.9418 58.1252C26.9418 58.1252 26.05 70.8751 21.8838 83.6204C21.8838 83.6204 42.4601 90.9324 57.3132 79.9214C57.3132 79.9214 52.0382 65.4915 51.7975 58.3827C51.7975 58.3827 56.445 52.0597 54.1567 45.8993C54.1567 45.8993 64.9756 55.6638 67.9859 57.4839C70.9961 59.304 75.6153 60.9525 77.6111 57.5742C79.6069 54.1959 73.3647 45.0367 71.4396 42.8055C69.5146 40.5744 60.1158 33.7276 57.7567 31.2164C55.3976 28.7053 46.2536 25.1464 41.1815 26.1851C36.1093 27.2239 27.7769 28.5292 25.2432 30.7829C22.7095 33.0365 13.1975 43.614 12.0321 43.8805C10.8667 44.1469 9.70598 42.8055 9.70598 42.8055Z" fill="#FAAF41"/>
<path id="Vector_2" d="M28.7368 29.0054C28.7368 29.0054 33.553 41.2907 39.2121 46C39.2121 46 48.1944 39.0814 50.2894 28.0707L46.2823 27.0957L39.2121 41.5948L31.4098 26L28.7368 29.0054Z" fill="#E29332"/>
<path id="Vector_3" d="M48.6966 30L43.4555 28.2131C43.4555 28.2131 39.9008 22.2091 44.2157 20.784C48.5306 19.359 50.4311 17.6078 50.2812 20.784C50.1313 23.9603 48.6966 30 48.6966 30Z" fill="#121E21"/>
<path id="Vector_4" d="M32.842 27.669L36.1799 34.1013C37.2598 34.7305 38.5177 35.0421 39.79 34.9954C41.0623 34.9488 42.2902 34.546 43.3138 33.8396L46.1841 28.6066C46.1841 28.6066 44.3516 28.1705 44.3516 27.4422C44.3516 26.714 44.4264 23.2471 45.885 21.337C46.5722 20.4387 32.842 21.6205 32.842 21.6205V27.669Z" fill="#E0A4AB"/>
<path id="Vector_5" d="M33.9768 22.6025C33.9768 22.6025 37.1808 26 39.9898 26C42.7988 26 50.2894 19.7856 50.2894 19.7856C50.2894 19.7856 50.2895 3.09748 44.8373 3.00223C39.3851 2.90697 36.7858 5.88716 33.5086 8.18693C30.2314 10.4867 28.3393 13.2492 28.8074 15.8619C29.2756 18.4747 33.9768 22.6025 33.9768 22.6025Z" fill="#FFCDC2"/>
<path id="Vector_6" d="M32.7391 10.9101C32.7391 10.9101 38.0014 8.32467 38.343 5.5369C38.343 5.5369 45.119 9.61064 46.6754 21.9398C47.8712 31.3822 46.6754 38.2122 44.3836 41C44.3836 41 48.8629 40.2221 51.207 30.3166L53.3708 31.2383C53.3708 31.2383 60.0614 -2.59259 39.2399 0.159211C30.5184 -0.915429 28.7959 9.87593 28.3641 15.6628C28.013 20.4515 26.6843 31.5306 26.6843 31.5306C26.6843 31.5306 35.2919 28.4595 35.4058 26.8363C35.4058 26.688 35.1733 23.2392 35.1733 23.2392C33.5386 21.8333 32.5222 19.8958 32.3263 17.8121C32.3263 17.8121 29.9537 15.9685 30.6038 13.6934C31.1922 11.6115 32.9431 14.4128 32.9431 14.4128L32.7391 10.9101Z" fill="#121E21"/>
<path id="Vector_7" d="M10.2632 42.0969C10.2632 42.0969 18.0756 33.9294 18.7155 32.3622C19.3216 30.8801 21.674 26.2008 21.4912 23.9619C21.2939 21.5619 21.6307 19.4394 22.8141 20.1335C23.8195 20.7245 23.1124 24.7814 24.4641 24.9515C25.6668 25.0993 27.1389 24.2261 28.1106 23.9351C28.9044 23.6933 29.5249 23.9664 29.5538 24.6112C29.5538 24.9291 29.3998 25.2784 28.8178 25.5963C28.8178 25.5963 30.4822 26.4919 29.0246 27.786C29.0246 27.786 30.5784 28.8382 29.1786 29.9577C29.1786 29.9577 30.3908 31.4622 26.831 32.5592C23.2711 33.6563 22.1791 36.8758 20.861 40.2475C19.5429 43.6193 17.8832 47 17.8832 47L10.2632 42.0969Z" fill="#FFCDC2"/>
<path id="Vector_8" d="M28.7369 26.0527C28.5267 26.2464 28.2913 26.4091 28.0375 26.5363C27.7969 26.656 27.5468 26.7543 27.2898 26.83C27.0305 26.9038 26.7657 26.9552 26.4981 26.9837C26.2178 27.0141 25.9347 27.0019 25.658 26.9475C25.8648 26.7515 26.099 26.5885 26.3529 26.464C26.5931 26.3433 26.8434 26.245 27.1007 26.1702C27.3594 26.0939 27.6244 26.0424 27.8924 26.0166C28.1741 25.9858 28.4587 25.998 28.7369 26.0527Z" fill="#E0A4AB"/>
<path id="Vector_9" d="M28.737 28.0943C28.6112 28.2997 28.4582 28.4716 28.2858 28.6014C28.1289 28.7196 27.9624 28.8132 27.7896 28.8803C27.6157 28.9475 27.4365 28.9866 27.2558 28.9969C27.0626 29.0107 26.8691 28.9781 26.6843 28.9006C26.8092 28.6941 26.9624 28.522 27.1355 28.3935C27.2915 28.2739 27.4583 28.1818 27.6317 28.1197C27.8044 28.053 27.9823 28.0138 28.1618 28.003C28.3559 27.9896 28.5504 28.0205 28.737 28.0943Z" fill="#E0A4AB"/>
<path id="Vector_10" d="M28.737 30.3717C28.5898 30.5712 28.4217 30.7228 28.2412 30.8188C28.0756 30.9097 27.9039 30.9663 27.73 30.9873C27.558 31.0129 27.3848 30.9998 27.2149 30.9484C27.0279 30.8978 26.8481 30.7901 26.6843 30.6309C26.8304 30.4273 26.9988 30.2732 27.1801 30.1773C27.3444 30.0864 27.5148 30.0298 27.6874 30.0088C27.8607 29.9893 28.0348 30.0023 28.2064 30.0477C28.3937 30.0995 28.5737 30.2094 28.737 30.3717Z" fill="#E0A4AB"/>
<path id="Vector_11" d="M17.4473 49C17.2635 50.163 16.9508 51.3042 16.5143 52.4049C16.0876 53.5116 15.5475 54.576 14.9019 55.5827C14.2514 56.6051 13.4453 57.5307 12.5095 58.3293C11.5872 59.1427 10.4604 59.718 9.23682 60C10.3273 59.4973 11.3116 58.8096 12.1411 57.9707C12.556 57.5616 12.9413 57.1263 13.2942 56.6678C13.6591 56.2144 13.9961 55.7414 14.3038 55.2513C14.9364 54.2729 15.5052 53.2586 16.0072 52.2142C16.5287 51.161 17.0024 50.0941 17.4473 49Z" fill="#E29332"/>
<path id="Vector_12" d="M64.658 48C65.0735 49.0494 65.5109 50.0833 65.9701 51.1019C66.4388 52.1157 66.9074 53.1157 67.4792 54.0741C67.751 54.537 68.0462 55.0278 68.3602 55.463C68.6666 55.9219 68.9983 56.3639 69.3537 56.787C70.061 57.6487 70.9007 58.3954 71.8422 59C70.748 58.614 69.7608 57.9797 68.96 57.1481C68.1497 56.3167 67.4548 55.3826 66.8934 54.3704C66.331 53.3772 65.8604 52.336 65.4874 51.2593C65.1011 50.203 64.8232 49.1111 64.658 48Z" fill="#E29332"/>
<path id="Vector_13" d="M39.2574 15C39.2574 15 38.5283 17.0496 38.0379 17.2793C37.5474 17.509 40.0263 18 40.0263 18C40.0263 18 38.7736 17.2117 39.2574 15Z" fill="#E0A4AB"/>
<path id="Vector_14" d="M37.2449 20.003C38.1664 20.1383 41.1663 20.5042 42.779 20.1233C42.8165 20.1153 42.8552 20.1158 42.8924 20.1248C42.9297 20.1337 42.9648 20.1508 42.9952 20.175C43.0257 20.1992 43.0508 20.2299 43.069 20.2651C43.0871 20.3002 43.0979 20.339 43.1006 20.3789C43.1437 21.0805 42.9374 22.9899 40.1055 23C37.2737 23.01 36.9425 20.9953 36.9473 20.2686C36.9476 20.2298 36.9558 20.1916 36.9715 20.1565C36.9872 20.1213 37.0099 20.0901 37.0381 20.0649C37.0663 20.0397 37.0994 20.0212 37.135 20.0105C37.1707 19.9998 37.2082 19.9972 37.2449 20.003Z" fill="#EA7185"/>
<path id="Vector_15" d="M36.9474 13C36.5365 12.7478 36.0398 12.6 35.5219 12.5761C35.2696 12.5684 35.0169 12.5772 34.7664 12.6026C34.6334 12.6026 34.4909 12.6291 34.3436 12.6404C34.1864 12.6608 34.0276 12.6722 33.8684 12.6745C33.9614 12.571 34.0664 12.4747 34.182 12.3868C34.3066 12.3072 34.4384 12.2351 34.5764 12.1711C34.87 12.0513 35.1969 11.9927 35.5267 12.0007C35.8776 12.0152 36.2123 12.1232 36.477 12.3073C36.6132 12.3891 36.7257 12.4933 36.8069 12.6128C36.8881 12.7324 36.936 12.8644 36.9474 13Z" fill="#121E21"/>
<path id="Vector_16" d="M45.1578 12.6688C44.659 12.532 44.1283 12.4926 43.6077 12.5538C43.3609 12.5968 43.1187 12.6563 42.8835 12.7316L42.5024 12.864C42.3661 12.9191 42.2244 12.9646 42.0789 13C42.1413 12.8787 42.2164 12.762 42.3033 12.6514C42.4006 12.5509 42.5083 12.4576 42.6252 12.3725C42.878 12.1986 43.1792 12.0788 43.5019 12.0239C43.8254 11.9715 44.1608 12.0058 44.4588 12.1219C44.7569 12.238 45.0019 12.4297 45.1578 12.6688Z" fill="#121E21"/>
<path id="Vector_17" d="M45.1578 14.5268C44.6299 14.4619 44.0948 14.4619 43.5669 14.5268C43.3196 14.5623 43.0769 14.6206 42.8425 14.7009C42.5977 14.7768 42.353 14.8929 42.0789 15C42.1928 14.7411 42.3845 14.5167 42.632 14.3527C42.8793 14.1764 43.173 14.0625 43.4837 14.0223C43.7919 13.9775 44.1075 14.0004 44.404 14.0893C44.6948 14.1687 44.9558 14.3201 45.1578 14.5268Z" fill="#121E21"/>
<path id="Vector_18" d="M35.9211 15C36.4879 15 36.9474 14.7761 36.9474 14.5C36.9474 14.2239 36.4879 14 35.9211 14C35.3543 14 34.8948 14.2239 34.8948 14.5C34.8948 14.7761 35.3543 15 35.9211 15Z" fill="#414042"/>
<path id="Vector_19" d="M49.8981 32.7785C49.8981 32.7785 49.647 39.0761 47.2104 42C47.2104 42 53.381 39.6834 54.3947 29.2699L50.4003 29L49.8981 32.7785Z" fill="#121E21"/>
<path id="Vector_20" d="M8.21045 44.0384L9.85411 41L19.4999 47.36L17.9568 50L8.21045 44.0384Z" fill="#E29332"/>
<path id="Vector_21" d="M70.8157 41.9153C70.8157 41.9153 63.4145 33.4453 62.8083 31.8201C62.2341 30.2784 60.0101 25.4305 60.1787 23.1087C60.3655 20.6197 60.0465 18.4187 58.9254 19.1384C57.9729 19.7514 58.6428 23.9585 57.3622 24.1303C56.2228 24.2882 54.8283 23.3827 53.9076 23.0808C53.1557 22.8301 52.5678 23.1133 52.5404 23.782C52.5404 24.1117 52.6863 24.4739 53.2377 24.799C53.2377 24.799 51.6654 25.7277 53.0417 27.0743C53.0417 27.0743 51.5697 28.1656 52.8959 29.3218C52.8959 29.3218 51.752 30.8867 55.1199 32.0198C58.4879 33.1528 59.5406 36.5008 60.7848 39.9789C62.029 43.4569 63.6059 47 63.6059 47L70.8157 41.9153Z" fill="#FFCDC2"/>
<path id="Vector_22" d="M52.342 25.0539C52.6206 25.2475 52.9343 25.4087 53.2732 25.5324C53.5947 25.6546 53.9299 25.7543 54.2746 25.8303C54.6196 25.9048 54.9723 25.9561 55.3288 25.9838C55.7019 26.0141 56.0788 26.0019 56.4473 25.9476C56.1779 25.7545 55.8742 25.5919 55.5454 25.4647C55.2257 25.3405 54.8901 25.2422 54.544 25.1713C54.2016 25.0951 53.8506 25.0437 53.4957 25.0178C53.111 24.9852 52.7221 24.9974 52.342 25.0539Z" fill="#E0A4AB"/>
<path id="Vector_23" d="M52.342 27.0952C52.5322 27.3006 52.7632 27.4723 53.0231 27.6017C53.2572 27.7216 53.5067 27.8151 53.7661 27.8803C54.0245 27.9477 54.291 27.9868 54.5598 27.9968C54.8509 28.0109 55.1425 27.9783 55.421 27.9006C55.2327 27.6955 55.0037 27.5237 54.7455 27.3941C54.51 27.2745 54.2584 27.1826 53.9969 27.1205C53.7385 27.0531 53.472 27.014 53.2032 27.004C52.9124 26.9882 52.6208 27.0191 52.342 27.0952Z" fill="#E0A4AB"/>
<path id="Vector_24" d="M52.342 29.3986C52.5619 29.587 52.8109 29.7295 53.0768 29.8189C53.3242 29.9095 53.5808 29.966 53.8407 29.987C54.1015 30.013 54.3644 30 54.6221 29.9482C54.9042 29.8965 55.1752 29.7868 55.421 29.6249C55.1995 29.4259 54.9463 29.2746 54.6746 29.1788C54.4259 29.085 54.167 29.0285 53.9048 29.0107C53.6459 28.9882 53.3854 29.0012 53.1293 29.0495C52.8493 29.1096 52.5822 29.2281 52.342 29.3986Z" fill="#E0A4AB"/>
<path id="Vector_25" d="M71.1048 41L62.6052 46.392L63.922 49L72.8684 43.3931L71.1048 41Z" fill="#E29332"/>
</g>
</svg>
