<svg width="320" height="568" viewBox="0 0 320 568" fill="none" xmlns="http://www.w3.org/2000/svg">
<g clip-path="url(#clip0_3_254)">
<rect width="320" height="568" rx="21" fill="#FFF5F0"/>
<path d="M221.032 566.143C221.032 566.143 220.424 578.776 219.793 584.138C219.719 585.376 219.755 586.62 219.899 587.847C219.899 587.847 221.706 596.922 219.981 601.903C219.97 601.935 219.956 601.964 219.938 601.99C219.829 602.168 219.694 602.314 219.54 602.421C219.385 602.527 219.216 602.591 219.042 602.608C219.042 602.608 218.392 603.56 217.587 603.246C217.333 603.478 217.037 603.619 216.729 603.654C216.42 603.69 216.11 603.619 215.829 603.449C215.623 603.714 215.372 603.914 215.097 604.031C214.822 604.149 214.53 604.181 214.243 604.126C214.15 604.101 214.065 604.043 213.996 603.959C213.926 603.874 213.876 603.766 213.851 603.647C213.826 603.528 213.826 603.402 213.852 603.283C213.877 603.165 213.928 603.057 213.997 602.973C214.126 602.821 214.268 602.688 214.419 602.577C214.736 602.313 215.004 601.961 215.204 601.546C215.404 601.131 215.53 600.662 215.573 600.175C215.759 598.519 215.479 598.218 215.656 596.585C215.678 596.36 215.678 596.132 215.656 595.907L215.604 595.341C215.394 595.617 215.233 595.95 215.133 596.316C215.033 596.683 214.997 597.074 215.027 597.461C215.124 598.8 214.857 600.56 214.207 600.762C213.557 600.964 213.52 597.29 213.52 597.29C213.458 596.507 213.356 595.73 213.216 594.964C213.065 594.267 213.311 593.098 213.66 592.392C213.859 591.977 213.972 591.502 213.988 591.013L214.085 588.426C214.085 588.426 213.426 571.572 213.766 567.355C214.106 563.139 221.032 566.143 221.032 566.143Z" fill="#FBCDC3"/>
<path d="M139.862 499.996C140.076 501.78 140.2 503.58 140.236 505.385C140.248 506.398 140.357 507.404 140.561 508.381C140.73 509.273 141.04 510.108 141.472 510.834C141.571 510.99 141.645 511.17 141.688 511.364C141.732 511.559 141.744 511.763 141.724 511.963C141.583 512.976 141.217 513.913 140.673 514.658C140.593 514.777 140.526 514.911 140.476 515.054V515.054C140.428 515.206 140.399 515.366 140.39 515.53C140.321 516.682 140.333 517.84 140.427 518.989C140.449 519.202 140.438 519.419 140.395 519.626C140.352 519.834 140.278 520.028 140.177 520.198C140.075 520.367 139.949 520.508 139.805 520.613C139.662 520.718 139.503 520.784 139.34 520.808C138.64 520.886 137.938 520.9 137.238 520.852L137.156 521.003C135.941 521.569 131.843 519.651 131.843 519.651C131.843 519.651 130.832 516.98 132.451 510.933C134.07 504.886 137.824 500.234 137.824 500.234L139.868 499.956" fill="#FBCDC3"/>
<path d="M140.099 499.302C138.753 498.113 134.786 495.129 130.036 496.592C127.951 497.261 126.053 498.683 124.559 500.694C123.065 502.706 122.036 505.226 121.589 507.965C121.028 511.318 120.991 514.785 121.479 518.157C121.76 520.025 121.725 521.95 121.377 523.798C121.028 525.646 120.375 527.372 119.462 528.857C119.037 529.52 118.569 530.134 118.062 530.692C113.157 536.156 110.077 539.885 108.919 552.582L105.034 589.274C104.95 590.068 105.022 590.877 105.243 591.625C105.464 592.373 105.827 593.035 106.298 593.55C108.121 595.531 111.899 598.214 119.411 598.907C131.624 600.041 155.982 596.581 161.908 584.213L160.726 579.252C160.726 579.252 155.641 573.466 151.24 543.377L151.195 543.016C151.04 541.609 149.63 531.001 142.213 526.955C142.213 526.955 138.304 525.136 137.541 521.308C137.516 521.169 137.456 521.046 137.369 520.959C137.283 520.871 137.177 520.825 137.067 520.828C135.874 520.868 132.338 520.709 131.94 517.464C131.333 512.574 135.233 501.585 140.02 499.909C140.066 499.89 140.108 499.854 140.14 499.806C140.173 499.759 140.194 499.7 140.202 499.637C140.21 499.574 140.205 499.51 140.187 499.451C140.168 499.392 140.138 499.34 140.099 499.302V499.302Z" fill="#F9B4B0"/>
<path d="M137.262 506.412C137.375 506.044 137.554 505.716 137.784 505.457C138.015 505.182 138.29 504.979 138.589 504.862C138.905 504.731 139.245 504.731 139.561 504.862C139.71 504.937 139.847 505.05 139.962 505.194C140.078 505.339 140.171 505.511 140.235 505.702C139.981 505.59 139.717 505.523 139.449 505.504C139.214 505.511 138.981 505.557 138.756 505.643C138.294 505.817 137.833 506.138 137.262 506.412Z" fill="#131F21"/>
<path d="M139.234 509.571C139.583 509.535 139.837 509.039 139.802 508.463C139.767 507.888 139.455 507.45 139.106 507.487C138.757 507.523 138.503 508.019 138.538 508.595C138.574 509.171 138.885 509.608 139.234 509.571Z" fill="#424143"/>
<path d="M139.303 507.795C139.084 507.631 138.83 507.564 138.58 507.604C138.328 507.634 138.09 507.773 137.906 508.001C138.127 508.159 138.38 508.224 138.63 508.186C138.88 508.149 139.116 508.01 139.303 507.791V507.795Z" fill="#424143"/>
<path d="M140.351 517.579C139.962 517.78 139.538 517.832 139.128 517.728C138.717 517.624 138.339 517.369 138.036 516.992C137.869 516.774 137.982 516.449 138.246 516.382C138.493 516.317 138.735 516.223 138.969 516.101C140.044 515.55 140.369 516.029 140.369 516.029C140.333 516.596 140.351 517.579 140.351 517.579Z" fill="#E87085"/>
<path d="M121.579 522.322C122.384 524.735 123.285 527.091 124.279 529.38C124.775 530.509 125.291 531.615 125.844 532.685L126.047 533.081L126.26 533.537C126.393 533.842 126.564 534.135 126.667 534.456L127.016 535.415L127.32 536.394C128.04 539.037 128.252 541.76 128.404 544.395C128.483 545.719 128.529 547.026 128.638 548.326C128.719 549.638 128.902 550.935 129.185 552.198C128.599 551.076 128.161 549.834 127.888 548.524C127.584 547.224 127.375 545.909 127.186 544.605C126.81 542.005 126.491 539.453 125.85 537.076L125.601 536.2L125.297 535.36C125.198 535.08 125.088 534.807 124.966 534.543L124.796 534.147L124.598 533.707C124.066 532.543 123.595 531.333 123.189 530.085C122.357 527.617 121.815 525 121.579 522.322V522.322Z" fill="#F3A7A5"/>
<path d="M137.119 528.346C137.603 529.913 137.837 531.594 137.806 533.283C137.802 534.127 137.751 534.969 137.654 535.804C137.563 536.628 137.392 537.488 137.262 538.229C136.979 539.758 136.739 541.312 136.487 542.877C136.235 544.443 135.995 546.047 135.682 547.656C135.37 546.039 135.23 544.374 135.266 542.707C135.289 541.038 135.449 539.377 135.743 537.753L135.977 536.564C136.062 536.192 136.129 535.808 136.202 535.431C136.345 534.67 136.475 533.905 136.588 533.129C136.809 531.575 136.992 530.006 137.119 528.346Z" fill="#F3A7A5"/>
<path d="M142.562 551.326C143.261 553.474 143.835 555.649 144.385 557.829C144.935 560.008 145.445 562.188 145.934 564.387L147.401 570.93C147.532 571.469 147.656 572.012 147.778 572.563C147.899 573.113 148.048 573.636 148.175 574.187C148.303 574.738 148.479 575.249 148.607 575.8C148.673 576.072 148.755 576.337 148.853 576.593C148.938 576.858 149.032 577.124 149.114 577.385C148.794 576.975 148.497 576.533 148.227 576.066C148.093 575.828 147.969 575.582 147.841 575.34C147.714 575.099 147.586 574.849 147.477 574.595C147.258 574.088 147.027 573.581 146.827 573.058C146.626 572.535 146.438 572.008 146.25 571.473C145.539 569.345 144.93 567.161 144.427 564.934C143.932 562.715 143.516 560.468 143.191 558.197C142.854 555.93 142.644 553.633 142.562 551.326V551.326Z" fill="#F3A7A5"/>
<path d="M120.689 558.249C120.956 560.357 121.057 562.494 120.993 564.629C120.94 566.77 120.737 568.901 120.386 570.993C120.301 571.52 120.188 572.043 120.082 572.578C119.976 573.113 119.827 573.621 119.696 574.132C119.426 575.099 119.161 576.07 118.912 577.044C118.663 578.019 118.439 579.026 118.235 580.017C118.018 581.025 117.855 582.053 117.749 583.092C117.535 582.046 117.443 580.964 117.476 579.882C117.494 578.801 117.576 577.724 117.722 576.66C117.868 575.602 118.058 574.554 118.29 573.522C118.499 572.543 118.7 571.568 118.861 570.561C119.201 568.58 119.49 566.527 119.772 564.471C120.054 562.414 120.331 560.329 120.689 558.249Z" fill="#F3A7A5"/>
<path d="M165.835 561.257C165.835 561.257 161.583 581.217 157.163 586.222C156.86 586.556 156.592 586.941 156.367 587.368C155.83 588.426 155.131 590.296 156.161 591.449C156.019 592.046 156.021 592.685 156.165 593.28C156.31 593.876 156.59 594.4 156.969 594.782L156.595 596.411C156.502 596.803 156.513 597.224 156.626 597.607C156.74 597.99 156.95 598.311 157.221 598.519C157.358 598.625 157.506 598.705 157.661 598.757C157.661 598.757 157.692 600.643 159.065 600.552L163.381 593.748C163.381 593.748 164.146 594.913 164.07 596.078C164.04 596.387 164.034 596.699 164.052 597.009C164.143 597.956 164.435 599.783 165.376 600.029C165.497 600.061 165.622 600.039 165.733 599.968C165.843 599.896 165.931 599.778 165.984 599.632C166.173 599.079 166.198 598.453 166.054 597.877C165.987 597.594 165.942 597.303 165.917 597.009C165.821 595.745 165.804 594.473 165.865 593.205C166.038 590.21 165.998 587.202 165.744 584.217C165.678 583.465 165.794 582.704 166.075 582.042C167.29 579.204 170.789 571.259 173.839 566.82L165.835 561.257Z" fill="#FBCDC3"/>
<path d="M167.162 552.574C167.097 552.493 167.019 552.431 166.933 552.394C166.848 552.357 166.757 552.345 166.667 552.359C166.578 552.374 166.492 552.414 166.415 552.477C166.339 552.54 166.275 552.625 166.227 552.725C165.58 554.005 164.38 556.688 164.234 559.327C164.227 559.435 164.237 559.544 164.262 559.648C164.288 559.751 164.329 559.847 164.383 559.929C165.294 561.269 169.899 567.506 177.973 567.974L178.79 567.462L179.251 559.438L167.858 553.145C167.603 553.008 167.368 552.815 167.162 552.574V552.574Z" fill="#9B6B43"/>
<path d="M221.241 555.63L221.751 555.515C221.922 555.475 222.098 555.519 222.245 555.639C222.393 555.759 222.5 555.947 222.547 556.164C222.833 557.504 223.273 560.524 222.772 564.966C222.755 565.12 222.707 565.267 222.634 565.391C222.562 565.515 222.466 565.613 222.356 565.675C221.141 566.357 217.104 568.413 213.757 567.355L212.809 564.712L213.195 557.365L220.831 555.384L221.241 555.63Z" fill="#9B6B43"/>
<path d="M204.526 510.204C204.526 510.204 210.887 513.418 215.242 516.219C220.376 519.517 219.893 546.674 221.241 555.629C221.241 555.629 216.078 557.417 213.581 557.365C213.581 557.365 214.031 582.133 214.082 589.123C214.085 589.426 214.004 589.72 213.856 589.952C213.707 590.185 213.5 590.34 213.271 590.391C210.659 590.99 202.297 592.713 196.091 591.909C196.091 591.909 185.588 593.815 176.39 589.365C176.191 589.253 176.028 589.055 175.927 588.805C175.826 588.555 175.795 588.267 175.838 587.99C176.357 584.027 178.231 568.334 178.483 559.676C178.483 559.676 171.591 558.269 167.472 552.939C167.472 552.939 169.93 543.65 171.904 528.69C173.878 513.731 187.899 511.908 187.899 511.908L204.526 510.204Z" fill="#BC7749"/>
<path d="M198.251 499.877C198.251 499.877 198.506 504.557 199.687 506.82C200.869 509.082 200.984 512.447 200.984 512.447L196.067 522.187L193.488 517.432L189.515 514.658L188.285 508.75C188.285 508.75 189.454 507.588 189.026 505.104L192.063 499.556L194.621 495.66L198.251 499.877Z" fill="#E0A4AB"/>
<path d="M182.01 487.711C182.01 487.711 180.187 482.258 186.262 478.299C192.337 474.341 200.644 479.786 200.499 489.772C200.499 489.772 200.726 495.419 198.372 499.742C198.346 499.789 198.311 499.827 198.272 499.853C198.232 499.879 198.188 499.893 198.143 499.893C198.099 499.893 198.055 499.879 198.015 499.853C197.975 499.827 197.94 499.789 197.914 499.742C197 498.228 195.778 497.081 194.387 496.433L190.934 494.769L189.391 489.926L188.069 485.294L182.01 487.711Z" fill="#223A3E"/>
<path d="M187.851 484.85C185.846 484.573 183.383 486.304 182.338 487.133C182.199 487.245 182.094 487.416 182.039 487.617C181.983 487.817 181.982 488.036 182.034 488.238C182.42 489.748 183.106 493.529 181.527 497.004C181.448 497.172 181.414 497.369 181.43 497.564C181.446 497.76 181.511 497.943 181.615 498.086C182.116 498.732 182.764 499.149 183.462 499.275C183.598 499.307 183.727 499.381 183.836 499.491C183.946 499.602 184.034 499.745 184.093 499.909C184.413 500.827 184.628 501.802 184.731 502.801C184.823 503.728 185.189 504.57 185.752 505.147C186.456 505.841 187.556 506.305 189.026 505.112C189.026 505.112 192.337 502.152 193.777 498.91C194.03 498.338 194.162 497.688 194.159 497.028C194.159 496.917 194.18 496.807 194.22 496.71C194.26 496.612 194.319 496.529 194.39 496.469C194.949 496.001 196.322 494.662 196.38 492.712C196.447 490.493 194.524 490.069 193.111 491.662C192.885 491.927 192.686 492.229 192.519 492.562L191.441 494.488C191.441 494.488 191.441 492.352 190.852 491.559C190.132 490.612 189.57 489.93 189.296 488.187C189.145 487.264 188.902 486.372 188.574 485.532C188.508 485.347 188.407 485.187 188.28 485.068C188.154 484.948 188.006 484.873 187.851 484.85V484.85Z" fill="#FBCDC3"/>
<path d="M193.108 494.698C193.111 494.799 193.13 494.898 193.165 494.989C193.2 495.079 193.25 495.159 193.312 495.221C193.381 495.275 193.458 495.31 193.538 495.325C193.617 495.34 193.699 495.334 193.777 495.308C194.074 495.199 194.352 495.017 194.597 494.773C194.851 494.527 195.059 494.209 195.204 493.842C195.356 493.459 195.412 493.024 195.365 492.597C195.337 492.374 195.265 492.163 195.156 491.987C195.097 491.891 195.022 491.815 194.936 491.766C194.851 491.716 194.757 491.694 194.664 491.702C194.491 491.726 194.327 491.819 194.196 491.967C194.074 492.097 193.965 492.246 193.871 492.411C193.679 492.734 193.544 493.109 193.476 493.509C193.454 493.612 193.448 493.72 193.46 493.826C193.472 493.931 193.502 494.033 193.546 494.123C193.578 494.16 193.617 494.184 193.659 494.192C193.701 494.199 193.744 494.191 193.783 494.167C193.851 494.126 193.916 494.074 193.974 494.012C193.91 494.057 193.841 494.092 193.771 494.115C193.741 494.129 193.709 494.131 193.679 494.121C193.649 494.111 193.621 494.09 193.6 494.06C193.574 493.979 193.561 493.892 193.561 493.804C193.561 493.716 193.574 493.629 193.6 493.548C193.688 493.193 193.833 492.866 194.026 492.589C194.183 492.314 194.41 492.122 194.667 492.046C194.885 492.046 195.049 492.328 195.089 492.665C195.113 493.023 195.067 493.383 194.956 493.712C194.845 494.041 194.672 494.328 194.454 494.547C194.245 494.797 194.002 494.995 193.737 495.129C193.675 495.164 193.609 495.182 193.541 495.182C193.474 495.182 193.407 495.164 193.345 495.129C193.286 495.081 193.234 495.019 193.194 494.944C193.153 494.87 193.124 494.786 193.108 494.698V494.698Z" fill="#E0A4AB"/>
<path d="M193.561 493.33C193.695 493.144 193.904 492.934 194.005 493.097C194.058 493.178 194.092 493.278 194.102 493.384C194.113 493.491 194.099 493.599 194.062 493.695C193.985 493.912 193.866 494.099 193.716 494.238C193.571 494.405 193.381 494.492 193.188 494.48C193.278 494.555 193.386 494.583 193.491 494.559C193.598 494.538 193.701 494.493 193.795 494.424C193.998 494.29 194.159 494.067 194.248 493.794C194.298 493.647 194.309 493.483 194.28 493.326C194.251 493.17 194.183 493.031 194.087 492.93C194.03 492.883 193.962 492.865 193.895 492.879C193.835 492.894 193.78 492.933 193.737 492.99C193.66 493.085 193.6 493.201 193.561 493.33V493.33Z" fill="#E0A4AB"/>
<path d="M182.991 491.468C183.109 491.113 183.3 490.809 183.544 490.588C183.792 490.353 184.083 490.206 184.388 490.16C184.702 490.11 185.021 490.189 185.299 490.386C185.568 490.571 185.782 490.868 185.907 491.23C185.654 491.13 185.398 491.049 185.138 490.988C184.915 490.938 184.688 490.932 184.464 490.969C183.962 491.075 183.469 491.242 182.991 491.468V491.468Z" fill="#131F21"/>
<path d="M184.836 494.583C185.123 494.502 185.281 493.992 185.189 493.444C185.098 492.897 184.791 492.52 184.504 492.601C184.217 492.683 184.059 493.193 184.151 493.74C184.242 494.288 184.549 494.665 184.836 494.583Z" fill="#131F21"/>
<path d="M184.391 500.923C185.163 500.719 185.923 500.445 186.666 500.103C186.729 500.071 186.798 500.06 186.866 500.073C186.933 500.085 186.997 500.12 187.051 500.173C187.106 500.227 187.149 500.297 187.177 500.379C187.204 500.46 187.216 500.549 187.209 500.638C187.115 502.049 186.793 504.101 184.98 503.887C184.802 503.399 184.694 502.873 184.661 502.334L184.391 500.923Z" fill="#E87085"/>
<path d="M195.681 500.816C195.932 501.271 196.12 501.779 196.237 502.318C196.365 502.846 196.447 503.391 196.48 503.943C196.516 504.495 196.502 505.051 196.441 505.599C196.387 506.148 196.269 506.682 196.091 507.184C196.016 506.63 195.991 506.098 195.955 505.567L195.858 503.982C195.8 502.96 195.718 501.934 195.681 500.816Z" fill="#C48D95"/>
<path d="M198.625 503.166C198.625 503.166 201.198 506.194 202.574 507.45C204.12 508.865 206.349 513.319 206.908 516.691C206.92 516.754 206.918 516.82 206.903 516.882C206.887 516.944 206.858 516.999 206.82 517.04C206.781 517.082 206.735 517.108 206.685 517.116C206.636 517.125 206.586 517.115 206.54 517.087C205.447 516.453 202.327 515.788 196.07 522.203C196.07 522.203 196.24 518.966 197.504 517.198C198.745 515.454 199.596 513.299 199.964 510.969C200.178 509.325 199.977 507.635 199.39 506.154C199.025 505.212 198.767 504.205 198.625 503.166Z" fill="#9B6B43"/>
<path d="M189.09 506.733C186.561 510.518 184.78 515.054 183.902 519.945C183.902 519.945 189.491 512.336 196.067 522.207C196.067 522.207 195.433 517.547 192.814 515.669C189.443 513.232 188.932 510.259 189.09 506.733Z" fill="#9B6B43"/>
<path d="M196.091 591.909C196.022 589.004 195.988 586.099 195.936 583.191L195.845 574.473C195.794 568.663 195.797 562.854 195.766 557.036C195.791 551.227 195.785 545.417 195.833 539.6L195.918 530.882C195.967 527.977 195.997 525.072 196.067 522.164C196.14 525.068 196.17 527.973 196.222 530.882L196.313 539.6C196.365 545.409 196.365 551.219 196.392 557.036C196.368 562.846 196.374 568.659 196.325 574.473L196.24 583.191C196.192 586.099 196.161 589.004 196.091 591.909Z" fill="#91643A"/>
<path d="M178.602 525.457C178.662 528.318 178.744 531.171 178.835 534.02C178.89 535.443 178.936 536.866 179.015 538.284C179.094 539.703 179.182 541.114 179.267 542.552C179.418 545.416 179.425 548.29 179.288 551.155C179.178 554.017 178.909 556.865 178.483 559.676C178.59 558.252 178.662 556.828 178.699 555.404C178.747 553.981 178.775 552.554 178.802 551.132C178.845 548.286 178.802 545.441 178.644 542.608C178.574 541.197 178.474 539.758 178.425 538.328C178.377 536.897 178.346 535.467 178.349 534.032C178.341 531.171 178.425 528.313 178.602 525.457Z" fill="#91643A"/>
<path d="M212.81 524.985C213.05 527.676 213.211 530.371 213.311 533.069C213.411 535.768 213.475 538.475 213.499 541.177C213.499 542.528 213.499 543.88 213.499 545.231C213.499 546.582 213.472 547.926 213.469 549.273C213.466 550.621 213.469 551.968 213.49 553.319C213.511 554.67 213.536 556.014 213.587 557.365C213.253 554.693 213.05 551.995 212.98 549.289C212.886 546.578 212.913 543.88 212.88 541.185L212.831 533.089C212.807 530.39 212.807 527.692 212.81 524.985Z" fill="#91643A"/>
<path d="M193.904 530.149C194.304 530.149 194.627 529.726 194.627 529.206C194.627 528.685 194.304 528.262 193.904 528.262C193.505 528.262 193.181 528.685 193.181 529.206C193.181 529.726 193.505 530.149 193.904 530.149Z" fill="#91643A"/>
<path d="M193.634 545.723C194.034 545.723 194.357 545.3 194.357 544.779C194.357 544.258 194.034 543.836 193.634 543.836C193.235 543.836 192.911 544.258 192.911 544.779C192.911 545.3 193.235 545.723 193.634 545.723Z" fill="#91643A"/>
<path d="M194.068 559.251C194.468 559.251 194.791 558.829 194.791 558.308C194.791 557.787 194.468 557.365 194.068 557.365C193.669 557.365 193.345 557.787 193.345 558.308C193.345 558.829 193.669 559.251 194.068 559.251Z" fill="#91643A"/>
<path d="M185.463 504.795C185.463 504.795 185.484 507.236 185.955 508.04C186.426 508.845 187.653 508.016 187.996 507.002C188.163 506.361 188.171 505.667 188.018 505.021C188.007 504.969 187.988 504.922 187.961 504.882C187.934 504.843 187.9 504.812 187.862 504.792C187.824 504.773 187.783 504.766 187.743 504.771C187.702 504.776 187.663 504.794 187.629 504.822C187.313 505.121 186.932 505.279 186.542 505.274C186.153 505.269 185.774 505.101 185.463 504.795V504.795Z" fill="#223A3E"/>
<path d="M59.0438 496.332C59.0438 496.332 54.2573 488.635 52.2271 485.299C51.0062 483.316 50.0397 481.914 50.035 480.3C50.0582 479.433 50.9923 476.009 50.812 475.454C50.6085 474.443 49.7483 474.122 49.0038 474.005H48.9714C48.82 473.971 48.6646 473.955 48.5089 473.957C48.2111 473.925 47.9097 473.938 47.6164 473.996C47.6395 473.879 47.6344 473.759 47.6016 473.644C47.5688 473.529 47.5091 473.423 47.4268 473.332C47.2464 472.933 46.7377 472.898 46.192 473.202C46.0401 473.328 45.9184 473.483 45.8347 473.657C45.7511 473.83 45.7073 474.018 45.7064 474.209C45.6739 474.167 45.6349 474.131 45.5908 474.1C45.3642 473.727 44.8508 473.736 44.3514 474.1C44.1543 474.28 44.0371 474.524 44.023 474.781L43.9167 474.712C43.6253 474.382 43.1212 474.469 42.6911 474.916C42.5621 475.078 42.4909 475.274 42.4876 475.476H42.446C42.1547 475.142 41.6552 475.228 41.2251 475.68C40.6933 476.235 41.2853 477.849 41.8125 478.357C42.9362 480.608 44.8601 481.103 45.6231 483.155C46.0301 484.249 52.8283 499.664 52.8283 499.664L59.0346 496.627C59.0346 496.627 58.9837 496.558 58.8958 496.423L59.0438 496.332Z" fill="#E0A4AB"/>
<path d="M41.8862 478.357C41.9954 478.411 42.1198 478.432 42.2424 478.418C42.3651 478.403 42.4798 478.353 42.5707 478.274C42.6958 478.076 42.7402 477.841 42.6955 477.615C42.6511 477.129 42.5519 476.649 42.3996 476.183C42.3793 476.121 42.3862 476.054 42.4188 475.996C42.4513 475.939 42.5067 475.896 42.573 475.877C42.6392 475.858 42.7108 475.864 42.7719 475.895C42.8331 475.925 42.8788 475.978 42.899 476.04V476.04C43.0057 476.358 43.1435 476.665 43.3106 476.959C43.3822 477.086 43.4725 477.203 43.5788 477.307C43.6852 477.393 43.6898 477.354 43.6852 477.359C43.7437 477.274 43.7787 477.177 43.7869 477.077C43.8121 476.92 43.823 476.762 43.8193 476.604C43.8078 476.268 43.7754 475.933 43.7222 475.601L44.3003 475.506C44.3482 475.856 44.4527 476.197 44.6101 476.517C44.6841 476.664 44.7905 476.777 44.8691 476.79C44.9182 476.808 44.9727 476.808 45.0217 476.79C45.0662 476.76 45.1013 476.72 45.1235 476.673C45.2829 476.337 45.3993 475.985 45.4703 475.623C45.5536 475.25 45.6322 474.873 45.7015 474.495C45.727 474.881 45.727 475.268 45.7015 475.654C45.6948 476.056 45.6231 476.456 45.4888 476.838C45.4405 476.974 45.3443 477.09 45.216 477.168C45.0827 477.239 44.9282 477.266 44.7766 477.246C44.6266 477.221 44.488 477.155 44.3789 477.055C44.2884 476.972 44.2092 476.879 44.143 476.777C43.9309 476.412 43.784 476.016 43.7083 475.606C43.6983 475.536 43.7168 475.466 43.7601 475.408C43.8033 475.351 43.8681 475.311 43.9414 475.297C44.0147 475.283 44.091 475.295 44.155 475.331C44.2191 475.368 44.266 475.425 44.2864 475.493V475.493C44.3669 475.853 44.4148 476.219 44.4298 476.586C44.4364 476.779 44.4271 476.972 44.402 477.163C44.3847 477.272 44.3553 477.378 44.3142 477.48C44.2603 477.613 44.1712 477.731 44.0552 477.823C43.9807 477.875 43.8949 477.912 43.8039 477.93C43.7128 477.948 43.6186 477.947 43.528 477.927C43.3828 477.893 43.2502 477.822 43.1441 477.723C42.9893 477.575 42.8626 477.403 42.7695 477.215C42.6011 476.878 42.4709 476.524 42.3811 476.161L42.8852 476.044C43.002 476.555 43.0425 477.08 43.0054 477.602C42.9957 477.886 42.8737 478.156 42.6632 478.361C42.602 478.407 42.5312 478.439 42.4554 478.457C42.3797 478.475 42.3007 478.478 42.2238 478.465C42.1049 478.45 41.9902 478.413 41.8862 478.357Z" fill="#E0A4AB"/>
<path d="M47.9584 474.096C47.5468 474.469 47.1444 474.842 46.7698 475.233C46.5882 475.424 46.4184 475.626 46.2611 475.836C46.1111 476.022 46.0026 476.234 45.942 476.461C45.9222 476.551 45.9222 476.644 45.942 476.734C45.942 476.769 45.942 476.734 45.942 476.734C45.942 476.734 45.942 476.734 45.9744 476.734C46.2104 476.692 46.4382 476.615 46.6496 476.508C47.1583 476.278 47.704 476.074 48.2312 475.879L49.9516 475.198L48.5642 476.361C48.2849 476.576 48.0237 476.811 47.7826 477.064C47.5522 477.311 47.3535 477.584 47.1907 477.875C47.0231 478.154 46.94 478.47 46.9502 478.79C46.9652 478.952 47.0123 479.109 47.0889 479.255C47.1705 479.414 47.2782 479.56 47.408 479.689C47.2352 479.602 47.0832 479.483 46.9615 479.339C46.8398 479.195 46.7509 479.029 46.7005 478.851C46.61 478.481 46.6423 478.093 46.793 477.74C46.9323 477.397 47.1189 477.071 47.3479 476.773C47.5754 476.477 47.8308 476.201 48.111 475.949L48.4255 476.43L46.8808 477.064C46.7467 477.116 46.608 477.172 46.46 477.22C46.2957 477.278 46.1222 477.311 45.9467 477.315C45.8136 477.316 45.6833 477.28 45.5721 477.211C45.4595 477.128 45.3838 477.009 45.3593 476.877C45.3297 476.706 45.3424 476.531 45.3963 476.365C45.4937 476.076 45.6597 475.812 45.8819 475.593C46.0771 475.381 46.2923 475.187 46.5247 475.011C46.9666 474.659 47.4472 474.352 47.9584 474.096V474.096Z" fill="#E0A4AB"/>
<path d="M109.341 496.332C109.341 496.332 114.109 488.635 116.158 485.299C117.378 483.316 118.34 481.914 118.345 480.3C118.322 479.433 117.388 476.009 117.568 475.454C117.776 474.443 118.632 474.122 119.381 474.005H119.409C119.56 473.971 119.715 473.955 119.871 473.957C120.169 473.924 120.47 473.937 120.764 473.996C120.741 473.879 120.747 473.758 120.781 473.644C120.814 473.529 120.875 473.422 120.958 473.332C121.134 472.933 121.642 472.898 122.188 473.202C122.34 473.328 122.463 473.483 122.547 473.656C122.632 473.83 122.676 474.018 122.678 474.209C122.709 474.167 122.747 474.131 122.789 474.1C123.02 473.727 123.529 473.736 124.029 474.1C124.226 474.281 124.344 474.524 124.362 474.781C124.395 474.756 124.431 474.733 124.468 474.712C124.759 474.382 125.259 474.469 125.689 474.916C125.822 475.076 125.893 475.273 125.892 475.476H125.934C126.225 475.142 126.725 475.228 127.155 475.68C127.687 476.235 127.099 477.849 126.572 478.357C125.448 480.608 123.52 481.103 122.757 483.155C122.35 484.249 115.552 499.664 115.552 499.664L109.35 496.627L109.484 496.423L109.341 496.332Z" fill="#E0A4AB"/>
<path d="M126.499 478.357C126.385 478.434 126.253 478.486 126.115 478.508C126.039 478.521 125.96 478.518 125.885 478.5C125.81 478.482 125.74 478.45 125.68 478.404C125.468 478.2 125.345 477.93 125.333 477.645C125.298 477.123 125.339 476.599 125.453 476.087L125.962 476.205C125.872 476.568 125.742 476.921 125.574 477.259C125.479 477.447 125.35 477.619 125.194 477.766C125.09 477.867 124.957 477.938 124.811 477.97C124.721 477.99 124.627 477.991 124.537 477.973C124.447 477.955 124.362 477.919 124.288 477.866C124.171 477.776 124.081 477.657 124.029 477.524C123.986 477.422 123.956 477.315 123.941 477.207C123.914 477.016 123.904 476.822 123.913 476.63C123.925 476.262 123.971 475.896 124.052 475.536V475.536C124.07 475.465 124.116 475.403 124.182 475.363C124.248 475.324 124.327 475.309 124.404 475.324C124.479 475.339 124.545 475.382 124.588 475.443C124.63 475.504 124.645 475.578 124.63 475.649C124.559 476.06 124.412 476.457 124.195 476.821C124.132 476.924 124.053 477.017 123.96 477.098C123.852 477.197 123.715 477.263 123.567 477.289C123.407 477.316 123.243 477.288 123.104 477.211C122.974 477.135 122.878 477.018 122.831 476.881C122.696 476.499 122.622 476.1 122.614 475.697C122.586 475.311 122.586 474.924 122.614 474.538C122.683 474.916 122.762 475.293 122.845 475.667C122.914 476.029 123.03 476.381 123.192 476.717C123.214 476.763 123.249 476.804 123.294 476.834C123.343 476.852 123.397 476.852 123.446 476.834C123.52 476.834 123.627 476.708 123.705 476.56C123.861 476.24 123.964 475.899 124.01 475.549L124.593 475.645C124.535 475.976 124.503 476.311 124.496 476.647C124.491 476.805 124.5 476.963 124.524 477.12C124.534 477.22 124.569 477.317 124.626 477.402C124.626 477.402 124.626 477.437 124.732 477.35C124.838 477.247 124.929 477.13 125 477.003C125.169 476.709 125.308 476.401 125.416 476.083V476.083C125.426 476.052 125.443 476.023 125.465 475.999C125.487 475.974 125.514 475.954 125.545 475.939C125.576 475.924 125.609 475.916 125.643 475.914C125.678 475.912 125.712 475.916 125.745 475.927C125.808 475.948 125.86 475.99 125.891 476.046C125.922 476.101 125.929 476.166 125.911 476.226C125.759 476.692 125.66 477.172 125.615 477.658C125.586 477.881 125.636 478.107 125.759 478.3C125.858 478.385 125.984 478.437 126.118 478.447C126.252 478.457 126.386 478.425 126.499 478.357Z" fill="#E0A4AB"/>
<path d="M120.422 474.096C120.935 474.351 121.417 474.658 121.86 475.011C122.088 475.187 122.3 475.38 122.494 475.588C122.706 475.811 122.864 476.075 122.956 476.361C123.009 476.527 123.024 476.701 122.998 476.873C122.969 477.005 122.892 477.123 122.78 477.207C122.671 477.275 122.542 477.312 122.41 477.311C122.233 477.306 122.058 477.274 121.892 477.216C121.744 477.168 121.606 477.111 121.476 477.059L119.932 476.426L120.241 475.944C120.522 476.197 120.777 476.473 121.004 476.769C121.235 477.066 121.422 477.392 121.559 477.736C121.712 478.088 121.746 478.476 121.657 478.847C121.605 479.024 121.516 479.19 121.395 479.334C121.273 479.478 121.121 479.597 120.949 479.684C121.076 479.554 121.183 479.408 121.268 479.25C121.341 479.104 121.386 478.947 121.402 478.786C121.414 478.466 121.33 478.149 121.162 477.871C120.999 477.58 120.802 477.308 120.574 477.059C120.346 476.809 120.1 476.573 119.839 476.352L118.452 475.189L120.167 475.879C120.695 476.087 121.24 476.278 121.749 476.508C121.962 476.616 122.191 476.693 122.429 476.734C122.47 476.734 122.47 476.734 122.461 476.734C122.452 476.734 122.461 476.764 122.461 476.734C122.482 476.644 122.482 476.551 122.461 476.461C122.397 476.235 122.289 476.024 122.142 475.836C121.982 475.627 121.811 475.426 121.629 475.233C121.24 474.842 120.852 474.469 120.422 474.096Z" fill="#E0A4AB"/>
<path d="M89.2378 600.714C85.145 602.484 75.7292 606.463 69.5877 608.355C69.2311 608.465 68.9102 608.659 68.6553 608.918C68.4004 609.177 68.2198 609.492 68.1306 609.834C68.0413 610.177 68.0463 610.535 68.1451 610.875C68.2439 611.215 68.4332 611.525 68.6952 611.778C68.923 612.001 69.0965 612.267 69.2039 612.559L71.2757 618.347C71.3751 618.627 71.5371 618.883 71.7507 619.1C71.9643 619.316 72.2246 619.488 72.5144 619.602C72.8042 619.717 73.1167 619.772 73.431 619.764C73.7453 619.757 74.0543 619.686 74.3372 619.557C78.4254 617.705 87.3324 613.635 95.1157 609.86C101.128 606.944 105.359 603.404 105.355 599.517C105.355 591.889 101.909 581.363 99.5599 561.223C96.2302 532.687 72.1035 558.407 72.6955 561.053C73.2042 563.336 86.6202 590.496 90.3199 597.933C90.4457 598.182 90.5175 598.452 90.5311 598.727C90.5448 599.002 90.4999 599.277 90.3992 599.536C90.2985 599.795 90.144 600.032 89.9446 600.234C89.7452 600.437 89.5049 600.6 89.2378 600.714V600.714Z" fill="#121E21"/>
<path d="M69.0557 561.053C69.0557 561.053 66.6278 581.25 65.0462 597.408C65.0462 597.408 46.5893 595.92 35.8694 591.767L33.3906 604.155C33.3906 604.155 64.8381 612.936 70.6189 612.941C80.5479 612.941 89.6399 568.178 89.6399 568.178C89.6399 568.178 95.0461 557.066 83.4661 559.153C76.6124 560.407 69.0557 561.053 69.0557 561.053Z" fill="#22393D"/>
<path d="M108.5 496.779C108.5 496.779 97.5439 512.759 94.8246 515.171C90.2647 519.197 83.7625 517.861 83.7625 517.861C83.7625 517.861 82.0791 550.154 84.4839 564.767L86.9674 570.065C86.9674 570.065 95.9762 569.692 102.881 567.696C102.881 567.696 98.8203 535.281 101.526 529.346C104.231 523.41 115.427 500.61 115.427 500.61L108.5 496.779Z" fill="#A130DC"/>
<path d="M116.967 499.647L109.078 494.714L106.881 497.46L115.302 502.688L116.967 499.647Z" fill="#822ABC"/>
<path d="M60.2694 496.779C60.2694 496.779 67.8122 510.433 72.1454 514.568C77.1724 519.38 84.7799 517.705 84.7799 517.705C84.7799 517.705 87.0414 555.37 84.6366 569.978C78.1241 570.296 71.6034 569.523 65.3796 567.696C65.3796 567.696 69.44 535.281 66.7346 529.346C64.0292 523.41 52.5925 500.732 52.5925 500.732L60.2694 496.779Z" fill="#A130DC"/>
<path d="M78.2589 519.349C78.2589 519.349 82.3795 521.401 82.7541 522.178C83.1286 522.955 85.0109 528.812 85.0109 528.812C85.0109 528.812 86.0653 521.827 86.4399 521.401C86.5879 521.237 87.6562 521.336 88.3221 520.803C89.358 519.965 90.1211 518.351 90.3523 517.661C90.7269 516.533 90.8749 512.455 90.8749 512.455C90.8749 512.455 79.3133 506.715 77.3386 508.784C75.3639 510.854 78.2589 519.349 78.2589 519.349Z" fill="#E0A4AB"/>
<path d="M74.7027 511.101C74.7027 511.101 79.6187 518.625 87.4112 516.885C92.7665 515.692 92.4983 509.24 91.8508 506.797C91.3236 504.78 90.112 501.079 91.2496 499.243C91.2496 499.243 79.8222 494.388 74.1755 502.068C70.1243 507.578 74.7027 511.101 74.7027 511.101Z" fill="#FFCDC2"/>
<path d="M76.8115 508.702C76.8115 508.702 74.0645 501.838 81.0014 501.148C87.9383 500.458 95.1158 504.905 94.8152 495.629C94.8152 495.629 93.8579 497.07 86.1162 494.709C81.8801 493.408 75.1883 494.397 72.5383 498.701C69.5138 503.6 71.151 509.617 74.5223 512.858C76.2889 514.546 77.1861 515.505 77.1861 515.505C77.1861 515.505 77.237 514.78 76.682 511.648C76.1155 511.672 75.5536 511.542 75.0634 511.275C74.4858 510.994 74.0371 510.526 73.8013 509.957C73.5655 509.388 73.5588 508.759 73.7824 508.186C73.9081 507.911 74.1431 507.692 74.4376 507.577C74.7321 507.462 75.0627 507.459 75.3594 507.569C75.958 507.795 76.466 508.191 76.8115 508.702V508.702Z" fill="#414042"/>
<path d="M77.1492 515.362L75.956 517.922C75.8602 518.126 75.8218 518.349 75.8445 518.571C75.8671 518.793 75.9501 519.006 76.0855 519.189L80.0072 524.551C80.0072 524.551 82.1946 522.686 82.7542 522.2C82.7542 522.178 78.7678 516.29 77.1492 515.362Z" fill="#822ABC"/>
<path d="M86.4399 521.401C86.4399 521.401 88.7523 523.237 88.8817 523.979L92.4011 519.267C92.6143 518.972 92.7255 518.623 92.7197 518.266C92.7139 517.91 92.5914 517.564 92.3687 517.275L90.7131 515.188C89.8945 516.368 88.5441 517.761 86.4399 521.401Z" fill="#822ABC"/>
<path d="M51.1724 499.656L59.6771 494.827L61.7211 497.46L52.6708 503.022L51.1724 499.656Z" fill="#822ABC"/>
<path d="M85.1172 564.451C85.0751 564.45 85.0351 564.433 85.0057 564.405C84.9764 564.376 84.96 564.338 84.96 564.299C85.1912 554.754 84.8582 529.072 84.8582 528.812C84.8576 528.793 84.8612 528.773 84.8689 528.755C84.8766 528.737 84.8881 528.72 84.9029 528.706C84.9176 528.693 84.9352 528.682 84.9545 528.675C84.9739 528.667 84.9946 528.664 85.0155 528.665V528.665C85.0572 528.665 85.0972 528.68 85.1266 528.708C85.1561 528.735 85.1727 528.773 85.1727 528.812C85.1727 529.068 85.5103 554.736 85.2791 564.307C85.2785 564.327 85.2738 564.346 85.2653 564.364C85.2569 564.381 85.2448 564.397 85.2298 564.411C85.2147 564.424 85.197 564.434 85.1777 564.441C85.1584 564.448 85.1379 564.451 85.1172 564.451V564.451Z" fill="#822ABC"/>
<path d="M86.116 514.06C88.0537 513.748 89.1821 511.917 88.7891 510.806C88.396 509.695 81.8521 510.698 82.0325 512.077C82.1666 513.028 83.6141 514.468 86.116 514.06Z" fill="#DD6680"/>
<path d="M89.4647 505.209C88.9797 505.148 88.4882 505.148 88.0033 505.209C87.7773 505.247 87.5547 505.301 87.3373 505.37C87.2171 505.4 87.1061 505.452 86.9812 505.487C86.8564 505.522 86.7361 505.582 86.5881 505.617C86.6395 505.49 86.7062 505.369 86.787 505.257C86.8757 505.143 86.9781 505.04 87.0922 504.949C87.3271 504.771 87.6078 504.654 87.9062 504.61C88.2031 504.561 88.5087 504.59 88.7895 504.693C89.0691 504.79 89.3066 504.972 89.4647 505.209V505.209Z" fill="#414042"/>
<path d="M82.3796 506.003C81.8371 505.883 81.2749 505.862 80.724 505.942C80.4605 505.989 80.2009 506.053 79.9471 506.133C79.8129 506.172 79.6835 506.224 79.5401 506.268C79.3895 506.324 79.235 506.37 79.0776 506.407C79.1513 506.273 79.2396 506.146 79.3412 506.029C79.4469 505.916 79.5647 505.812 79.6927 505.721C79.9679 505.535 80.2839 505.409 80.6176 505.352C80.9531 505.303 81.2965 505.332 81.6166 505.439C81.9308 505.542 82.1993 505.741 82.3796 506.003Z" fill="#414042"/>
<path d="M89.6309 503.487C89.247 503.487 88.9325 503.443 88.6366 503.435C88.3715 503.423 88.1059 503.442 87.8458 503.491C87.5922 503.533 87.3472 503.612 87.1197 503.725C86.9856 503.773 86.87 503.864 86.722 503.929C86.574 503.994 86.4445 504.103 86.2595 504.185C86.2624 504.007 86.2936 503.83 86.352 503.66C86.4164 503.497 86.5103 503.346 86.6295 503.213C86.883 502.906 87.2486 502.697 87.6562 502.628C88.0545 502.558 88.4659 502.61 88.8308 502.775C89.1733 502.924 89.4543 503.174 89.6309 503.487V503.487Z" fill="#414042"/>
<path d="M82.3796 504.671C81.9773 504.576 81.6397 504.489 81.316 504.433C81.0208 504.377 80.7194 504.357 80.4188 504.372C80.1203 504.388 79.8259 504.445 79.5447 504.541L79.4291 504.571L79.3135 504.619C79.2349 504.65 79.1517 504.68 79.0638 504.706C78.8864 504.783 78.7041 504.849 78.5181 504.905C78.5734 504.721 78.6526 504.543 78.7539 504.376C78.814 504.298 78.8742 504.22 78.9389 504.146C79.0022 504.067 79.0769 503.997 79.1609 503.938C79.4952 503.662 79.9188 503.5 80.3633 503.478C80.8022 503.455 81.2375 503.563 81.6073 503.786C81.964 503.991 82.2362 504.303 82.3796 504.671V504.671Z" fill="#414042"/>
<path d="M84.7798 506.342C85.097 506.432 85.3923 506.579 85.6492 506.775C85.9235 506.979 86.1449 507.239 86.2967 507.535C86.3807 507.708 86.4218 507.896 86.4169 508.086C86.4054 508.298 86.3078 508.498 86.1441 508.645C86.0035 508.755 85.8389 508.833 85.6622 508.875C85.4854 508.917 85.3009 508.922 85.122 508.888C85.3732 508.749 85.5918 508.563 85.7648 508.342C85.8077 508.263 85.8239 508.174 85.8111 508.086C85.7977 507.98 85.7648 507.877 85.714 507.782C85.5893 507.541 85.4455 507.309 85.2839 507.088C85.1174 506.867 84.9416 506.624 84.7798 506.342Z" fill="#E0A4AB"/>
<path d="M76.5017 510.719C76.3517 510.79 76.1882 510.832 76.0208 510.844C75.8533 510.855 75.6851 510.835 75.5259 510.784C75.2022 510.681 74.9091 510.507 74.6704 510.277C74.4084 510.057 74.2164 509.773 74.1154 509.457C74.0618 509.29 74.0489 509.114 74.0777 508.942C74.1065 508.77 74.1763 508.606 74.2819 508.463C74.3894 508.312 74.5415 508.193 74.7197 508.121C74.8979 508.05 75.0945 508.028 75.2854 508.06C75.4749 508.099 75.6464 508.193 75.7756 508.329C75.9534 508.51 76.0869 508.725 76.1668 508.96C76.2466 509.194 76.271 509.442 76.2381 509.687C76.2204 509.769 76.1892 509.848 76.1456 509.921C76.1228 509.961 76.0906 509.996 76.0513 510.023C76.0121 510.051 75.9669 510.069 75.919 510.077C75.8322 510.075 75.7474 510.052 75.6728 510.01C75.5983 509.969 75.5366 509.909 75.4936 509.839C75.6138 509.93 75.7664 510.034 75.9005 509.999C76.0346 509.964 76.0716 509.8 76.0762 509.665C76.086 509.378 76.0056 509.094 75.845 508.849C75.7876 508.728 75.703 508.619 75.5968 508.531C75.4907 508.442 75.3656 508.376 75.2299 508.337C75.0971 508.321 74.962 508.34 74.8401 508.392C74.7182 508.444 74.6145 508.527 74.5409 508.632C74.4615 508.742 74.4081 508.866 74.3842 508.996C74.3603 509.126 74.3664 509.26 74.4021 509.387C74.4799 509.663 74.6311 509.915 74.8415 510.121C75.0433 510.346 75.294 510.528 75.5768 510.654C75.8661 510.782 76.1954 510.805 76.5017 510.719V510.719Z" fill="#E0A4AB"/>
<path d="M76.1965 509.544C76.0947 509.357 75.919 509.192 75.734 509.249C75.6509 509.269 75.5783 509.316 75.5291 509.382C75.48 509.448 75.4575 509.529 75.4658 509.609C75.5012 509.79 75.5948 509.956 75.734 510.086C75.8704 510.242 76.0543 510.356 76.2612 510.411C76.1435 510.428 76.0233 510.419 75.9096 510.386C75.7959 510.353 75.6916 510.297 75.6045 510.22C75.502 510.151 75.4159 510.062 75.3515 509.96C75.287 509.857 75.2457 509.744 75.2299 509.626C75.2192 509.498 75.2611 509.371 75.3471 509.271C75.4331 509.171 75.5566 509.105 75.6924 509.088C75.7597 509.081 75.8277 509.091 75.8895 509.117C75.9514 509.143 76.0046 509.184 76.0438 509.236C76.1253 509.322 76.1784 509.429 76.1965 509.544Z" fill="#E0A4AB"/>
<path d="M248.242 533.701C248.242 533.701 248.648 544.676 245.764 546.956L245.445 535.052L248.242 533.701Z" fill="#020202"/>
<path d="M245.932 536.186C245.932 536.186 247.164 534.885 249.109 536.186C251.054 537.486 249.289 543.543 246.287 543.483L245.932 536.186Z" fill="#FFCDC2"/>
<path d="M226.718 541.639C226.718 541.639 227.823 546.453 229.797 547.447L229.412 542.165L226.718 541.639Z" fill="#020202"/>
<path d="M246.42 530.742V543.334C246.435 544.612 246.214 545.88 245.771 547.065C245.327 548.25 244.67 549.328 243.837 550.238C243.004 551.147 242.012 551.868 240.919 552.361C239.825 552.854 238.652 553.107 237.467 553.107C236.282 553.107 235.108 552.854 234.015 552.361C232.921 551.868 231.929 551.147 231.096 550.238C230.264 549.328 229.607 548.25 229.163 547.065C228.72 545.88 228.499 544.612 228.514 543.334V530.742H246.42Z" fill="#FFCDC2"/>
<g style="mix-blend-mode:multiply" opacity="0.7">
<path d="M244.811 548.844C243.971 550.141 242.849 551.196 241.543 551.916C240.237 552.636 238.787 552.999 237.32 552.973C235.853 552.947 234.415 552.533 233.131 551.768C231.848 551.002 230.758 549.908 229.959 548.582C231.359 549.26 235.532 551.205 237.418 551.205C239.095 551.209 242.909 549.666 244.811 548.844Z" fill="#E0A4AB"/>
</g>
<path d="M231.05 535.974C231.05 535.974 238.146 540.229 245.362 537.304V535.614C245.362 535.614 242.496 534.172 241.688 534.124C240.88 534.077 234.338 534.331 233.838 534.331C233.338 534.331 231.836 533.765 231.644 533.696C231.452 533.626 231.05 535.974 231.05 535.974Z" fill="#FFCDC2"/>
<path d="M246.65 534.891L246.641 535.271L246.436 542.521L246.395 544.019C246.363 543.611 246.315 543.154 246.257 542.668C245.96 540.318 245.369 537.307 245.112 536.032C245.033 535.645 244.985 535.416 244.985 535.416L246.65 534.891Z" fill="#231F20"/>
<path d="M248.689 533.716C248.074 534.33 247.386 534.852 246.642 535.27C246.148 535.561 245.636 535.818 245.11 536.037C242.277 537.201 237.825 537.8 231.988 534.757C231.988 534.757 229.107 537.987 228.575 541.732C228.547 541.922 228.526 542.113 228.511 542.306C228.511 542.306 228.497 542.017 228.464 541.562C228.336 539.806 227.924 535.59 226.945 535.92L226.849 535.952L225.717 536.334L225.697 536.223C225.579 535.493 225.023 531.418 227.079 530.117C227.079 530.117 226.438 529.866 225.385 530.753C225.385 530.753 225.592 528.651 227.181 528.37C227.181 528.37 225.695 526.544 226.874 524.331C226.874 524.331 227.463 526.416 228.515 525.969C228.515 525.969 230.491 519.996 239.111 521.157C247.732 522.319 249.189 531.143 248.689 533.716Z" fill="#231F20"/>
<path d="M240.062 548.451C239.625 548.832 239.112 549.1 238.563 549.232C237.254 549.561 235.709 549.269 234.713 548.506C233.893 547.878 233.444 546.931 233.802 545.741C233.867 545.535 233.947 545.336 234.042 545.145C234.619 543.988 236.31 545.83 237.658 545.27C239.007 544.71 239.775 544.198 240.794 544.899C240.946 545.007 241.063 545.163 241.13 545.346C241.13 545.346 241.13 545.346 241.13 545.346C241.456 546.128 241.109 547.531 240.062 548.451Z" fill="#EF736A"/>
<path d="M241.135 545.34C240.903 546.03 239.282 546.564 237.319 546.564C235.754 546.564 234.408 546.226 233.807 545.739C233.872 545.534 233.953 545.335 234.048 545.144C234.625 543.986 236.316 545.829 237.664 545.269C239.012 544.709 239.78 544.196 240.8 544.898C240.951 545.005 241.068 545.159 241.135 545.34V545.34Z" fill="white"/>
<path d="M240.062 548.451C239.625 548.832 239.112 549.1 238.563 549.232C237.254 549.561 235.709 549.269 234.713 548.506C235.603 548.21 236.531 548.069 237.462 548.086C238.341 548.072 239.216 548.195 240.062 548.451Z" fill="white"/>
<path d="M248.26 554.417V581.969L246.96 582.581C243.972 583.985 240.748 584.71 237.49 584.71C234.231 584.71 231.007 583.985 228.019 582.581L226.718 581.969V554.417H248.26Z" fill="#005B7F"/>
<g style="mix-blend-mode:multiply" opacity="0.38">
<path d="M229.013 572.621C229.013 572.621 231.047 572.563 231.746 570.957C231.746 570.957 234.767 572.621 237.49 572.621C239.112 572.622 240.688 572.036 241.965 570.957C241.965 570.957 243.215 572.737 245.152 572.621C247.089 572.504 244.061 567.048 244.061 567.048L238.105 565.84L229.797 567.693L228.771 571.51L229.013 572.621Z" fill="#005B7F"/>
</g>
<path d="M243.019 566.821C243.019 566.821 243.066 567.168 243.18 567.715C243.584 569.651 244.826 574.086 247.712 574.086C250.015 574.086 251.151 570.076 251.681 567.052C251.871 565.962 252.009 564.862 252.095 563.757L243.019 566.821Z" fill="#FFCDC2"/>
<g style="mix-blend-mode:multiply" opacity="0.7">
<path d="M243.181 567.711C243.584 569.647 244.826 574.082 247.713 574.082C250.015 574.082 251.151 570.071 251.681 567.048C250.92 568.309 249.087 571.054 247.559 571.054C245.579 571.054 244.579 568.772 245.481 567.797C246.03 567.206 244.486 567.088 243.181 567.711Z" fill="#E0A4AB"/>
</g>
<path d="M231.144 566.821C231.144 566.821 231.097 567.168 230.982 567.715C230.578 569.651 229.336 574.086 226.45 574.086C224.148 574.086 223.012 570.076 222.482 567.052C222.292 565.962 222.154 564.862 222.067 563.757L231.144 566.821Z" fill="#FFCDC2"/>
<g style="mix-blend-mode:multiply" opacity="0.7">
<path d="M230.983 567.711C230.578 569.647 229.336 574.082 226.45 574.082C224.148 574.082 223.012 570.071 222.482 567.048C223.243 568.309 225.076 571.054 226.602 571.054C228.585 571.054 229.585 568.772 228.683 567.797C228.133 567.206 229.677 567.088 230.983 567.711Z" fill="#E0A4AB"/>
</g>
<path d="M251.911 550.113V564.906C251.911 565.281 251.799 565.646 251.593 565.948C251.387 566.249 251.096 566.472 250.764 566.583L239.576 570.324C239.419 570.377 239.256 570.404 239.092 570.405H235.841C235.677 570.404 235.514 570.377 235.357 570.324L224.169 566.583C223.848 566.476 223.567 566.266 223.362 565.98C223.158 565.693 223.04 565.346 223.026 564.985C223.024 564.959 223.024 564.932 223.026 564.906V550.113C223.026 549.841 223.084 549.573 223.197 549.329C223.31 549.085 223.473 548.873 223.675 548.709C223.876 548.546 224.111 548.435 224.359 548.385C224.607 548.336 224.862 548.349 225.105 548.424L235.595 551.674L237.016 552.121C237.311 552.212 237.623 552.212 237.918 552.121L239.237 551.711L249.832 548.424C250.075 548.349 250.33 548.336 250.578 548.385C250.827 548.435 251.061 548.546 251.262 548.709C251.464 548.873 251.627 549.085 251.74 549.329C251.853 549.573 251.911 549.841 251.911 550.113Z" fill="#FF8535"/>
<path d="M239.237 551.711V570.405H235.595V551.68L237.466 552.261L239.237 551.711Z" fill="#FF6C1A"/>
<g style="mix-blend-mode:screen" opacity="0.59">
<path d="M251.911 550.113V552.017C236.164 552.066 227.575 555.938 223.025 559.438V550.113C223.025 549.841 223.083 549.573 223.196 549.329C223.308 549.085 223.472 548.873 223.673 548.709C223.875 548.546 224.109 548.435 224.357 548.385C224.606 548.336 224.861 548.349 225.104 548.424L235.595 551.674L237.016 552.121C237.311 552.212 237.623 552.212 237.918 552.121L239.237 551.711L249.832 548.424C250.075 548.349 250.33 548.336 250.578 548.385C250.827 548.435 251.061 548.546 251.262 548.709C251.464 548.873 251.628 549.085 251.74 549.329C251.853 549.573 251.911 549.841 251.911 550.113Z" fill="#FF8535"/>
</g>
<g style="mix-blend-mode:multiply">
<path d="M251.911 556.816V564.906C251.911 565.281 251.799 565.646 251.593 565.948C251.387 566.249 251.096 566.472 250.764 566.583L239.576 570.324C239.419 570.377 239.256 570.404 239.092 570.405H235.841C235.677 570.404 235.514 570.377 235.357 570.324L224.168 566.583C223.848 566.476 223.567 566.266 223.362 565.98C223.158 565.693 223.04 565.346 223.026 564.985C244.713 569.459 251.238 558.123 251.911 556.816Z" fill="#FF8535"/>
</g>
<path d="M224.275 557.255L222.463 556.734C221.899 556.572 221.319 556.934 221.168 557.543C221.018 558.152 221.354 558.777 221.918 558.939L223.73 559.459C224.294 559.622 224.874 559.26 225.025 558.651C225.175 558.042 224.839 557.417 224.275 557.255Z" fill="#FFCDC2"/>
<g style="mix-blend-mode:multiply" opacity="0.7">
<path d="M225.026 558.65C224.966 558.892 224.834 559.107 224.65 559.26C224.465 559.413 224.239 559.496 224.007 559.497C223.913 559.498 223.82 559.485 223.73 559.459L221.919 558.939C221.702 558.876 221.508 558.741 221.367 558.552C221.481 558.647 221.611 558.718 221.751 558.759L223.562 559.277C223.652 559.303 223.745 559.317 223.838 559.317C224.038 559.318 224.234 559.257 224.403 559.143C224.573 559.028 224.709 558.864 224.795 558.67C224.882 558.476 224.916 558.259 224.893 558.045C224.87 557.831 224.792 557.628 224.667 557.46C224.828 557.599 224.948 557.786 225.011 557.997C225.075 558.208 225.08 558.435 225.026 558.65V558.65Z" fill="#E0A4AB"/>
</g>
<g style="mix-blend-mode:screen" opacity="0.7">
<path d="M224.901 557.753C224.811 557.692 224.713 557.645 224.611 557.616L222.8 557.095C222.709 557.07 222.617 557.057 222.523 557.058C222.334 557.057 222.149 557.112 221.986 557.215C221.823 557.318 221.689 557.467 221.597 557.645C221.506 557.823 221.46 558.025 221.465 558.229C221.471 558.432 221.526 558.631 221.627 558.803C221.432 558.672 221.283 558.476 221.201 558.245C221.119 558.013 221.109 557.76 221.172 557.522C221.235 557.284 221.369 557.075 221.552 556.926C221.735 556.777 221.958 556.696 222.188 556.696C222.281 556.695 222.374 556.708 222.464 556.733L224.275 557.254C224.535 557.328 224.759 557.507 224.901 557.753V557.753Z" fill="#E0A4AB"/>
</g>
<path d="M223.379 561.739L221.567 561.219C221.003 561.057 220.423 561.419 220.272 562.028C220.122 562.637 220.458 563.262 221.022 563.424L222.834 563.944C223.398 564.106 223.978 563.744 224.129 563.136C224.279 562.527 223.943 561.902 223.379 561.739Z" fill="#FFCDC2"/>
<g style="mix-blend-mode:multiply" opacity="0.7">
<path d="M224.131 563.141C224.071 563.384 223.937 563.598 223.752 563.751C223.567 563.904 223.341 563.987 223.108 563.987C223.015 563.988 222.922 563.975 222.831 563.95L221.021 563.424C220.803 563.362 220.61 563.226 220.468 563.037C220.583 563.132 220.714 563.202 220.853 563.243L222.663 563.764C222.753 563.789 222.846 563.802 222.939 563.803C223.14 563.804 223.336 563.745 223.506 563.63C223.676 563.516 223.813 563.352 223.9 563.157C223.987 562.963 224.02 562.745 223.997 562.531C223.974 562.316 223.894 562.113 223.768 561.946C223.93 562.085 224.051 562.272 224.116 562.485C224.18 562.697 224.186 562.926 224.131 563.141V563.141Z" fill="#E0A4AB"/>
</g>
<g style="mix-blend-mode:screen" opacity="0.7">
<path d="M224.005 562.237C223.916 562.177 223.819 562.131 223.717 562.102L221.906 561.582C221.816 561.556 221.723 561.542 221.63 561.542C221.441 561.542 221.256 561.597 221.093 561.7C220.93 561.803 220.796 561.951 220.705 562.129C220.613 562.307 220.567 562.508 220.572 562.712C220.577 562.915 220.632 563.113 220.732 563.286C220.519 563.141 220.362 562.918 220.288 562.659C220.214 562.4 220.228 562.12 220.328 561.871C220.428 561.622 220.607 561.42 220.833 561.301C221.059 561.181 221.317 561.153 221.561 561.22L223.371 561.74C223.634 561.812 223.861 561.99 224.005 562.237V562.237Z" fill="#E0A4AB"/>
</g>
<path d="M222.949 563.985L221.454 563.556C220.988 563.422 220.509 563.72 220.384 564.223C220.26 564.726 220.538 565.242 221.004 565.376L222.499 565.806C222.966 565.94 223.445 565.641 223.569 565.138C223.693 564.635 223.416 564.119 222.949 563.985Z" fill="#FFCDC2"/>
<g style="mix-blend-mode:multiply" opacity="0.7">
<path d="M223.571 565.139C223.522 565.339 223.413 565.517 223.26 565.644C223.107 565.771 222.92 565.84 222.727 565.84C222.651 565.839 222.576 565.828 222.502 565.807L221.006 565.375C220.818 565.321 220.652 565.201 220.534 565.034C220.625 565.108 220.728 565.163 220.838 565.194L222.335 565.624C222.409 565.646 222.484 565.657 222.56 565.657C222.722 565.655 222.881 565.605 223.018 565.512C223.156 565.419 223.266 565.286 223.338 565.13C223.409 564.973 223.439 564.797 223.424 564.623C223.409 564.449 223.349 564.283 223.251 564.144C223.39 564.256 223.495 564.411 223.552 564.588C223.609 564.766 223.616 564.957 223.571 565.139V565.139Z" fill="#E0A4AB"/>
</g>
<g style="mix-blend-mode:screen" opacity="0.7">
<path d="M223.49 564.436C223.427 564.396 223.359 564.366 223.289 564.346L221.791 563.917C221.72 563.897 221.647 563.887 221.573 563.886C221.421 563.886 221.271 563.929 221.138 564.01C221.006 564.092 220.895 564.209 220.818 564.351C220.741 564.493 220.7 564.655 220.698 564.819C220.697 564.984 220.736 565.146 220.811 565.289C220.642 565.187 220.51 565.028 220.434 564.836C220.358 564.644 220.344 564.431 220.393 564.229C220.441 564.027 220.551 563.849 220.704 563.721C220.856 563.594 221.044 563.524 221.238 563.524C221.313 563.525 221.388 563.536 221.461 563.557L222.954 563.984C223.068 564.016 223.173 564.073 223.265 564.151C223.358 564.228 223.434 564.325 223.49 564.436V564.436Z" fill="#E0A4AB"/>
</g>
<path d="M224.394 559.668L221.977 558.974C221.412 558.812 220.833 559.174 220.682 559.782C220.532 560.391 220.867 561.016 221.432 561.178L223.849 561.873C224.414 562.035 224.994 561.673 225.144 561.064C225.295 560.455 224.959 559.83 224.394 559.668Z" fill="#FFCDC2"/>
<g style="mix-blend-mode:multiply" opacity="0.7">
<path d="M225.145 561.056C225.085 561.299 224.952 561.514 224.768 561.667C224.583 561.82 224.357 561.903 224.124 561.904C224.031 561.905 223.938 561.892 223.848 561.865L221.435 561.177C221.217 561.115 221.023 560.979 220.882 560.79C220.996 560.885 221.127 560.955 221.266 560.995L223.682 561.691C223.772 561.717 223.865 561.729 223.958 561.728C224.158 561.729 224.354 561.669 224.524 561.554C224.693 561.44 224.829 561.276 224.916 561.082C225.003 560.888 225.036 560.671 225.014 560.457C224.991 560.243 224.912 560.04 224.787 559.872C224.946 560.011 225.065 560.197 225.128 560.407C225.192 560.617 225.198 560.843 225.145 561.056Z" fill="#E0A4AB"/>
</g>
<g style="mix-blend-mode:screen" opacity="0.7">
<path d="M225.026 560.163C224.936 560.103 224.839 560.057 224.737 560.027L222.32 559.335C222.23 559.308 222.137 559.294 222.044 559.295C221.811 559.296 221.585 559.379 221.4 559.533C221.216 559.686 221.083 559.901 221.023 560.144C220.986 560.294 220.977 560.451 220.999 560.604C221.02 560.758 221.071 560.905 221.147 561.037C220.954 560.905 220.806 560.709 220.724 560.478C220.643 560.247 220.634 559.994 220.697 559.757C220.761 559.52 220.894 559.311 221.077 559.163C221.26 559.014 221.482 558.933 221.711 558.933C221.804 558.933 221.897 558.946 221.987 558.973L224.405 559.665C224.663 559.741 224.885 559.918 225.026 560.163V560.163Z" fill="#E0A4AB"/>
</g>
<path d="M250.431 559.462L252.242 558.941C252.807 558.779 253.143 558.154 252.992 557.545C252.842 556.936 252.262 556.574 251.698 556.737L249.886 557.257C249.322 557.419 248.986 558.044 249.136 558.653C249.287 559.262 249.867 559.624 250.431 559.462Z" fill="#FFCDC2"/>
<g style="mix-blend-mode:multiply" opacity="0.7">
<path d="M249.137 558.65C249.197 558.892 249.33 559.107 249.514 559.26C249.699 559.413 249.925 559.496 250.158 559.497C250.251 559.498 250.344 559.485 250.434 559.459L252.238 558.939C252.456 558.876 252.649 558.741 252.791 558.552C252.676 558.647 252.545 558.717 252.405 558.759L250.596 559.277C250.506 559.303 250.413 559.317 250.319 559.317C250.119 559.318 249.923 559.257 249.754 559.143C249.585 559.028 249.449 558.864 249.362 558.67C249.276 558.476 249.242 558.259 249.264 558.045C249.287 557.831 249.365 557.628 249.491 557.46C249.331 557.6 249.212 557.787 249.15 557.998C249.087 558.209 249.082 558.436 249.137 558.65Z" fill="#E0A4AB"/>
</g>
<g style="mix-blend-mode:screen" opacity="0.7">
<path d="M249.261 557.753C249.351 557.692 249.45 557.646 249.553 557.616L251.362 557.095C251.452 557.07 251.545 557.057 251.638 557.058C251.827 557.057 252.013 557.112 252.176 557.215C252.339 557.318 252.473 557.467 252.565 557.645C252.656 557.823 252.702 558.025 252.697 558.229C252.691 558.432 252.635 558.631 252.535 558.803C252.729 558.672 252.879 558.476 252.961 558.245C253.043 558.013 253.053 557.76 252.99 557.522C252.927 557.284 252.793 557.075 252.61 556.926C252.427 556.777 252.204 556.696 251.974 556.696C251.881 556.695 251.788 556.708 251.698 556.733L249.89 557.254C249.629 557.328 249.404 557.507 249.261 557.753V557.753Z" fill="#E0A4AB"/>
</g>
<path d="M251.03 563.946L252.848 563.42C253.415 563.256 253.751 562.628 253.599 562.017C253.447 561.406 252.865 561.043 252.298 561.207L250.48 561.733C249.913 561.896 249.576 562.525 249.728 563.136C249.88 563.747 250.463 564.11 251.03 563.946Z" fill="#FFCDC2"/>
<g style="mix-blend-mode:multiply" opacity="0.7">
<path d="M250.028 563.141C250.089 563.384 250.222 563.598 250.407 563.751C250.592 563.904 250.818 563.987 251.051 563.987C251.145 563.988 251.237 563.975 251.328 563.95L253.139 563.429C253.356 563.367 253.55 563.231 253.691 563.042C253.577 563.137 253.447 563.207 253.307 563.247L251.496 563.768C251.406 563.794 251.313 563.807 251.22 563.807C251.02 563.809 250.823 563.749 250.653 563.635C250.483 563.521 250.346 563.357 250.259 563.162C250.173 562.967 250.139 562.75 250.162 562.535C250.185 562.321 250.265 562.118 250.391 561.95C250.23 562.089 250.109 562.276 250.045 562.487C249.98 562.699 249.974 562.926 250.028 563.141V563.141Z" fill="#E0A4AB"/>
</g>
<g style="mix-blend-mode:screen" opacity="0.7">
<path d="M250.158 562.237C250.246 562.176 250.341 562.129 250.442 562.099L252.253 561.579C252.343 561.553 252.436 561.539 252.529 561.539C252.718 561.539 252.903 561.593 253.066 561.697C253.229 561.8 253.363 561.948 253.454 562.126C253.546 562.304 253.592 562.505 253.587 562.708C253.582 562.912 253.527 563.11 253.427 563.283C253.642 563.138 253.801 562.915 253.876 562.654C253.951 562.393 253.936 562.112 253.835 561.862C253.734 561.612 253.552 561.409 253.324 561.291C253.096 561.172 252.836 561.146 252.592 561.217L250.781 561.737C250.522 561.813 250.299 561.992 250.158 562.237Z" fill="#E0A4AB"/>
</g>
<path d="M251.66 565.81L253.155 565.38C253.622 565.246 253.899 564.73 253.775 564.227C253.651 563.725 253.172 563.426 252.705 563.56L251.21 563.989C250.744 564.123 250.466 564.639 250.59 565.142C250.715 565.645 251.194 565.944 251.66 565.81Z" fill="#FFCDC2"/>
<g style="mix-blend-mode:multiply" opacity="0.7">
<path d="M250.591 565.139C250.641 565.339 250.75 565.517 250.903 565.644C251.055 565.771 251.243 565.84 251.435 565.84C251.511 565.839 251.586 565.828 251.659 565.807L253.156 565.375C253.344 565.321 253.51 565.201 253.627 565.034C253.538 565.109 253.435 565.163 253.325 565.194L251.824 565.626C251.75 565.647 251.674 565.658 251.598 565.658C251.436 565.657 251.278 565.606 251.14 565.513C251.003 565.42 250.892 565.288 250.821 565.131C250.749 564.974 250.719 564.799 250.735 564.625C250.75 564.451 250.81 564.285 250.908 564.145C250.769 564.258 250.665 564.413 250.609 564.59C250.553 564.767 250.547 564.958 250.591 565.139V565.139Z" fill="#E0A4AB"/>
</g>
<g style="mix-blend-mode:screen" opacity="0.7">
<path d="M250.673 564.436C250.737 564.396 250.804 564.366 250.875 564.346L252.376 563.917C252.45 563.896 252.525 563.885 252.6 563.885C252.753 563.885 252.902 563.928 253.035 564.01C253.167 564.091 253.277 564.209 253.354 564.351C253.431 564.492 253.472 564.654 253.474 564.818C253.475 564.982 253.437 565.144 253.363 565.288C253.532 565.185 253.665 565.025 253.74 564.833C253.816 564.64 253.83 564.426 253.78 564.224C253.73 564.022 253.62 563.843 253.466 563.716C253.312 563.589 253.123 563.521 252.929 563.523C252.853 563.524 252.777 563.535 252.704 563.555L251.208 563.984C251.095 564.017 250.99 564.073 250.898 564.151C250.806 564.228 250.729 564.325 250.673 564.436V564.436Z" fill="#E0A4AB"/>
</g>
<path d="M250.311 561.875L252.729 561.18C253.293 561.018 253.629 560.393 253.479 559.784C253.328 559.176 252.748 558.813 252.184 558.976L249.766 559.67C249.202 559.832 248.866 560.457 249.017 561.066C249.167 561.675 249.747 562.037 250.311 561.875Z" fill="#FFCDC2"/>
<g style="mix-blend-mode:multiply" opacity="0.7">
<path d="M249.018 561.056C249.078 561.299 249.211 561.514 249.395 561.667C249.58 561.82 249.806 561.903 250.039 561.904C250.132 561.905 250.225 561.892 250.315 561.865L252.731 561.171C252.949 561.109 253.143 560.974 253.284 560.784C253.17 560.879 253.039 560.949 252.9 560.989L250.482 561.685C250.392 561.711 250.299 561.723 250.206 561.722C250.006 561.723 249.81 561.663 249.641 561.549C249.471 561.434 249.335 561.271 249.249 561.076C249.162 560.882 249.128 560.665 249.151 560.451C249.174 560.237 249.252 560.034 249.377 559.867C249.217 560.006 249.097 560.193 249.034 560.404C248.97 560.615 248.964 560.842 249.018 561.056V561.056Z" fill="#E0A4AB"/>
</g>
<g style="mix-blend-mode:screen" opacity="0.7">
<path d="M249.144 560.163C249.233 560.103 249.331 560.057 249.432 560.027L251.85 559.335C251.94 559.308 252.033 559.294 252.126 559.295C252.359 559.296 252.585 559.379 252.769 559.533C252.953 559.686 253.086 559.901 253.145 560.144C253.183 560.294 253.192 560.451 253.17 560.604C253.149 560.758 253.098 560.906 253.021 561.037C253.213 560.909 253.362 560.717 253.445 560.491C253.527 560.264 253.54 560.015 253.481 559.78C253.421 559.538 253.289 559.323 253.105 559.17C252.921 559.016 252.695 558.932 252.462 558.931C252.368 558.931 252.275 558.945 252.185 558.971L249.768 559.664C249.509 559.739 249.286 559.917 249.144 560.163V560.163Z" fill="#E0A4AB"/>
</g>
<g style="mix-blend-mode:multiply" opacity="0.7">
<path d="M247.42 537.325C247.42 537.325 249.127 537.027 249.101 538.612C249.075 540.196 247.189 542.304 247.189 542.304C247.189 542.304 248.422 539.251 247.42 537.325Z" fill="#E0A4AB"/>
</g>
<path d="M248.689 533.716C248.689 533.716 246.182 523.467 237.49 523.22C228.797 522.973 228.771 527.697 228.771 527.697L228.028 527.116L228.514 530.739C228.514 530.739 226.216 532.229 225.703 536.187C225.704 536.196 225.704 536.206 225.703 536.215C225.584 535.486 225.029 531.411 227.084 530.109C227.084 530.109 226.443 529.859 225.391 530.745C225.391 530.745 225.598 528.644 227.187 528.362C227.187 528.362 225.7 526.537 226.88 524.323C226.88 524.323 227.468 526.408 228.521 525.962C228.521 525.962 230.496 519.988 239.117 521.15C247.738 522.311 249.19 531.143 248.689 533.716Z" fill="#414042"/>
<path d="M248.688 533.718C248.072 534.331 247.384 534.854 246.641 535.271L246.436 542.521C246.377 542.57 246.315 542.621 246.253 542.67C245.956 540.32 245.364 537.308 245.107 536.034C242.274 537.198 237.822 537.797 231.985 534.754C231.985 534.754 229.104 537.985 228.572 541.729C228.533 541.671 228.497 541.612 228.461 541.557C228.333 539.802 227.921 535.585 226.942 535.916L226.846 535.947C226.907 535.854 226.986 535.776 227.077 535.718C227.168 535.661 227.27 535.626 227.375 535.615C230.095 535.234 232.097 532.902 232.097 532.902C242.418 537.666 248.569 533.794 248.688 533.718Z" fill="#020202"/>
<path d="M228.884 536.186C228.884 536.186 227.652 534.885 225.707 536.186C223.763 537.486 225.528 543.543 228.529 543.483L228.884 536.186Z" fill="#FFCDC2"/>
<g style="mix-blend-mode:multiply" opacity="0.7">
<path d="M228.028 536.909C228.028 536.909 226.565 536.702 226.065 537.952C225.565 539.201 226.796 541.395 227.796 542.059C227.796 542.055 227.026 538.694 228.028 536.909Z" fill="#E0A4AB"/>
</g>
<path d="M233.83 542.615C234.496 542.615 235.035 542.033 235.035 541.316C235.035 540.599 234.496 540.017 233.83 540.017C233.165 540.017 232.626 540.599 232.626 541.316C232.626 542.033 233.165 542.615 233.83 542.615Z" fill="#231F20"/>
<path d="M231.268 538.604C232.527 536.875 235.582 537.063 236.393 539.186C235.48 538.945 234.76 538.74 233.878 538.682C232.995 538.624 232.201 538.647 231.268 538.604Z" fill="#231F20"/>
<path d="M241.712 542.615C242.378 542.615 242.917 542.033 242.917 541.316C242.917 540.599 242.378 540.017 241.712 540.017C241.047 540.017 240.508 540.599 240.508 541.316C240.508 542.033 241.047 542.615 241.712 542.615Z" fill="#231F20"/>
<path d="M244.275 538.604C243.344 538.647 242.54 538.604 241.666 538.682C240.791 538.759 240.063 538.945 239.15 539.186C239.961 537.063 243.018 536.875 244.275 538.604V538.604Z" fill="#231F20"/>
<path d="M8.34254 570.349C8.34254 570.349 4.15785 598.926 2.8141 606.447C1.47035 613.967 -6.55959 615.341 -11 644.413C-11 644.413 -6.58284 647.917 -1.0916 646.102C-1.0916 646.102 7.4777 626 11.2253 617.961C14.9729 609.923 27.9036 584.093 27.9036 584.093C27.9036 584.093 29.8379 601.88 31.0421 609.144C32.2464 616.408 33.4506 628.594 31.0421 647.786C32.538 648.583 34.2173 649 35.9242 649C37.6312 649 39.3105 648.583 40.8064 647.786C40.8064 647.786 42.5453 639.748 43.8844 634.299C45.2235 628.85 50.8124 582.868 42.6662 562L8.34254 570.349Z" fill="#22393D"/>
<path d="M8.79551 568.414L8 571.345C8 571.345 31.2903 579.251 44 567.777C43.6208 565.804 43.0465 563.87 42.2848 562L8.79551 568.414Z" fill="#E29332"/>
<path d="M-2.54281 527.806C-2.54281 527.806 -5.15866 531.992 -7.08032 535.637C-8.66178 538.631 -10.4639 543.225 -7.08032 545.347C-1.59577 548.789 8.32515 536.057 11.4145 533.284C11.4145 533.284 10.9962 539.074 14.251 543.125C14.251 543.125 13.3822 555.875 9.32276 568.62C9.32276 568.62 29.3715 575.932 43.8437 564.921C43.8437 564.921 38.704 550.491 38.4695 543.383C38.4695 543.383 42.9978 537.06 40.7681 530.899C40.7681 530.899 51.3097 540.664 54.2427 542.484C57.1758 544.304 61.6765 545.952 63.6212 542.574C65.5658 539.196 59.4836 530.037 57.6079 527.806C55.7323 525.574 46.5745 518.728 44.2758 516.216C41.9772 513.705 33.0677 510.146 28.1256 511.185C23.1836 512.224 15.0648 513.529 12.596 515.783C10.1273 518.037 0.859177 528.614 -0.27635 528.88C-1.41188 529.147 -2.54281 527.806 -2.54281 527.806Z" fill="#FAAF41"/>
<path d="M16 514.005C16 514.005 20.6927 526.291 26.2067 531C26.2067 531 34.9587 524.081 37 513.071L33.0956 512.096L26.2067 526.595L18.6045 511L16 514.005Z" fill="#E29332"/>
<path d="M35.448 515L30.3413 513.213C30.3413 513.213 26.8777 507.209 31.082 505.784C35.2863 504.359 37.1381 502.608 36.992 505.784C36.846 508.96 35.448 515 35.448 515Z" fill="#121E21"/>
<path d="M20 512.669L23.2523 519.101C24.3045 519.731 25.5302 520.042 26.7698 519.995C28.0095 519.949 29.2059 519.546 30.2032 518.84L33 513.607C33 513.607 31.2144 513.171 31.2144 512.442C31.2144 511.714 31.2873 508.247 32.7085 506.337C33.3781 505.439 20 506.62 20 506.62V512.669Z" fill="#E0A4AB"/>
<path d="M21.1056 507.602C21.1056 507.602 24.2275 511 26.9644 511C29.7014 511 37 504.786 37 504.786C37 504.786 37 488.097 31.6876 488.002C26.3752 487.907 23.8426 490.887 20.6494 493.187C17.4563 495.487 15.6127 498.249 16.0688 500.862C16.525 503.475 21.1056 507.602 21.1056 507.602Z" fill="#FFCDC2"/>
<path d="M19.8995 495.91C19.8995 495.91 25.0269 493.325 25.3598 490.537C25.3598 490.537 31.962 494.611 33.4785 506.94C34.6436 516.382 33.4785 523.212 31.2454 526C31.2454 526 35.6099 525.222 37.8939 515.317L40.0022 516.238C40.0022 516.238 46.5212 482.407 26.2336 485.159C17.7357 484.085 16.0574 494.876 15.6367 500.663C15.2946 505.451 14 516.531 14 516.531C14 516.531 22.3869 513.46 22.4979 511.836C22.4979 511.688 22.2713 508.239 22.2713 508.239C20.6785 506.833 19.6882 504.896 19.4973 502.812C19.4973 502.812 17.1855 500.969 17.819 498.693C18.3923 496.612 20.0983 499.413 20.0983 499.413L19.8995 495.91Z" fill="#121E21"/>
<path d="M-2 527.097C-2 527.097 5.61213 518.929 6.23554 517.362C6.82614 515.88 9.11821 511.201 8.9401 508.962C8.74792 506.562 9.07603 504.439 10.2291 505.133C11.2087 505.725 10.5197 509.781 11.8368 509.952C13.0087 510.099 14.443 509.226 15.3898 508.935C16.1632 508.693 16.7678 508.966 16.796 509.611C16.796 509.929 16.646 510.278 16.0788 510.596C16.0788 510.596 17.7006 511.492 16.2804 512.786C16.2804 512.786 17.7944 513.838 16.4304 514.958C16.4304 514.958 17.6116 516.462 14.143 517.559C10.6744 518.656 9.61038 521.876 8.32607 525.248C7.04175 528.619 5.42464 532 5.42464 532L-2 527.097Z" fill="#FFCDC2"/>
<path d="M16 511.053C15.7952 511.246 15.5658 511.409 15.3186 511.536C15.0841 511.656 14.8404 511.754 14.59 511.83C14.3374 511.904 14.0793 511.955 13.8186 511.984C13.5455 512.014 13.2697 512.002 13 511.948C13.2015 511.752 13.4297 511.589 13.6771 511.464C13.9112 511.343 14.155 511.245 14.4057 511.17C14.6578 511.094 14.916 511.042 15.1771 511.017C15.4516 510.986 15.7289 510.998 16 511.053V511.053Z" fill="#E0A4AB"/>
<path d="M16 513.094C15.8775 513.3 15.7284 513.472 15.5604 513.601C15.4075 513.72 15.2453 513.813 15.0769 513.88C14.9075 513.947 14.7329 513.987 14.5568 513.997C14.3685 514.011 14.18 513.978 14 513.901C14.1217 513.694 14.2709 513.522 14.4396 513.394C14.5916 513.274 14.7541 513.182 14.9231 513.12C15.0914 513.053 15.2647 513.014 15.4396 513.003C15.6288 512.99 15.8182 513.021 16 513.094V513.094Z" fill="#E0A4AB"/>
<path d="M16 515.372C15.8566 515.571 15.6928 515.723 15.517 515.819C15.3556 515.91 15.1883 515.966 15.0189 515.987C14.8513 516.013 14.6825 516 14.517 515.948C14.3348 515.898 14.1596 515.79 14 515.631C14.1423 515.427 14.3064 515.273 14.483 515.177C14.6431 515.086 14.8092 515.03 14.9774 515.009C15.1462 514.989 15.3158 515.002 15.483 515.048C15.6656 515.099 15.8409 515.209 16 515.372V515.372Z" fill="#E0A4AB"/>
<path d="M5 534C4.82091 535.163 4.51618 536.304 4.09091 537.405C3.67513 538.512 3.14892 539.576 2.51981 540.583C1.88605 541.605 1.10056 542.531 0.188811 543.329C-0.70984 544.143 -1.80779 544.718 -3 545C-1.93751 544.497 -0.978434 543.81 -0.170164 542.971C0.234105 542.562 0.609477 542.126 0.953379 541.668C1.30885 541.214 1.63728 540.741 1.93706 540.251C2.55344 539.273 3.1077 538.259 3.59674 537.214C4.10489 536.161 4.56643 535.094 5 534Z" fill="#E29332"/>
<path d="M51 533C51.4049 534.049 51.8311 535.083 52.2785 536.102C52.7352 537.116 53.1918 538.116 53.7489 539.074C54.0137 539.537 54.3014 540.028 54.6073 540.463C54.9059 540.922 55.2291 541.364 55.5753 541.787C56.2645 542.649 57.0827 543.395 58 544C56.9339 543.614 55.972 542.98 55.1918 542.148C54.4022 541.317 53.7251 540.383 53.1781 539.37C52.6301 538.377 52.1716 537.336 51.8082 536.259C51.4318 535.203 51.161 534.111 51 533V533Z" fill="#E29332"/>
<path d="M26.2509 500C26.2509 500 25.5405 502.05 25.0626 502.279C24.5847 502.509 27 503 27 503C27 503 25.7794 502.212 26.2509 500Z" fill="#E0A4AB"/>
<path d="M24.29 505.003C25.1879 505.138 28.1108 505.504 29.6822 505.123C29.7187 505.115 29.7564 505.116 29.7927 505.125C29.8291 505.134 29.8632 505.151 29.8929 505.175C29.9225 505.199 29.947 505.23 29.9647 505.265C29.9824 505.3 29.9929 505.339 29.9955 505.379C30.0376 506.08 29.8365 507.99 27.0773 508C24.3181 508.01 23.9954 505.995 24 505.269C24.0003 505.23 24.0084 505.192 24.0236 505.156C24.0389 505.121 24.061 505.09 24.0885 505.065C24.116 505.04 24.1482 505.021 24.183 505.01C24.2177 505 24.2542 504.997 24.29 505.003V505.003Z" fill="#EA7185"/>
<path d="M24 498C23.5997 497.748 23.1157 497.6 22.6111 497.576C22.3653 497.568 22.1191 497.577 21.875 497.603C21.7454 497.603 21.6065 497.629 21.463 497.64C21.3098 497.661 21.1551 497.672 21 497.674C21.0906 497.571 21.1929 497.475 21.3056 497.387C21.4269 497.307 21.5554 497.235 21.6898 497.171C21.9759 497.051 22.2945 496.993 22.6157 497.001C22.9577 497.015 23.2838 497.123 23.5417 497.307C23.6744 497.389 23.7841 497.493 23.8632 497.613C23.9422 497.732 23.9889 497.864 24 498V498Z" fill="#121E21"/>
<path d="M32 497.669C31.5139 497.532 30.9969 497.493 30.4897 497.554C30.2492 497.597 30.0132 497.656 29.784 497.732L29.4127 497.864C29.2799 497.919 29.1418 497.965 29 498C29.0609 497.879 29.134 497.762 29.2187 497.651C29.3135 497.551 29.4184 497.458 29.5323 497.372C29.7787 497.199 30.0721 497.079 30.3865 497.024C30.7017 496.971 31.0286 497.006 31.319 497.122C31.6094 497.238 31.8481 497.43 32 497.669V497.669Z" fill="#121E21"/>
<path d="M32 499.527C31.4856 499.462 30.9643 499.462 30.4499 499.527C30.2089 499.562 29.9724 499.621 29.744 499.701C29.5056 499.777 29.2671 499.893 29 500C29.111 499.741 29.2978 499.517 29.539 499.353C29.7799 499.176 30.0661 499.063 30.3688 499.022C30.6692 498.977 30.9766 499 31.2655 499.089C31.5489 499.169 31.8032 499.32 32 499.527Z" fill="#121E21"/>
<path d="M23 500C23.5523 500 24 499.776 24 499.5C24 499.224 23.5523 499 23 499C22.4477 499 22 499.224 22 499.5C22 499.776 22.4477 500 23 500Z" fill="#414042"/>
<path d="M36.6188 517.779C36.6188 517.779 36.3741 524.076 34 527C34 527 40.0123 524.683 41 514.27L37.1081 514L36.6188 517.779Z" fill="#121E21"/>
<path d="M-4 529.038L-2.39849 526L7 532.36L5.49644 535L-4 529.038Z" fill="#E29332"/>
<path d="M57 526.915C57 526.915 49.7885 518.445 49.1979 516.82C48.6384 515.278 46.4714 510.43 46.6357 508.109C46.8178 505.62 46.5069 503.419 45.4145 504.138C44.4865 504.751 45.1392 508.958 43.8914 509.13C42.7813 509.288 41.4225 508.383 40.5255 508.081C39.7928 507.83 39.2199 508.113 39.1933 508.782C39.1933 509.112 39.3354 509.474 39.8727 509.799C39.8727 509.799 38.3407 510.728 39.6818 512.074C39.6818 512.074 38.2474 513.166 39.5397 514.322C39.5397 514.322 38.4251 515.887 41.7067 517.02C44.9882 518.153 46.014 521.501 47.2263 524.979C48.4386 528.457 49.975 532 49.975 532L57 526.915Z" fill="#FFCDC2"/>
<path d="M39 510.054C39.2714 510.247 39.577 510.409 39.9073 510.532C40.2206 510.655 40.5472 510.754 40.883 510.83C41.2192 510.905 41.5628 510.956 41.9101 510.984C42.2737 511.014 42.6409 511.002 43 510.948C42.7375 510.755 42.4416 510.592 42.1213 510.465C41.8097 510.34 41.4827 510.242 41.1455 510.171C40.8118 510.095 40.4699 510.044 40.1241 510.018C39.7492 509.985 39.3703 509.997 39 510.054V510.054Z" fill="#E0A4AB"/>
<path d="M39 512.095C39.1853 512.301 39.4104 512.472 39.6636 512.602C39.8917 512.722 40.1348 512.815 40.3876 512.88C40.6393 512.948 40.899 512.987 41.1609 512.997C41.4446 513.011 41.7287 512.978 42 512.901C41.8166 512.695 41.5934 512.524 41.3419 512.394C41.1124 512.275 40.8672 512.183 40.6124 512.121C40.3607 512.053 40.101 512.014 39.8391 512.004C39.5558 511.988 39.2716 512.019 39 512.095Z" fill="#E0A4AB"/>
<path d="M39 514.399C39.2142 514.587 39.4568 514.729 39.7159 514.819C39.957 514.91 40.207 514.966 40.4602 514.987C40.7144 515.013 40.9705 515 41.2216 514.948C41.4965 514.896 41.7605 514.787 42 514.625C41.7841 514.426 41.5375 514.275 41.2727 514.179C41.0304 514.085 40.7782 514.028 40.5227 514.011C40.2704 513.988 40.0166 514.001 39.767 514.049C39.4943 514.11 39.234 514.228 39 514.399V514.399Z" fill="#E0A4AB"/>
<path d="M57.2816 526L49 531.392L50.283 534L59 528.393L57.2816 526Z" fill="#E29332"/>
<path d="M281.315 512.293L278.793 504.789L293.218 506.009L289.937 512.022L281.315 512.293Z" fill="#66063F"/>
<g opacity="0.39">
<path d="M267.551 572.868C267.551 572.868 269.739 595.85 269.577 614.241C269.416 632.633 269.361 648.308 269.361 648.308C269.361 648.308 276.322 650.237 280.379 647.41C280.379 647.41 281.166 624.13 281.559 616.543C281.953 608.956 282.803 596.862 286.096 586.444C286.096 586.444 288.315 609.463 289.287 612.814C290.259 616.165 287.894 643.161 288.988 648.953C288.988 648.953 295.721 651.139 299.105 648.953C299.105 648.953 300.092 617.698 300.525 612.169C300.958 606.64 301.529 574.88 301.544 568.697C301.56 562.514 267.551 572.868 267.551 572.868Z" fill="#121E20"/>
</g>
<path d="M267.551 572.099C267.551 572.099 269.743 595.076 269.581 613.468C269.42 631.859 269.361 647.535 269.361 647.535C269.361 647.535 276.326 649.464 280.379 646.614C280.379 646.614 281.886 625.359 282.291 617.772C282.696 610.185 282.818 596.071 286.112 585.652C288.004 606.42 288.977 627.289 289.027 648.175C289.027 648.175 295.76 650.361 299.14 648.175C299.14 648.175 300.128 616.925 300.565 611.391C301.001 605.858 301.564 574.102 301.584 567.919C301.603 561.736 267.551 572.099 267.551 572.099Z" fill="#22393D"/>
<path d="M280.056 510.254L277.254 553.662L282.421 571.156H292.533V512.988C292.533 512.988 289.059 508.813 285.514 509.163C283.666 509.295 281.836 509.661 280.056 510.254V510.254Z" fill="#121E20"/>
<path d="M280.717 498.096C280.717 498.096 281.3 504.421 280.056 507.805C280.056 507.805 282.641 515.714 285.884 515.714C289.126 515.714 290.968 508.403 290.968 508.403C290.435 506.181 290.24 503.867 290.393 501.567C290.609 497.52 280.717 498.096 280.717 498.096Z" fill="#E0A4AB"/>
<path d="M277.199 506.898C277.199 506.898 276.302 509.163 271.832 508.477C267.362 507.791 257.686 509.075 257.686 509.075C257.686 509.075 247.227 517.684 245.96 519.793C244.103 522.886 244.78 525.883 249.403 528.282C254.027 530.68 263.258 525.796 267.653 527.508C268.853 541.803 267.94 556.939 265.894 572.527C265.894 572.527 275.22 578.116 282.421 575.184L283.483 515.718L277.199 506.898Z" fill="#9E0853"/>
<path d="M280.001 496.687C280.001 496.687 281.378 504.854 288.303 505.3C295.229 505.747 292.809 489.547 292.809 489.547C292.809 489.547 283.904 477.379 280.331 481.983C276.759 486.586 275.495 494.523 277.089 496.254C278.683 497.985 280.001 496.687 280.001 496.687Z" fill="#FFCDC2"/>
<path d="M279.399 492.507C279.457 493.373 279.718 494.204 280.154 494.908C280.59 495.611 281.184 496.16 281.87 496.493C281.87 496.493 279.839 491.347 282.751 483.953C282.751 483.953 282.267 488.805 285.683 488.354C285.683 488.354 285.388 486.14 285.553 485.302C285.553 485.302 285.388 489.353 287.819 489.257C287.819 489.257 287.477 487.166 287.753 486.462C287.753 486.462 287.827 490.651 290.448 490.071C290.448 490.071 289.661 488.198 289.897 487.166C289.897 487.166 290.007 490.578 293.36 490.223C293.36 490.223 297.645 489.763 293.029 482.729C288.414 475.694 279.234 476.684 275.991 484.529C272.749 492.373 274.945 499.9 280.772 502.86C280.772 502.86 281 500.379 280.611 498.804L280.001 496.687C280.001 496.687 277.64 496.636 277.585 494.242C277.53 491.848 279.399 492.507 279.399 492.507Z" fill="#121E21"/>
<path d="M293.218 508.583C293.218 508.583 302.099 508.647 304.078 510.608C306.058 512.569 314.081 510.254 314.081 510.254C314.081 510.254 322.985 517.776 324.248 520.479C325.512 523.181 325.681 529.806 320.731 529.999C315.781 530.192 303.142 526.91 303.142 526.91C301.595 539.556 302.461 554.352 304.519 570.212C304.519 570.212 297.629 575.957 290.448 575.276L286.93 517.224L293.218 508.583Z" fill="#9E0853"/>
<path d="M276.412 507.938L278.793 504.789L282.421 510.189L281.213 515.714C281.213 515.714 278.041 509.098 276.412 507.938Z" fill="#82084B"/>
<path d="M290.448 515.207L288.634 510.898L293.218 506.009L294.733 509.351C294.733 509.351 290.72 512.827 290.448 515.207Z" fill="#82084B"/>
<path d="M261.255 506.898C261.255 506.898 264.978 503.887 266.02 502.86C267.063 501.834 267.842 498.257 268.979 498.464C270.341 498.685 269.121 501.226 268.794 502.579C268.468 503.933 267.649 505.687 269.581 505.623C270.583 505.549 271.588 505.68 272.552 506.009C272.552 506.009 273.43 507.234 272.552 508.003C272.552 508.003 273.485 509.292 272.332 510.898C272.332 510.898 272.725 513.021 271.616 513.149C271.616 513.149 272.403 515.589 269.648 515.207C266.894 514.825 263.223 514.434 261.649 515.718L261.255 506.898Z" fill="#FFCDC2"/>
<path d="M256.88 508.988L261.208 506.502C261.208 506.502 261.719 513.619 264.139 516.961L260.11 518.849C258.911 517.651 257.987 516.122 257.423 514.399C256.858 512.677 256.672 510.816 256.88 508.988Z" fill="#82084B"/>
<path d="M310.65 507.179C310.65 507.179 307.352 503.62 306.369 502.497C305.385 501.373 305.019 497.635 303.933 497.635C302.56 497.663 303.288 500.572 303.539 501.972C303.791 503.371 304.326 505.471 302.418 505.259C301.423 505.111 300.414 505.166 299.435 505.42C299.435 505.42 298.491 506.571 299.325 507.409C299.325 507.409 298.322 508.624 299.384 510.314C299.384 510.314 298.881 512.404 299.971 512.615C299.971 512.615 299.069 514.996 301.832 514.821C304.594 514.646 308.238 514.535 309.757 515.939L310.65 507.179Z" fill="#FFCDC2"/>
<path d="M314.884 509.605L310.709 506.792C310.709 506.792 309.8 513.854 307.199 517.007L311.134 519.199C313.219 516.874 314.415 513.614 314.884 509.605Z" fill="#82084B"/>
<path d="M283.739 491.618C283.87 491.256 284.079 490.939 284.345 490.697C284.625 490.433 284.966 490.272 285.325 490.237C285.418 490.226 285.511 490.226 285.604 490.237C285.695 490.26 285.789 490.279 285.88 490.306C285.97 490.334 286.049 490.394 286.131 490.444C286.21 490.495 286.284 490.555 286.352 490.624C286.486 490.755 286.601 490.911 286.694 491.084C286.779 491.252 286.846 491.432 286.895 491.618C286.745 491.522 286.623 491.406 286.501 491.31C286.376 491.218 286.244 491.138 286.108 491.07C285.875 490.935 285.615 490.876 285.356 490.9C285.085 490.929 284.819 491.01 284.569 491.139C284.306 491.273 284.034 491.439 283.739 491.618Z" fill="#424143"/>
<path d="M289.665 492.152C289.796 491.79 290.005 491.473 290.271 491.231C290.55 490.965 290.892 490.804 291.251 490.771C291.344 490.762 291.437 490.762 291.53 490.771C291.62 490.771 291.715 490.808 291.805 490.84L292.057 490.974C292.136 491.026 292.21 491.087 292.278 491.158C292.412 491.289 292.527 491.445 292.62 491.618C292.704 491.788 292.772 491.969 292.821 492.157C292.671 492.06 292.549 491.94 292.427 491.848C292.302 491.754 292.17 491.672 292.034 491.604C291.801 491.469 291.541 491.41 291.282 491.434C291.01 491.463 290.744 491.545 290.495 491.678C290.231 491.802 289.98 491.973 289.665 492.152Z" fill="#424143"/>
<path d="M289.161 494.606L289.7 496.678L288.646 497.138C288.646 497.138 289.476 496.825 289.161 494.606Z" fill="#E0A4AB"/>
<path d="M285.317 494.058C285.643 494.058 285.907 493.724 285.907 493.312C285.907 492.9 285.643 492.567 285.317 492.567C284.991 492.567 284.727 492.9 284.727 493.312C284.727 493.724 284.991 494.058 285.317 494.058Z" fill="#424143"/>
<path d="M290.967 494.058C291.293 494.058 291.557 493.724 291.557 493.312C291.557 492.9 291.293 492.567 290.967 492.567C290.641 492.567 290.377 492.9 290.377 493.312C290.377 493.724 290.641 494.058 290.967 494.058Z" fill="#424143"/>
<path d="M286.151 498.943C287.622 499.417 289.165 499.505 290.668 499.2C290.717 499.191 290.768 499.194 290.816 499.21C290.864 499.226 290.908 499.254 290.945 499.292C290.983 499.331 291.013 499.378 291.033 499.431C291.053 499.485 291.063 499.543 291.062 499.601C291.062 500.724 290.975 503.284 288.354 503.284C285.651 503.284 285.561 500.393 285.718 499.269C285.725 499.213 285.742 499.159 285.769 499.111C285.795 499.063 285.83 499.022 285.871 498.991C285.912 498.96 285.958 498.94 286.007 498.932C286.055 498.923 286.104 498.927 286.151 498.943V498.943Z" fill="#EA7185"/>
<path d="M272.528 508.003C272.361 508.125 272.178 508.214 271.985 508.265C271.808 508.311 271.628 508.334 271.446 508.334C271.265 508.336 271.084 508.313 270.907 508.265C270.714 508.216 270.531 508.127 270.364 508.003C270.531 507.88 270.715 507.792 270.907 507.74C271.084 507.694 271.265 507.671 271.446 507.671C271.628 507.67 271.809 507.695 271.985 507.745C272.178 507.792 272.362 507.88 272.528 508.003V508.003Z" fill="#E0A4AB"/>
<path d="M272.528 510.746C272.361 510.869 272.178 510.957 271.985 511.009C271.808 511.055 271.628 511.078 271.446 511.078C271.265 511.08 271.084 511.057 270.907 511.009C270.714 510.959 270.531 510.871 270.364 510.746C270.531 510.624 270.715 510.535 270.907 510.484C271.084 510.438 271.265 510.415 271.446 510.415C271.628 510.414 271.809 510.439 271.985 510.489C272.178 510.536 272.362 510.624 272.528 510.746V510.746Z" fill="#E0A4AB"/>
<path d="M271.667 513.103C271.51 513.181 271.341 513.221 271.171 513.223C271.018 513.224 270.866 513.201 270.718 513.154C270.57 513.111 270.429 513.043 270.297 512.952C270.145 512.856 270.011 512.724 269.904 512.565C270.06 512.485 270.229 512.444 270.4 512.445C270.552 512.445 270.705 512.468 270.852 512.514C271 512.559 271.141 512.627 271.273 512.717C271.425 512.813 271.559 512.945 271.667 513.103V513.103Z" fill="#E0A4AB"/>
<path d="M299.424 507.459C299.59 507.337 299.774 507.249 299.967 507.202C300.143 507.152 300.324 507.127 300.506 507.128C300.687 507.127 300.868 507.152 301.045 507.202C301.237 507.249 301.421 507.337 301.588 507.459C301.422 507.586 301.238 507.675 301.045 507.722C300.868 507.771 300.687 507.796 300.506 507.795C300.324 507.796 300.143 507.772 299.967 507.722C299.773 507.675 299.589 507.586 299.424 507.459Z" fill="#E0A4AB"/>
<path d="M299.424 510.203C299.59 510.08 299.774 509.993 299.967 509.945C300.143 509.896 300.324 509.871 300.506 509.872C300.687 509.871 300.868 509.896 301.045 509.945C301.237 509.993 301.421 510.08 301.588 510.203C301.422 510.33 301.238 510.419 301.045 510.466C300.868 510.515 300.687 510.54 300.506 510.539C300.324 510.54 300.143 510.515 299.967 510.466C299.773 510.419 299.589 510.33 299.424 510.203Z" fill="#E0A4AB"/>
<path d="M300.116 512.565C300.223 512.406 300.357 512.275 300.509 512.178C300.642 512.086 300.785 512.016 300.934 511.971C301.083 511.926 301.237 511.904 301.391 511.906C301.561 511.911 301.729 511.951 301.886 512.026C301.778 512.184 301.644 512.315 301.493 512.413C301.361 512.504 301.22 512.573 301.072 512.62C300.922 512.662 300.769 512.684 300.615 512.685C300.444 512.683 300.274 512.643 300.116 512.565V512.565Z" fill="#E0A4AB"/>
<path d="M68.5 134.5L59.8773 127.602C58.9877 126.89 58.3775 125.888 58.1541 124.77C58.052 124.26 58.0329 123.737 58.0975 123.22L58.2432 122.054C58.4132 120.695 58.813 119.374 59.4257 118.149L60.4137 116.173C61.1188 114.762 62.2623 113.619 63.6726 112.914C64.222 112.639 64.8039 112.435 65.4046 112.306L69.3358 111.464C70.7746 111.155 72.2419 111 73.7133 111C77.4998 111 81.2531 112.052 84.5 114L86.8802 115.785C87.9233 116.567 88.6414 117.707 88.8971 118.985C88.9655 119.328 89 119.676 89 120.025V121.158C89 123.35 88.4415 125.505 87.3771 127.421C86.7952 128.469 86.0702 129.43 85.2229 130.277L81.6964 133.804C81.2336 134.266 80.7198 134.675 80.1648 135.022L78.2012 136.249C77.4346 136.728 76.8995 137.502 76.7222 138.389C76.5782 139.109 76.1971 139.76 75.6397 140.237L73 142.5C72.7863 142.714 72.4206 142.603 72.3613 142.307L72.0252 140.626C72.0084 140.542 72 140.457 72 140.372V139.935C72 138.093 71.1104 136.365 69.6115 135.294L68.5 134.5Z" fill="#EFEEF3"/>
<path d="M146.1 103.62V105L146.302 106.009C146.433 106.667 146.652 107.304 146.952 107.904L147 108C147.331 108.662 147.767 109.267 148.291 109.791C149.397 110.897 150.847 111.594 152.402 111.767L154.5 112H158.18C158.723 112 159.263 112.088 159.778 112.259C161.187 112.729 162.318 113.796 162.87 115.175L163 115.5L163.134 116.035C163.377 117.008 163.5 118.007 163.5 119.01V119.9C163.5 120.629 163.383 121.352 163.152 122.043C163.051 122.347 162.928 122.644 162.785 122.931L162.738 123.024C162.58 123.341 162.393 123.643 162.181 123.926L161.146 125.305C161.051 125.432 161 125.585 161 125.743C161 126.303 161.605 126.654 162.091 126.376L164.039 125.263C164.341 125.091 164.594 124.843 164.773 124.545L165.346 123.59C165.778 122.871 166.061 122.072 166.18 121.242L166.283 120.518C166.427 119.512 166.415 118.49 166.248 117.487L166.082 116.493C166.027 116.165 166 115.833 166 115.5V114.141C166 113.411 166.29 112.71 166.807 112.193C166.935 112.065 167.076 111.949 167.227 111.849L169.357 110.429C169.784 110.144 170.246 109.918 170.733 109.756L171.649 109.45C172.514 109.162 173.229 108.542 173.637 107.726C173.876 107.249 174 106.722 174 106.188V104.489C174 103.501 173.862 102.518 173.591 101.568L173.496 101.236C173.168 100.088 172.633 99.0105 171.917 98.0558C171.639 97.6857 171.336 97.3358 171.009 97.0087L170.891 96.8909C169.97 95.9697 168.906 95.203 167.741 94.6203L167.492 94.4959C166.174 93.8368 164.753 93.4066 163.29 93.2238L162.843 93.1679C161.95 93.0563 161.048 93.0377 160.151 93.1124L158.37 93.2608C156.48 93.4184 154.647 93.9877 153 94.9288L152 95.5L150.739 96.4457C150.247 96.8148 149.782 97.2183 149.347 97.6533L148.422 98.5783C148.141 98.8591 147.88 99.1594 147.642 99.4771L147.352 99.8642C146.791 100.612 146.405 101.476 146.222 102.392C146.141 102.796 146.1 103.208 146.1 103.62Z" fill="#FFC3B8"/>
<path d="M285.1 455.62V457L285.302 458.009C285.433 458.667 285.652 459.304 285.952 459.904L286 460C286.331 460.662 286.767 461.267 287.291 461.791C288.397 462.897 289.847 463.594 291.402 463.767L293.5 464H297.18C297.723 464 298.263 464.088 298.778 464.259C300.187 464.729 301.318 465.796 301.87 467.175L302 467.5L302.134 468.035C302.377 469.008 302.5 470.007 302.5 471.01V471.9C302.5 472.629 302.383 473.352 302.152 474.043C302.051 474.347 301.928 474.644 301.785 474.931L301.738 475.024C301.58 475.341 301.393 475.643 301.181 475.926L300.146 477.305C300.051 477.432 300 477.585 300 477.743C300 478.303 300.605 478.654 301.091 478.376L303.039 477.263C303.341 477.091 303.594 476.843 303.773 476.545L304.346 475.59C304.778 474.871 305.061 474.072 305.18 473.242L305.283 472.518C305.427 471.512 305.415 470.49 305.248 469.487L305.082 468.493C305.027 468.165 305 467.833 305 467.5V466.141C305 465.411 305.29 464.71 305.807 464.193C305.935 464.065 306.076 463.949 306.227 463.849L308.357 462.429C308.784 462.144 309.246 461.918 309.733 461.756L310.649 461.45C311.514 461.162 312.229 460.542 312.637 459.726C312.876 459.249 313 458.722 313 458.188V456.489C313 455.501 312.862 454.518 312.591 453.568L312.496 453.236C312.168 452.088 311.633 451.011 310.917 450.056C310.639 449.686 310.336 449.336 310.009 449.009L309.891 448.891C308.97 447.97 307.906 447.203 306.741 446.62L306.492 446.496C305.174 445.837 303.753 445.407 302.29 445.224L301.843 445.168C300.95 445.056 300.048 445.038 299.151 445.112L297.37 445.261C295.48 445.418 293.647 445.988 292 446.929L291 447.5L289.739 448.446C289.247 448.815 288.782 449.218 288.347 449.653L287.422 450.578C287.141 450.859 286.88 451.159 286.642 451.477L286.352 451.864C285.791 452.612 285.405 453.476 285.222 454.392C285.141 454.796 285.1 455.208 285.1 455.62Z" fill="#EFEEF3"/>
<path d="M9.1 455.62V457L9.30173 458.009C9.43332 458.667 9.65205 459.304 9.95213 459.904L9.99989 460C10.3311 460.662 10.767 461.267 11.2907 461.791C12.3972 462.897 13.8473 463.594 15.4025 463.767L17.5 464H21.1803C21.7232 464 22.2626 464.088 22.7776 464.259C24.1871 464.729 25.3182 465.796 25.87 467.175L26 467.5L26.1338 468.035C26.377 469.008 26.5 470.007 26.5 471.01V471.9C26.5 472.629 26.3826 473.352 26.1523 474.043C26.0509 474.347 25.928 474.644 25.7846 474.931L25.738 475.024C25.5797 475.341 25.3931 475.643 25.1806 475.926L24.1459 477.305C24.0512 477.432 24 477.585 24 477.743C24 478.303 24.605 478.654 25.0913 478.376L27.0391 477.263C27.3413 477.091 27.594 476.843 27.7731 476.545L28.3461 475.59C28.7777 474.871 29.0611 474.072 29.1797 473.242L29.2831 472.518C29.4268 471.512 29.415 470.49 29.2478 469.487L29.0821 468.493C29.0275 468.165 29 467.833 29 467.5V466.141C29 465.411 29.2903 464.71 29.8071 464.193C29.9354 464.065 30.076 463.949 30.227 463.849L32.3572 462.429C32.7838 462.144 33.2465 461.918 33.733 461.756L34.6488 461.45C35.5139 461.162 36.2291 460.542 36.637 459.726C36.8757 459.249 37 458.722 37 458.188V456.489C37 455.501 36.8623 454.518 36.5908 453.568L36.4959 453.236C36.1681 452.088 35.6329 451.011 34.9169 450.056C34.6393 449.686 34.3358 449.336 34.0087 449.009L33.8909 448.891C32.9697 447.97 31.9059 447.203 30.7407 446.62L30.4917 446.496C29.1735 445.837 27.7528 445.407 26.2904 445.224L25.8431 445.168C24.9501 445.056 24.0479 445.038 23.1511 445.112L21.3699 445.261C19.4795 445.418 17.6466 445.988 15.9996 446.929L15 447.5L13.7391 448.446C13.247 448.815 12.7817 449.218 12.3467 449.653L11.4217 450.578C11.1409 450.859 10.8804 451.159 10.6421 451.477L10.3519 451.864C9.79108 452.612 9.40486 453.476 9.22155 454.392C9.14072 454.796 9.1 455.208 9.1 455.62Z" fill="#FFC3B8"/>
<path d="M189.951 45.2222C189.951 51.3261 182.167 60.4349 175.143 62.2606C174.532 62.4192 173.987 61.9078 173.9 61.2828C172.812 53.4111 157.264 47.5403 163.449 38.5C166.449 34.1156 167.21 31 175.951 31C184.691 31 190.949 38 189.951 45.2222Z" fill="#7C8DC0"/>
<path d="M44.3606 55.4425L44.0556 54.2223C44.0187 54.0746 44 53.9231 44 53.7709C44 53.2773 44.1961 52.8039 44.5451 52.4549L46.5 50.5L47.8657 49.1343C48.287 48.713 48.7583 48.345 49.2692 48.0385C50.4018 47.3589 51.6977 47 53.0184 47H57.2471C59.0526 47 60.8282 47.4601 62.4065 48.3369L62.5241 48.4023C63.825 49.125 64.9599 50.1439 65.825 51.3549C66.5938 52.4314 67.1479 53.6655 67.4349 54.9569C67.8053 56.6236 67.736 58.358 67.2339 59.9899L66 64L64.6175 67.1107C64.2069 68.0345 63.7039 68.9145 63.1163 69.7372L61.5 72L60.5618 73.4073C60.5215 73.4677 60.5 73.5388 60.5 73.6114V73.8758C60.5 74.1061 60.2215 74.2215 60.0586 74.0586C60.0205 74.0205 59.9952 73.9714 59.9864 73.9183L59.7242 72.3451C59.5772 71.4631 59.2067 70.6334 58.6482 69.9352L57.5 68.5L56.0503 67.0503C55.3518 66.3518 54.586 65.724 53.7642 65.1761L52.754 64.5027C52.2527 64.1685 51.718 63.8872 51.1586 63.6634C50.0643 63.2257 49.0703 62.5703 48.2368 61.7368L47 60.5L46.6468 60.0585C45.5617 58.7021 44.7819 57.1277 44.3606 55.4425Z" fill="#FFCA6C"/>
<path d="M169.038 161.231L168.369 160.115C168.127 159.712 168 159.252 168 158.783C168 158.273 168.151 157.773 168.435 157.348L168.754 156.87C168.917 156.624 169.105 156.395 169.314 156.186L169.697 155.803C170.558 154.942 171.575 154.254 172.694 153.774L173.004 153.641C173.991 153.218 175.054 153 176.128 153C177.359 153 178.573 153.287 179.675 153.837L181.466 154.733C181.82 154.91 182.143 155.143 182.422 155.422C183.112 156.112 183.5 157.048 183.5 158.024V158.576C183.5 158.858 183.535 159.138 183.603 159.411C183.854 160.416 183.639 161.481 183.017 162.31L182.897 162.471C182.634 162.821 182.314 163.124 181.95 163.367L181.808 163.461C181.275 163.817 180.817 164.275 180.461 164.808L180 165.5L179.047 166.93C179.016 166.976 179 167.029 179 167.084C179 167.358 178.644 167.466 178.492 167.238L178 166.5C177.375 165.563 176.324 165 175.197 165H175.082C174.696 165 174.314 164.938 173.948 164.816L173.264 164.588C172.104 164.201 171.05 163.55 170.185 162.685L170.134 162.634C169.713 162.213 169.345 161.742 169.038 161.231Z" fill="#FFCA6C"/>
<path d="M26.3606 395.443L26.0556 394.222C26.0187 394.075 26 393.923 26 393.771C26 393.277 26.1961 392.804 26.5451 392.455L28.5 390.5L29.8657 389.134C30.287 388.713 30.7583 388.345 31.2692 388.038C32.4018 387.359 33.6977 387 35.0184 387H39.2471C41.0526 387 42.8282 387.46 44.4065 388.337L44.5241 388.402C45.825 389.125 46.9599 390.144 47.825 391.355C48.5938 392.431 49.1479 393.666 49.4349 394.957C49.8053 396.624 49.736 398.358 49.2339 399.99L48 404L46.6175 407.111C46.2069 408.035 45.7039 408.914 45.1163 409.737L43.5 412L42.5618 413.407C42.5215 413.468 42.5 413.539 42.5 413.611V413.876C42.5 414.106 42.2215 414.221 42.0586 414.059C42.0205 414.02 41.9952 413.971 41.9864 413.918L41.7242 412.345C41.5772 411.463 41.2067 410.633 40.6482 409.935L39.5 408.5L38.0503 407.05C37.3518 406.352 36.586 405.724 35.7642 405.176L34.754 404.503C34.2527 404.168 33.718 403.887 33.1586 403.663C32.0643 403.226 31.0703 402.57 30.2368 401.737L29 400.5L28.6468 400.058C27.5617 398.702 26.7819 397.128 26.3606 395.443Z" fill="#FFCA6C"/>
<path d="M151.038 501.231L150.369 500.115C150.127 499.712 150 499.252 150 498.783C150 498.273 150.151 497.773 150.435 497.348L150.754 496.87C150.917 496.624 151.105 496.395 151.314 496.186L151.697 495.803C152.558 494.942 153.575 494.254 154.694 493.774L155.004 493.641C155.991 493.218 157.054 493 158.128 493C159.359 493 160.573 493.287 161.675 493.837L163.466 494.733C163.82 494.91 164.143 495.143 164.422 495.422C165.112 496.112 165.5 497.048 165.5 498.024V498.576C165.5 498.858 165.535 499.138 165.603 499.411C165.854 500.416 165.639 501.481 165.017 502.31L164.897 502.471C164.634 502.821 164.314 503.124 163.95 503.367L163.808 503.461C163.275 503.817 162.817 504.275 162.461 504.808L162 505.5L161.047 506.93C161.016 506.976 161 507.029 161 507.084C161 507.358 160.644 507.466 160.492 507.238L160 506.5C159.375 505.563 158.324 505 157.197 505H157.082C156.696 505 156.314 504.938 155.948 504.816L155.264 504.588C154.104 504.201 153.05 503.55 152.185 502.685L152.134 502.634C151.713 502.213 151.345 501.742 151.038 501.231Z" fill="#FFCA6C"/>
<path d="M313.718 19.3836L313.956 18.2163C313.985 18.0725 314 17.926 314 17.7792C314 17.2752 313.826 16.7866 313.508 16.3957L311.964 14.5L310.78 13.0461C310.485 12.6835 310.145 12.3596 309.769 12.0822C308.815 11.3792 307.661 11 306.476 11H303.53C301.863 11 300.235 11.5026 298.858 12.4422C297.837 13.1386 296.985 14.0543 296.363 15.1225L296.161 15.4708C295.572 16.4825 295.165 17.5891 294.956 18.7408L294.906 19.0209C294.61 20.6549 294.666 22.3331 295.069 23.9438L296.086 28L297.255 31.2302C297.56 32.075 297.942 32.8907 298.393 33.6673L299.75 36L300.525 37.4272C300.551 37.475 300.564 37.5285 300.564 37.5828V37.9139C300.564 38.11 300.811 38.1976 300.934 38.0455C300.959 38.0157 300.974 37.9799 300.979 37.9419L301.198 36.3329C301.317 35.4552 301.629 34.6151 302.113 33.873L303.007 32.5L304.112 31.1437C304.731 30.3832 305.425 29.687 306.184 29.0657L306.88 28.4956C307.283 28.1663 307.721 27.8843 308.188 27.655C309.067 27.2234 309.841 26.607 310.46 25.848L311.557 24.5L311.728 24.2373C312.691 22.7591 313.366 21.1123 313.718 19.3836Z" fill="#FFCA6C"/>
<path d="M212.159 125.279L212.715 124.142C212.921 123.72 213.029 123.255 213.029 122.785C213.029 122.27 212.9 121.763 212.654 121.31L212.433 120.903C212.288 120.635 212.117 120.381 211.925 120.144L211.506 119.63C210.899 118.884 210.147 118.269 209.296 117.821L208.912 117.619C208.14 117.213 207.279 117 206.406 117C205.412 117 204.437 117.275 203.59 117.796L202.162 118.673C201.809 118.889 201.495 119.164 201.234 119.485C200.699 120.142 200.407 120.962 200.407 121.809V122.584C200.407 122.861 200.379 123.137 200.324 123.408C200.116 124.431 200.307 125.502 200.851 126.394C201.095 126.793 201.406 127.151 201.769 127.448L201.788 127.464C202.221 127.818 202.58 128.253 202.846 128.744L203.257 129.5L204.043 130.947C204.062 130.982 204.071 131.021 204.071 131.061C204.071 131.308 204.402 131.392 204.52 131.174L204.886 130.5L204.97 130.344C205.42 129.516 206.287 129 207.23 129C207.564 129 207.895 128.935 208.204 128.808L208.8 128.564C209.705 128.194 210.502 127.603 211.119 126.845L211.301 126.622C211.637 126.209 211.925 125.758 212.159 125.279Z" fill="#FFCA6C"/>
<path d="M29.168 164.982C30.668 174.482 14.833 184.482 5.16797 184.482C3.66797 178.982 -5.332 173.982 -3.83205 166.5C-3.83205 158.492 4.00297 152 13.668 152C23.3329 152 26.668 155.982 29.168 164.982Z" fill="#7C8DC0"/>
<path d="M227.168 453.982C228.668 463.482 212.833 473.482 203.168 473.482C201.668 467.982 192.668 462.982 194.168 455.5C194.168 447.492 202.003 441 211.668 441C221.333 441 224.668 444.982 227.168 453.982Z" fill="#7C8DC0"/>
<path d="M63.168 448.982C64.668 458.482 48.833 468.482 39.168 468.482C37.668 462.982 28.668 457.982 30.168 450.5C30.168 442.492 38.003 436 47.668 436C57.3329 436 60.668 439.982 63.168 448.982Z" fill="#EFEEF3"/>
<path d="M273.168 180.982C274.668 190.482 258.833 200.482 249.168 200.482C247.668 194.982 238.668 189.982 240.168 182.5C240.168 174.492 248.003 168 257.668 168C267.333 168 270.668 171.982 273.168 180.982Z" fill="#FFC3BA"/>
<path d="M264.132 483.982C265.632 493.482 249.129 506.5 239.464 506.5C241.464 499.5 229.632 492.982 231.132 485.5C231.132 477.492 238.967 471 248.632 471C258.297 471 261.632 474.982 264.132 483.982Z" fill="#FFC3BA"/>
<path d="M62.0956 461.789C60.6527 471.148 75.8845 481 85.1813 481C86.6241 475.582 95.2813 470.656 93.8384 463.285C93.8384 455.396 86.3019 449 77.0051 449C67.7083 449 64.5003 452.923 62.0956 461.789Z" fill="#FFCA6C"/>
</g>
<defs>
<clipPath id="clip0_3_254">
<rect width="320" height="568" rx="21" fill="white"/>
</clipPath>
</defs>
</svg>
